<svg  viewBox="0 0 30 30" fill="none" xmlns="http://www.w3.org/2000/svg">
<path d="M10.2459 29.8451C5.26066 29.8451 0.797708 27.4712 0.797708 21.6314C0.797708 14.937 7.39719 12.5156 14.7088 12.5156C16.9403 12.5156 19.3617 12.658 20.976 12.8954V12.4681C20.4062 9.14461 16.8928 8.24252 14.0441 8.24252C10.3408 8.24252 6.54258 9.71435 3.93127 11.7559H3.36153V3.20983C6.16275 1.54809 10.4358 0.218696 15.1361 0.218696C24.4894 0.218696 29.617 5.96357 29.617 13.5126V29.2754H21.0709V28.4683L22.2579 16.1239H21.7356C21.4982 25.1923 17.2727 29.8451 10.2459 29.8451ZM8.96397 20.1596C8.96397 22.486 10.9106 23.483 13.1895 23.483C17.0828 23.483 19.789 20.7768 20.1214 16.029H16.6554C10.5782 16.029 8.96397 18.0705 8.96397 20.1596Z" fill="#351C76"/>
</svg>
