<svg width="310" height="46" viewBox="0 0 365 64" fill="none" xmlns="http://www.w3.org/2000/svg">
<path d="M104.401 46.1148H78.8358V15.1614H102.446C104.239 15.1614 105.588 15.4346 106.485 15.9811C107.381 16.5276 107.834 17.484 107.834 18.8416C107.834 20.1993 107.748 21.1813 107.586 21.779C107.322 22.4707 106.741 22.9403 105.844 23.2221H95.0597C93.258 23.2221 91.7978 24.6822 91.7978 26.4839V31.7012C91.7978 33.5029 93.258 34.963 95.0597 34.963H100.841C101.489 35.0911 102.19 35.1765 103.009 35.1765C104.973 35.1765 106.493 35.3985 107.586 35.834C108.295 36.1585 108.799 36.705 109.098 37.4649C109.396 38.2249 109.55 39.2581 109.55 40.5645C109.55 44.2704 107.834 46.1148 104.401 46.1148ZM122.29 18.6709C122.29 13.7183 120.523 9.46596 116.979 5.93087C113.606 2.44701 109.414 0.705078 104.401 0.705078H71.6461C68.1622 0.705078 66.0361 1.43942 65.2761 2.90811C64.8406 3.72784 64.5844 4.43657 64.4991 5.03429C64.4137 5.63201 64.3795 6.58836 64.3795 7.89481V53.2192C64.3795 55.1233 64.5418 56.5408 64.8662 57.463C65.5237 59.5294 67.7524 60.5626 71.5607 60.5626H105.212C110.387 60.5626 114.784 58.7267 118.405 55.0465C122.025 51.3748 123.887 46.815 123.998 41.3672C123.998 36.6281 122.393 32.3587 119.182 28.5418C121.248 25.5447 122.282 22.2487 122.282 18.6623" fill="white"/>
<path d="M231.903 42.7681C228.804 45.7055 225.311 47.1827 221.452 47.1827C217.592 47.1827 214.083 45.6713 210.958 42.6485C207.824 39.6258 206.261 35.6979 206.261 30.8478C206.261 25.9977 207.815 22.0699 210.915 19.0471C214.015 16.0243 217.498 14.513 221.366 14.513C225.235 14.513 228.727 16.0073 231.861 19.0044C234.995 22.0015 236.557 25.9721 236.557 30.9332C236.557 35.8943 235.003 39.8393 231.903 42.7766M242.107 8.79191C236.173 2.9684 229.18 0.0566406 221.119 0.0566406C217.362 0.0566406 213.716 0.816601 210.172 2.34506C206.628 3.87352 203.503 5.96554 200.779 8.63821C198.055 11.3023 195.878 14.6154 194.247 18.5604C192.616 22.5053 191.796 26.7406 191.796 31.2577C191.796 39.5319 194.7 46.6704 200.497 52.6561C206.295 58.6504 213.331 61.639 221.614 61.639C229.897 61.639 236.856 58.6077 242.526 52.5366C248.187 46.4654 251.022 39.1134 251.022 30.4806C251.022 21.8478 248.05 14.624 242.124 8.80045" fill="white"/>
<path d="M345.71 41.7429C342.55 44.6547 339.015 46.1148 335.088 46.1148H322.296V15.2468H335.011C339.143 15.2468 342.755 16.7325 345.829 19.6955C348.903 22.6671 350.44 26.3473 350.44 30.7619C350.44 35.1765 348.861 38.8312 345.701 41.7429M355.914 9.3208C349.928 3.63391 342.986 0.790467 335.088 0.790467L315.107 0.705078C311.623 0.705078 309.496 1.43942 308.737 2.90811C308.301 3.72784 308.045 4.43657 307.959 5.03429C307.874 5.63201 307.84 6.58836 307.84 7.89481V53.3045C307.84 55.6442 308.164 57.3861 308.822 58.5303C309.642 59.888 311.708 60.5711 315.03 60.5711H334.848C343.182 60.5711 350.27 57.5996 356.127 51.6651C361.976 45.7306 364.905 38.6091 364.905 30.3094C364.905 22.0096 361.908 15.0077 355.922 9.3208" fill="white"/>
<path d="M52.4167 0.0471634H51.9556C51.3579 -0.0211476 50.7601 -0.0126087 50.1624 0.0557023C47.8142 0.14963 45.7905 1.44754 44.6719 3.35171L1.99463 50.2216C-0.84882 53.3468 -0.626809 58.1884 2.49842 61.0403C5.62365 63.8838 10.4652 63.6618 13.3172 60.5365L43.7497 27.1154V38.2501H37.4993C35.9196 38.2501 34.6302 39.5309 34.6302 41.1192V47.1305C34.6302 48.7102 35.911 49.9996 37.4993 49.9996H43.7326V53.8848C43.7326 57.565 46.7042 60.5536 50.3844 60.5536H52.3654C56.0457 60.5536 59.0343 57.5821 59.0343 53.9018L59.077 6.72456C59.077 3.04431 56.0969 0.0557023 52.4167 0.0557023" fill="white"/>
<path d="M296.944 0.0471634H296.483C295.886 -0.0211476 295.288 -0.0126087 294.69 0.0557023C292.342 0.14963 290.318 1.44754 289.2 3.35171L246.522 50.2216C243.679 53.3468 243.901 58.1884 247.026 61.0403C250.151 63.8838 254.993 63.6618 257.845 60.5365L288.277 27.1154V38.2501H282.027C280.447 38.2501 279.158 39.5309 279.158 41.1192V47.1305C279.158 48.7102 280.439 49.9996 282.027 49.9996H288.26V53.8848C288.26 57.565 291.232 60.5536 294.912 60.5536H296.893C300.573 60.5536 303.562 57.5821 303.562 53.9018L303.605 6.72456C303.605 3.04431 300.625 0.0557023 296.944 0.0557023" fill="white"/>
<path d="M181.755 37.7046C185.836 33.734 187.886 28.6704 187.886 22.5139C187.886 18.9788 187.177 15.7597 185.759 12.8735C184.342 9.98738 182.549 7.69896 180.371 6.01681C175.854 2.53295 171.192 0.791016 166.402 0.791016H136.584C133.1 0.791016 130.974 1.52536 130.214 2.99404C129.779 3.81378 129.522 4.53104 129.437 5.15438C129.352 5.77772 129.318 6.71699 129.318 7.97221V53.2965C129.318 55.2007 129.48 56.6182 129.804 57.5404C130.462 59.5555 132.69 60.5631 136.499 60.5631C139.983 60.5631 142.109 59.8288 142.869 58.3601C143.304 57.5404 143.56 56.8231 143.646 56.1912C143.723 55.5679 143.765 54.6286 143.765 53.3734V15.2473H166.231C167.922 15.2473 169.553 15.8621 171.132 17.0832C172.712 18.3042 173.498 20.123 173.498 22.5139C173.498 24.9048 172.712 26.7065 171.132 27.9019C169.553 29.0974 167.973 29.6951 166.393 29.6951H158.213C156.215 29.6951 154.593 31.3175 154.593 33.3156V40.5309C154.593 42.529 156.215 44.1514 158.213 44.1514H168.827C172.49 52.8696 174.591 57.7453 175.129 58.77C175.453 59.3164 175.957 59.8459 176.64 60.3667C177.323 60.8791 178.194 61.1438 179.253 61.1438C180.312 61.1438 181.712 60.7595 183.462 59.9996C186.835 58.5821 188.526 56.8402 188.526 54.7738C188.526 53.9028 188.116 52.4854 187.305 50.5299C184.803 44.8687 182.95 40.5907 181.746 37.7046" fill="white"/>
</svg>
