<svg width="249" height="16" viewBox="0 0 249 16" fill="none" xmlns="http://www.w3.org/2000/svg">
<path d="M0.7 8C0.7 6.62667 1.00667 5.4 1.62 4.32C2.24667 3.22667 3.09333 2.38 4.16 1.78C5.24 1.16667 6.44667 0.86 7.78 0.86C9.34 0.86 10.7067 1.26 11.88 2.06C13.0533 2.86 13.8733 3.96667 14.34 5.38H11.12C10.8 4.71333 10.3467 4.21333 9.76 3.88C9.18667 3.54667 8.52 3.38 7.76 3.38C6.94667 3.38 6.22 3.57333 5.58 3.96C4.95333 4.33333 4.46 4.86667 4.1 5.56C3.75333 6.25333 3.58 7.06667 3.58 8C3.58 8.92 3.75333 9.73333 4.1 10.44C4.46 11.1333 4.95333 11.6733 5.58 12.06C6.22 12.4333 6.94667 12.62 7.76 12.62C8.52 12.62 9.18667 12.4533 9.76 12.12C10.3467 11.7733 10.8 11.2667 11.12 10.6H14.34C13.8733 12.0267 13.0533 13.14 11.88 13.94C10.72 14.7267 9.35333 15.12 7.78 15.12C6.44667 15.12 5.24 14.82 4.16 14.22C3.09333 13.6067 2.24667 12.76 1.62 11.68C1.00667 10.6 0.7 9.37333 0.7 8ZM16.0116 9.42C16.0116 8.3 16.2316 7.30667 16.6716 6.44C17.1249 5.57333 17.7316 4.90667 18.4916 4.44C19.2649 3.97333 20.1249 3.74 21.0716 3.74C21.8982 3.74 22.6182 3.90667 23.2316 4.24C23.8582 4.57333 24.3582 4.99333 24.7316 5.5V3.92H27.5516V15H24.7316V13.38C24.3716 13.9 23.8716 14.3333 23.2316 14.68C22.6049 15.0133 21.8782 15.18 21.0516 15.18C20.1182 15.18 19.2649 14.94 18.4916 14.46C17.7316 13.98 17.1249 13.3067 16.6716 12.44C16.2316 11.56 16.0116 10.5533 16.0116 9.42ZM24.7316 9.46C24.7316 8.78 24.5982 8.2 24.3316 7.72C24.0649 7.22667 23.7049 6.85333 23.2516 6.6C22.7982 6.33333 22.3116 6.2 21.7916 6.2C21.2716 6.2 20.7916 6.32667 20.3516 6.58C19.9116 6.83333 19.5516 7.20667 19.2716 7.7C19.0049 8.18 18.8716 8.75333 18.8716 9.42C18.8716 10.0867 19.0049 10.6733 19.2716 11.18C19.5516 11.6733 19.9116 12.0533 20.3516 12.32C20.8049 12.5867 21.2849 12.72 21.7916 12.72C22.3116 12.72 22.7982 12.5933 23.2516 12.34C23.7049 12.0733 24.0649 11.7 24.3316 11.22C24.5982 10.7267 24.7316 10.14 24.7316 9.46ZM29.5662 9.42C29.5662 8.3 29.7862 7.30667 30.2262 6.44C30.6796 5.57333 31.2929 4.90667 32.0663 4.44C32.8396 3.97333 33.6996 3.74 34.6463 3.74C35.3663 3.74 36.0529 3.9 36.7063 4.22C37.3596 4.52667 37.8796 4.94 38.2663 5.46V0.2H41.1063V15H38.2663V13.36C37.9196 13.9067 37.4329 14.3467 36.8063 14.68C36.1796 15.0133 35.4529 15.18 34.6263 15.18C33.6929 15.18 32.8396 14.94 32.0663 14.46C31.2929 13.98 30.6796 13.3067 30.2262 12.44C29.7862 11.56 29.5662 10.5533 29.5662 9.42ZM38.2863 9.46C38.2863 8.78 38.1529 8.2 37.8863 7.72C37.6196 7.22667 37.2596 6.85333 36.8063 6.6C36.3529 6.33333 35.8663 6.2 35.3463 6.2C34.8263 6.2 34.3463 6.32667 33.9062 6.58C33.4663 6.83333 33.1063 7.20667 32.8263 7.7C32.5596 8.18 32.4263 8.75333 32.4263 9.42C32.4263 10.0867 32.5596 10.6733 32.8263 11.18C33.1063 11.6733 33.4663 12.0533 33.9062 12.32C34.3596 12.5867 34.8396 12.72 35.3463 12.72C35.8663 12.72 36.3529 12.5933 36.8063 12.34C37.2596 12.0733 37.6196 11.7 37.8863 11.22C38.1529 10.7267 38.2863 10.14 38.2863 9.46ZM43.1209 9.42C43.1209 8.3 43.3409 7.30667 43.7809 6.44C44.2343 5.57333 44.8409 4.90667 45.6009 4.44C46.3743 3.97333 47.2343 3.74 48.1809 3.74C49.0076 3.74 49.7276 3.90667 50.3409 4.24C50.9676 4.57333 51.4676 4.99333 51.8409 5.5V3.92H54.6609V15H51.8409V13.38C51.4809 13.9 50.9809 14.3333 50.3409 14.68C49.7143 15.0133 48.9876 15.18 48.1609 15.18C47.2276 15.18 46.3743 14.94 45.6009 14.46C44.8409 13.98 44.2343 13.3067 43.7809 12.44C43.3409 11.56 43.1209 10.5533 43.1209 9.42ZM51.8409 9.46C51.8409 8.78 51.7076 8.2 51.4409 7.72C51.1743 7.22667 50.8143 6.85333 50.3609 6.6C49.9076 6.33333 49.4209 6.2 48.9009 6.2C48.3809 6.2 47.9009 6.32667 47.4609 6.58C47.0209 6.83333 46.6609 7.20667 46.3809 7.7C46.1143 8.18 45.9809 8.75333 45.9809 9.42C45.9809 10.0867 46.1143 10.6733 46.3809 11.18C46.6609 11.6733 47.0209 12.0533 47.4609 12.32C47.9143 12.5867 48.3943 12.72 48.9009 12.72C49.4209 12.72 49.9076 12.5933 50.3609 12.34C50.8143 12.0733 51.1743 11.7 51.4409 11.22C51.7076 10.7267 51.8409 10.14 51.8409 9.46ZM75.9213 3.76C77.2813 3.76 78.3746 4.18 79.2013 5.02C80.0413 5.84667 80.4613 7.00667 80.4613 8.5V15H77.6613V8.88C77.6613 8.01333 77.4413 7.35333 77.0013 6.9C76.5613 6.43333 75.9613 6.2 75.2013 6.2C74.4413 6.2 73.8346 6.43333 73.3813 6.9C72.9413 7.35333 72.7213 8.01333 72.7213 8.88V15H69.9213V8.88C69.9213 8.01333 69.7013 7.35333 69.2613 6.9C68.8213 6.43333 68.2213 6.2 67.4613 6.2C66.6879 6.2 66.0746 6.43333 65.6213 6.9C65.1813 7.35333 64.9613 8.01333 64.9613 8.88V15H62.1613V3.92H64.9613V5.26C65.3213 4.79333 65.7813 4.42667 66.3413 4.16C66.9146 3.89333 67.5413 3.76 68.2213 3.76C69.0879 3.76 69.8613 3.94667 70.5413 4.32C71.2213 4.68 71.7479 5.2 72.1213 5.88C72.4813 5.24 73.0013 4.72667 73.6813 4.34C74.3746 3.95333 75.1213 3.76 75.9213 3.76ZM82.3983 9.42C82.3983 8.3 82.6183 7.30667 83.0583 6.44C83.5116 5.57333 84.1183 4.90667 84.8783 4.44C85.6516 3.97333 86.5116 3.74 87.4583 3.74C88.2849 3.74 89.0049 3.90667 89.6183 4.24C90.2449 4.57333 90.7449 4.99333 91.1183 5.5V3.92H93.9383V15H91.1183V13.38C90.7583 13.9 90.2583 14.3333 89.6183 14.68C88.9916 15.0133 88.2649 15.18 87.4383 15.18C86.5049 15.18 85.6516 14.94 84.8783 14.46C84.1183 13.98 83.5116 13.3067 83.0583 12.44C82.6183 11.56 82.3983 10.5533 82.3983 9.42ZM91.1183 9.46C91.1183 8.78 90.9849 8.2 90.7183 7.72C90.4516 7.22667 90.0916 6.85333 89.6383 6.6C89.1849 6.33333 88.6983 6.2 88.1783 6.2C87.6583 6.2 87.1783 6.32667 86.7383 6.58C86.2983 6.83333 85.9383 7.20667 85.6583 7.7C85.3916 8.18 85.2583 8.75333 85.2583 9.42C85.2583 10.0867 85.3916 10.6733 85.6583 11.18C85.9383 11.6733 86.2983 12.0533 86.7383 12.32C87.1916 12.5867 87.6716 12.72 88.1783 12.72C88.6983 12.72 89.1849 12.5933 89.6383 12.34C90.0916 12.0733 90.4516 11.7 90.7183 11.22C90.9849 10.7267 91.1183 10.14 91.1183 9.46ZM99.473 5.64C99.833 5.05333 100.3 4.59333 100.873 4.26C101.46 3.92667 102.126 3.76 102.873 3.76V6.7H102.133C101.253 6.7 100.586 6.90667 100.133 7.32C99.693 7.73333 99.473 8.45333 99.473 9.48V15H96.673V3.92H99.473V5.64ZM108.019 6.22V11.58C108.019 11.9533 108.106 12.2267 108.279 12.4C108.466 12.56 108.772 12.64 109.199 12.64H110.499V15H108.739C106.379 15 105.199 13.8533 105.199 11.56V6.22H103.879V3.92H105.199V1.18H108.019V3.92H110.499V6.22H108.019ZM122.813 9.22C122.813 9.62 122.786 9.98 122.733 10.3H114.633C114.699 11.1 114.979 11.7267 115.473 12.18C115.966 12.6333 116.573 12.86 117.293 12.86C118.333 12.86 119.073 12.4133 119.513 11.52H122.533C122.213 12.5867 121.599 13.4667 120.693 14.16C119.786 14.84 118.673 15.18 117.353 15.18C116.286 15.18 115.326 14.9467 114.473 14.48C113.633 14 112.973 13.3267 112.493 12.46C112.026 11.5933 111.793 10.5933 111.793 9.46C111.793 8.31333 112.026 7.30667 112.493 6.44C112.959 5.57333 113.613 4.90667 114.453 4.44C115.293 3.97333 116.259 3.74 117.353 3.74C118.406 3.74 119.346 3.96667 120.173 4.42C121.013 4.87333 121.659 5.52 122.113 6.36C122.579 7.18667 122.813 8.14 122.813 9.22ZM119.913 8.42C119.899 7.7 119.639 7.12667 119.133 6.7C118.626 6.26 118.006 6.04 117.273 6.04C116.579 6.04 115.993 6.25333 115.513 6.68C115.046 7.09333 114.759 7.67333 114.653 8.42H119.913ZM129.097 15.18C128.19 15.18 127.377 15.02 126.657 14.7C125.937 14.3667 125.363 13.92 124.937 13.36C124.523 12.8 124.297 12.18 124.257 11.5H127.077C127.13 11.9267 127.337 12.28 127.697 12.56C128.07 12.84 128.53 12.98 129.077 12.98C129.61 12.98 130.023 12.8733 130.317 12.66C130.623 12.4467 130.777 12.1733 130.777 11.84C130.777 11.48 130.59 11.2133 130.217 11.04C129.857 10.8533 129.277 10.6533 128.477 10.44C127.65 10.24 126.97 10.0333 126.437 9.82C125.917 9.60667 125.463 9.28 125.077 8.84C124.703 8.4 124.517 7.80667 124.517 7.06C124.517 6.44667 124.69 5.88667 125.037 5.38C125.397 4.87333 125.903 4.47333 126.557 4.18C127.223 3.88667 128.003 3.74 128.897 3.74C130.217 3.74 131.27 4.07333 132.057 4.74C132.843 5.39333 133.277 6.28 133.357 7.4H130.677C130.637 6.96 130.45 6.61333 130.117 6.36C129.797 6.09333 129.363 5.96 128.817 5.96C128.31 5.96 127.917 6.05333 127.637 6.24C127.37 6.42667 127.237 6.68667 127.237 7.02C127.237 7.39333 127.423 7.68 127.797 7.88C128.17 8.06667 128.75 8.26 129.537 8.46C130.337 8.66 130.997 8.86667 131.517 9.08C132.037 9.29333 132.483 9.62667 132.857 10.08C133.243 10.52 133.443 11.1067 133.457 11.84C133.457 12.48 133.277 13.0533 132.917 13.56C132.57 14.0667 132.063 14.4667 131.397 14.76C130.743 15.04 129.977 15.18 129.097 15.18ZM149.041 6.68V9.04H140.561V6.68H149.041ZM156.286 3V0.419999H161.106V15H158.226V3H156.286ZM173.673 2.84H167.193V6.26C167.473 5.91333 167.873 5.63333 168.393 5.42C168.913 5.19333 169.466 5.08 170.053 5.08C171.119 5.08 171.993 5.31333 172.673 5.78C173.353 6.24667 173.846 6.84667 174.153 7.58C174.459 8.3 174.613 9.07333 174.613 9.9C174.613 11.4333 174.173 12.6667 173.293 13.6C172.426 14.5333 171.186 15 169.573 15C168.053 15 166.839 14.62 165.933 13.86C165.026 13.1 164.513 12.1067 164.393 10.88H167.113C167.233 11.4133 167.499 11.84 167.913 12.16C168.339 12.48 168.879 12.64 169.533 12.64C170.319 12.64 170.913 12.3933 171.313 11.9C171.713 11.4067 171.913 10.7533 171.913 9.94C171.913 9.11333 171.706 8.48667 171.293 8.06C170.893 7.62 170.299 7.4 169.513 7.4C168.953 7.4 168.486 7.54 168.113 7.82C167.739 8.1 167.473 8.47333 167.313 8.94H164.633V0.38H173.673V2.84ZM193.409 1.04V15H190.609V9.06H184.629V15H181.829V1.04H184.629V6.78H190.609V1.04H193.409ZM198.965 5.64C199.325 5.05333 199.792 4.59333 200.365 4.26C200.952 3.92667 201.618 3.76 202.365 3.76V6.7H201.625C200.745 6.7 200.078 6.90667 199.625 7.32C199.185 7.73333 198.965 8.45333 198.965 9.48V15H196.165V3.92H198.965V5.64ZM208.491 15.18C207.584 15.18 206.771 15.02 206.051 14.7C205.331 14.3667 204.758 13.92 204.331 13.36C203.918 12.8 203.691 12.18 203.651 11.5H206.471C206.524 11.9267 206.731 12.28 207.091 12.56C207.464 12.84 207.924 12.98 208.471 12.98C209.004 12.98 209.418 12.8733 209.711 12.66C210.018 12.4467 210.171 12.1733 210.171 11.84C210.171 11.48 209.984 11.2133 209.611 11.04C209.251 10.8533 208.671 10.6533 207.871 10.44C207.044 10.24 206.364 10.0333 205.831 9.82C205.311 9.60667 204.858 9.28 204.471 8.84C204.098 8.4 203.911 7.80667 203.911 7.06C203.911 6.44667 204.084 5.88667 204.431 5.38C204.791 4.87333 205.298 4.47333 205.951 4.18C206.618 3.88667 207.398 3.74 208.291 3.74C209.611 3.74 210.664 4.07333 211.451 4.74C212.238 5.39333 212.671 6.28 212.751 7.4H210.071C210.031 6.96 209.844 6.61333 209.511 6.36C209.191 6.09333 208.758 5.96 208.211 5.96C207.704 5.96 207.311 6.05333 207.031 6.24C206.764 6.42667 206.631 6.68667 206.631 7.02C206.631 7.39333 206.818 7.68 207.191 7.88C207.564 8.06667 208.144 8.26 208.931 8.46C209.731 8.66 210.391 8.86667 210.911 9.08C211.431 9.29333 211.878 9.62667 212.251 10.08C212.638 10.52 212.838 11.1067 212.851 11.84C212.851 12.48 212.671 13.0533 212.311 13.56C211.964 14.0667 211.458 14.4667 210.791 14.76C210.138 15.04 209.371 15.18 208.491 15.18ZM219.235 8C219.235 6.62667 219.542 5.4 220.155 4.32C220.782 3.22667 221.628 2.38 222.695 1.78C223.775 1.16667 224.982 0.86 226.315 0.86C227.875 0.86 229.242 1.26 230.415 2.06C231.588 2.86 232.408 3.96667 232.875 5.38H229.655C229.335 4.71333 228.882 4.21333 228.295 3.88C227.722 3.54667 227.055 3.38 226.295 3.38C225.482 3.38 224.755 3.57333 224.115 3.96C223.488 4.33333 222.995 4.86667 222.635 5.56C222.288 6.25333 222.115 7.06667 222.115 8C222.115 8.92 222.288 9.73333 222.635 10.44C222.995 11.1333 223.488 11.6733 224.115 12.06C224.755 12.4333 225.482 12.62 226.295 12.62C227.055 12.62 227.722 12.4533 228.295 12.12C228.882 11.7733 229.335 11.2667 229.655 10.6H232.875C232.408 12.0267 231.588 13.14 230.415 13.94C229.255 14.7267 227.888 15.12 226.315 15.12C224.982 15.12 223.775 14.82 222.695 14.22C221.628 13.6067 220.782 12.76 220.155 11.68C219.542 10.6 219.235 9.37333 219.235 8ZM241.747 15.14C240.44 15.14 239.24 14.8333 238.147 14.22C237.053 13.6067 236.187 12.76 235.547 11.68C234.907 10.5867 234.587 9.35333 234.587 7.98C234.587 6.62 234.907 5.4 235.547 4.32C236.187 3.22667 237.053 2.37333 238.147 1.76C239.24 1.14667 240.44 0.84 241.747 0.84C243.067 0.84 244.267 1.14667 245.347 1.76C246.44 2.37333 247.3 3.22667 247.927 4.32C248.567 5.4 248.887 6.62 248.887 7.98C248.887 9.35333 248.567 10.5867 247.927 11.68C247.3 12.76 246.44 13.6067 245.347 14.22C244.253 14.8333 243.053 15.14 241.747 15.14ZM241.747 12.64C242.587 12.64 243.327 12.4533 243.967 12.08C244.607 11.6933 245.107 11.1467 245.467 10.44C245.827 9.73333 246.007 8.91333 246.007 7.98C246.007 7.04667 245.827 6.23333 245.467 5.54C245.107 4.83333 244.607 4.29333 243.967 3.92C243.327 3.54667 242.587 3.36 241.747 3.36C240.907 3.36 240.16 3.54667 239.507 3.92C238.867 4.29333 238.367 4.83333 238.007 5.54C237.647 6.23333 237.467 7.04667 237.467 7.98C237.467 8.91333 237.647 9.73333 238.007 10.44C238.367 11.1467 238.867 11.6933 239.507 12.08C240.16 12.4533 240.907 12.64 241.747 12.64Z" fill="white"/>
</svg>
