<svg width="23" height="23" viewBox="0 0 34 32" fill="none" xmlns="http://www.w3.org/2000/svg">
<path d="M30.4348 8.23324H25.7971L23.1884 5.2999H14.4928V8.23324H21.8841L24.6377 11.1666H30.4348V28.7666H7.24638V15.5666H4.34783V28.7666C4.34783 30.3799 5.65217 31.6999 7.24638 31.6999H30.4348C32.029 31.6999 33.3333 30.3799 33.3333 28.7666V11.1666C33.3333 9.55324 32.029 8.23324 30.4348 8.23324ZM11.5942 19.9666C11.5942 26.4932 19.4058 29.7786 23.971 25.1586C28.5362 20.5386 25.2899 12.6332 18.8406 12.6332C14.8406 12.6332 11.5942 15.9186 11.5942 19.9666ZM18.8406 15.5666C21.2174 15.6399 23.1159 17.5612 23.1884 19.9666C23.1159 22.3719 21.2174 24.2932 18.8406 24.3666C16.4638 24.2932 14.5652 22.3719 14.4928 19.9666C14.5652 17.5612 16.4638 15.6399 18.8406 15.5666ZM7.24638 8.23324H11.5942V5.2999H7.24638V0.899902H4.34783V5.2999H0V8.23324H4.34783V12.6332H7.24638" fill="white"/>
</svg>
