<svg width="221" height="97" viewBox="0 0 221 97" fill="none" xmlns="http://www.w3.org/2000/svg">
<path d="M63.4602 43.667L48.8326 39.4726L53.939 21.6644L67.4478 25.538C68.4738 25.8322 69.2007 26.2108 69.6235 26.6723C70.0463 27.1338 70.1475 27.7582 69.9235 28.5393C69.6996 29.3204 69.4887 29.8714 69.2973 30.1886C69.0317 30.5431 68.622 30.7181 68.0625 30.7331L61.892 28.9637C60.8611 28.6681 59.7848 29.2686 59.4875 30.3052L58.6268 33.3068C58.3296 34.3433 58.9242 35.4229 59.955 35.7185L63.2626 36.667C63.6128 36.8471 63.9993 37.0111 64.4684 37.1456C65.5921 37.4678 66.4251 37.8449 66.9786 38.2748C67.3306 38.5778 67.5287 38.9748 67.5743 39.4611C67.6199 39.9473 67.5374 40.567 67.3219 41.3186C66.7105 43.4507 65.4242 44.2302 63.4602 43.667ZM78.2231 30.8129C79.0401 27.9636 78.7303 25.2271 77.286 22.6119C75.9309 20.0542 73.8194 18.3641 70.9515 17.5418L52.2102 12.1678C50.2168 11.5962 48.8792 11.6699 48.202 12.3901C47.8176 12.7903 47.5542 13.156 47.4067 13.4859C47.2592 13.8158 47.0819 14.3604 46.8664 15.112L39.3892 41.1881C39.075 42.2836 38.934 43.1258 38.9676 43.7096C39.0029 45.0063 40.1076 45.9663 42.2866 46.5912L61.5409 52.1123C64.5016 52.9612 67.3206 52.6265 69.9992 51.1032C72.6765 49.5847 74.4938 47.2668 75.456 44.1508C76.2378 41.4243 76.0236 38.7046 74.8163 35.9819C76.4931 34.5966 77.628 32.8698 78.2196 30.8066" fill="white"/>
<path d="M136.965 62.6609C134.707 63.8423 132.465 64.1192 130.256 63.486C128.048 62.8528 126.289 61.4074 125 59.1556C123.706 56.9024 123.459 54.3862 124.26 51.5959C125.06 48.8055 126.597 46.8007 128.869 45.5702C131.141 44.3396 133.384 44.0417 135.597 44.6763C137.81 45.3109 139.562 46.7436 140.861 48.9821C142.159 51.2206 142.398 53.7613 141.58 56.6155C140.761 59.4698 139.221 61.4844 136.963 62.6658M148.408 44.7877C145.973 40.4637 142.452 37.6411 137.84 36.3186C135.691 35.7022 133.479 35.5412 131.199 35.8392C128.92 36.1372 126.786 36.828 124.787 37.9188C122.789 39.0046 120.997 40.5535 119.413 42.5555C117.829 44.5576 116.661 46.8597 115.916 49.4585C114.551 54.2188 115.034 58.8021 117.364 63.1971C119.693 67.597 123.225 70.4707 127.964 71.8297C132.703 73.1886 137.185 72.5863 141.431 70.0237C145.672 67.4597 148.507 63.695 149.931 58.7283C151.355 53.7617 150.846 49.1181 148.416 44.7954" fill="white"/>
<path d="M202.25 80.7421C199.962 81.899 197.698 82.159 195.451 81.5146L188.132 79.416L193.224 61.6569L200.499 63.7429C202.864 64.421 204.685 65.8683 205.955 68.0774C207.224 70.2913 207.496 72.6608 206.768 75.2006C206.04 77.7404 204.533 79.5839 202.245 80.7407M213.437 63.763C210.95 59.5092 207.447 56.7343 202.928 55.4385L191.51 52.1111C189.516 51.5396 188.179 51.6132 187.502 52.3335C187.117 52.7337 186.854 53.0994 186.706 53.4292C186.559 53.7591 186.381 54.3037 186.166 55.0554L178.675 81.1806C178.289 82.5267 178.187 83.5821 178.374 84.3483C178.619 85.2638 179.689 85.9959 181.59 86.5408L192.929 89.7924C197.698 91.1597 202.243 90.6129 206.573 88.1597C210.899 85.7051 213.75 82.0885 215.119 77.3134C216.488 72.5384 215.928 68.0183 213.442 63.7644" fill="white"/>
<path d="M41.3162 8.63472L41.0524 8.55907C40.7217 8.42171 40.3783 8.32855 40.025 8.26979C38.6659 7.93857 37.2939 8.35327 36.3398 9.26526L4.18914 29.2287C2.04665 30.5602 1.37496 33.3821 2.69261 35.5356C4.01167 37.6843 6.81846 38.3509 8.96584 37.0208L31.8918 22.7858L30.0549 29.1918L26.4786 28.1663C25.5748 27.9071 24.6257 28.4325 24.3637 29.3462L23.372 32.8047C23.1114 33.7136 23.6315 34.6655 24.5403 34.9261L28.1068 35.9488L27.4659 38.184C26.8587 40.3013 28.0659 42.5083 30.1716 43.1121L31.3051 43.4371C33.4108 44.0409 35.611 42.8216 36.2181 40.7043L44.0254 13.5691C44.6326 11.4518 43.4205 9.24344 41.3148 8.63964" fill="white"/>
<path d="M181.226 48.7529L180.963 48.6772C180.632 48.5399 180.288 48.4467 179.935 48.388C178.576 48.0567 177.204 48.4714 176.25 49.3834L144.099 69.3469C141.957 70.6784 141.285 73.5003 142.603 75.6538C143.922 77.8025 146.729 78.469 148.876 77.1389L171.802 62.9039L169.965 69.31L166.389 68.2845C165.485 68.0253 164.536 68.5507 164.274 69.4644L163.282 72.9229C163.022 73.8317 163.542 74.7837 164.45 75.0442L168.017 76.0669L167.376 78.3022C166.769 80.4195 167.976 82.6264 170.082 83.2302L171.215 83.5553C173.321 84.1591 175.521 82.9398 176.128 80.8225L183.936 53.6873C184.543 51.5699 183.331 49.3616 181.225 48.7578" fill="white"/>
<path d="M109.107 51.5191C112.097 49.9044 114.105 47.3274 115.121 43.7854C115.704 41.7516 115.83 39.7833 115.495 37.8902C115.16 35.9972 114.511 34.3864 113.543 33.0614C111.533 30.316 109.153 28.5489 106.412 27.763L89.3515 22.8709C87.3582 22.2993 86.0205 22.373 85.3434 23.0933C84.959 23.4934 84.6941 23.8641 84.5424 24.2087C84.3907 24.5533 84.2162 25.0881 84.0092 25.8102L76.5319 51.8863C76.2178 52.9819 76.0768 53.824 76.1103 54.4078C76.1541 55.675 77.263 56.6203 79.442 57.2452C81.4353 57.8167 82.773 57.7431 83.4501 57.0228C83.8345 56.6226 84.0994 56.252 84.2525 55.9025C84.3993 55.5565 84.5787 55.0231 84.7858 54.3009L91.0755 32.3661L103.93 36.052C104.897 36.3294 105.729 36.9507 106.431 37.9124C107.134 38.874 107.283 40.0493 106.889 41.4248C106.494 42.8004 105.747 43.708 104.646 44.1366C103.545 44.5652 102.543 44.6499 101.639 44.3908L96.9585 43.0487C95.8153 42.7208 94.6194 43.3881 94.2897 44.5376L93.0994 48.6888C92.7698 49.8383 93.4304 51.0379 94.5736 51.3657L100.647 53.1071C101.304 58.7238 101.702 61.8736 101.84 62.5513C101.936 62.919 102.137 63.3062 102.442 63.718C102.748 64.1248 103.203 64.42 103.809 64.5937C104.414 64.7674 105.279 64.7761 106.406 64.6261C108.57 64.364 109.824 63.6392 110.165 62.4503C110.309 61.9492 110.308 61.0665 110.167 59.8084C109.669 56.1409 109.315 53.3757 109.102 51.5177" fill="white"/>
</svg>
