<svg width="244" height="72" viewBox="0 0 244 72" fill="none" xmlns="http://www.w3.org/2000/svg">
<path fill-rule="evenodd" clip-rule="evenodd" d="M169.078 55.9149C169.057 55.8332 169.031 55.7506 169.005 55.6681L169.007 55.6572L159.742 27.0497L159.693 26.9018C159.681 26.8701 159.67 26.8385 159.66 26.807L159.66 26.8067C159.639 26.7437 159.618 26.6807 159.587 26.6162C159.579 26.5981 159.572 26.5802 159.565 26.5622C159.558 26.5444 159.552 26.5265 159.543 26.5084C159.531 26.4785 159.519 26.4486 159.502 26.4178C159.499 26.4125 159.497 26.4072 159.494 26.402L159.49 26.3935C159.483 26.3774 159.476 26.3613 159.463 26.3444C159.46 26.3327 159.455 26.3263 159.451 26.32C159.435 26.2783 159.413 26.2412 159.386 26.1978C159.378 26.1797 159.368 26.1613 159.359 26.143C159.349 26.1247 159.339 26.1063 159.331 26.0882C159.231 25.9099 159.118 25.7463 158.994 25.5809C158.991 25.5727 158.985 25.5667 158.981 25.5617C158.979 25.5595 158.977 25.5575 158.975 25.5556C158.966 25.5457 158.958 25.5346 158.95 25.5236C158.942 25.5125 158.934 25.5014 158.924 25.4915C158.873 25.4273 158.822 25.3632 158.77 25.3046C158.636 25.1657 158.496 25.0259 158.35 24.8962C158.288 24.8402 158.224 24.7933 158.16 24.7465C158.139 24.7309 158.118 24.7153 158.097 24.6993L157.855 24.5377C157.774 24.4857 157.688 24.4328 157.606 24.3862L157.445 24.3104L157.424 24.3069L157.305 24.2488C157.274 24.2328 157.243 24.2167 157.211 24.206L157.144 24.173L157.019 24.1195L156.981 24.1067L156.981 24.1067L156.981 24.1066L156.981 24.1066L156.981 24.1066L156.98 24.1066C156.933 24.0903 156.889 24.0755 156.838 24.0629L156.496 23.9696C156.447 23.9618 156.4 23.9515 156.353 23.9413C156.306 23.931 156.259 23.9207 156.21 23.913L156.199 23.9113C156.106 23.8965 156.017 23.8875 155.924 23.8781L155.909 23.8766C155.793 23.8694 155.677 23.8623 155.566 23.8615C155.543 23.8614 155.52 23.8607 155.497 23.8601C155.448 23.8587 155.401 23.8574 155.354 23.8615C155.147 23.8679 154.937 23.8907 154.725 23.9299C154.643 23.9406 154.56 23.963 154.48 23.9844L154.436 23.9962L154.371 24.0132L154.37 24.0133C154.297 24.0321 154.223 24.0513 154.151 24.0743L154.107 24.0905L154.107 24.0906C154.024 24.1215 153.936 24.1543 153.86 24.1851C153.68 24.2631 153.501 24.3412 153.334 24.4436C153.239 24.4941 153.142 24.5602 153.05 24.6224L153.05 24.6226L153.05 24.6229L153.049 24.6232L153.043 24.6273C152.874 24.7461 152.715 24.8722 152.571 25.0063C152.35 25.2066 152.148 25.4267 151.969 25.6784L134.299 50.0646L134.235 50.1498C134.085 50.3558 133.956 50.5762 133.842 50.7992C133.82 50.842 133.801 50.8853 133.78 50.932C133.77 50.953 133.76 50.9747 133.75 50.9974C133.725 51.0454 133.707 51.0944 133.686 51.1482C133.68 51.1641 133.674 51.1805 133.668 51.1973C133.639 51.2713 133.618 51.3351 133.596 51.4045C133.551 51.5486 133.518 51.689 133.482 51.8403C133.466 51.9105 133.454 51.987 133.441 52.0636C133.429 52.1401 133.417 52.2166 133.411 52.2885C133.399 52.4378 133.387 52.5816 133.387 52.7272C133.38 52.911 133.395 53.0983 133.416 53.2809C133.424 53.3718 133.438 53.4581 133.452 53.5444C133.465 53.6361 133.485 53.7233 133.51 53.8113C133.514 53.8231 133.513 53.8286 133.518 53.8294C133.542 53.9282 133.571 54.0223 133.601 54.1164L133.601 54.117C133.698 54.4182 133.83 54.7135 133.987 54.985C134.027 55.0529 134.067 55.1153 134.113 55.1786C134.153 55.241 134.194 55.2979 134.235 55.3548L134.299 55.4434C134.318 55.4633 134.332 55.4822 134.35 55.5076C134.352 55.5104 134.355 55.5133 134.357 55.5163L134.367 55.527L134.375 55.5366C134.378 55.5399 134.381 55.5432 134.383 55.5464C134.393 55.5579 134.403 55.5702 134.413 55.5827L134.425 55.5978L134.425 55.598C134.439 55.6156 134.453 55.6331 134.467 55.6493C134.476 55.662 134.485 55.6746 134.501 55.6827C134.501 55.6827 134.506 55.6835 134.511 55.6899C134.549 55.7332 134.591 55.7773 134.634 55.8215L134.669 55.858L134.697 55.8874C134.706 55.9001 134.716 55.9072 134.726 55.9144C134.784 55.974 134.842 56.028 134.901 56.0766C134.908 56.0834 134.914 56.0896 134.921 56.0956L134.93 56.1036L134.93 56.1037C134.94 56.1123 134.95 56.1208 134.959 56.1307C134.974 56.1418 134.988 56.1529 135.002 56.1639C135.04 56.1944 135.078 56.224 135.119 56.2511L135.119 56.2512C135.143 56.2719 135.168 56.2926 135.193 56.3078C135.263 56.3581 135.339 56.4093 135.414 56.4604C135.427 56.4681 135.439 56.477 135.452 56.486C135.464 56.495 135.477 56.504 135.49 56.5116C135.586 56.5717 135.678 56.6254 135.776 56.6746L135.799 56.6868L135.823 56.6989L135.824 56.6991C135.856 56.7153 135.888 56.7316 135.915 56.747C135.932 56.7557 135.949 56.7634 135.966 56.7708L136.003 56.787C136.036 56.8014 136.069 56.8153 136.102 56.8327C136.108 56.8281 136.113 56.8344 136.113 56.8344C136.26 56.8913 136.412 56.9491 136.556 56.9887C136.652 57.0151 136.749 57.0416 136.84 57.0617C136.881 57.0681 136.923 57.0775 136.964 57.0869C137.006 57.0963 137.048 57.1057 137.088 57.1122L164.164 61.4005C164.234 61.4117 164.311 61.4183 164.377 61.4231L164.459 61.4361C164.486 61.4404 164.514 61.4392 164.542 61.438C164.608 61.4429 164.675 61.4423 164.742 61.4417L164.742 61.4417C164.818 61.4538 164.902 61.4503 164.982 61.4405C165.138 61.4372 165.287 61.4159 165.435 61.3946C165.532 61.3819 165.624 61.3628 165.716 61.3438C165.745 61.3372 165.774 61.3306 165.797 61.3231C165.918 61.2974 166.039 61.2718 166.157 61.2344L166.192 61.2231C166.257 61.1998 166.322 61.1765 166.382 61.1523C166.393 61.1486 166.404 61.1446 166.414 61.1406C166.424 61.1367 166.435 61.1327 166.447 61.129L166.447 61.1286L166.448 61.1285L166.448 61.1284C166.513 61.0998 166.579 61.0712 166.639 61.0417C166.729 61 166.814 60.9574 166.899 60.9093C168.654 59.9603 169.576 57.9044 169.066 55.9186L169.078 55.9149ZM145.568 49.5188L154.01 37.8741L158.434 51.5566L145.568 49.5188ZM197.982 35.3587C197.6 37.7691 195.344 39.4176 192.947 39.0379L188.609 38.3509L185.154 60.1646C184.772 62.5749 182.517 64.2234 180.125 63.8446C178.924 63.6544 177.913 62.9957 177.256 62.0792C176.599 61.1627 176.282 59.9976 176.473 58.7896L179.928 36.976L175.591 36.289C173.194 35.9093 171.557 33.6444 171.939 31.234C172.131 30.0261 172.787 29.015 173.699 28.3528C174.612 27.6906 175.772 27.37 176.973 27.5603L194.329 30.3092C196.727 30.6889 198.363 32.9538 197.982 35.3587ZM122.64 51.4843C122.868 53.9129 125.004 55.6967 127.419 55.4685L127.414 55.4677C129.83 55.234 131.609 53.0786 131.386 50.6509L128.854 23.1938C128.67 21.2205 127.222 19.6689 125.377 19.287C125.227 19.2465 125.064 19.2207 124.904 19.2121C123.037 19.0005 121.17 20.027 120.385 21.8524L116.076 31.8882L115.074 21.0113C114.891 19.0381 113.443 17.4865 111.597 17.1046C111.448 17.0641 111.285 17.0382 111.124 17.0297C109.258 16.8181 107.39 17.8445 106.605 19.67L95.7172 45.0015C94.7542 47.2469 95.78 49.8466 98.0067 50.81C100.239 51.7743 102.827 50.7386 103.789 48.4986L107.901 38.9304L108.855 49.301C109.056 51.4059 110.688 53.0314 112.695 53.2709C114.684 53.6588 116.737 52.6224 117.574 50.6819L121.686 41.1137L122.64 51.4843ZM29.67 15.284C29.5523 16.0274 29.3656 16.7486 29.1072 17.4304C27.3184 22.2513 22.3488 25.3077 17.0979 24.476L10.5914 23.4455L9.15346 32.524C8.7717 34.9344 6.5158 36.5829 4.11866 36.2032C1.72152 35.8236 0.0908845 33.5595 0.472651 31.1491L4.67467 4.6186C4.7699 4.01738 4.98038 3.46242 5.28635 2.97301C5.36148 2.85044 5.44118 2.7342 5.53089 2.62515C5.6017 2.52991 5.67077 2.4456 5.75072 2.36302C5.79915 2.30345 5.85216 2.25022 5.91147 2.19238C5.97165 2.12907 6.03812 2.06116 6.10287 2.00418C6.20715 1.90864 6.32144 1.82029 6.43487 1.73741C6.54829 1.65452 6.66716 1.5725 6.78972 1.50226C6.88164 1.44959 6.97357 1.39691 7.07006 1.35057C7.12504 1.32005 7.17916 1.29501 7.23871 1.27082C7.3226 1.22924 7.40895 1.19551 7.49281 1.16276L7.54907 1.14069C7.67904 1.09404 7.81445 1.04825 7.95356 1.01426C8.50545 0.871955 9.09524 0.842107 9.69317 0.936809L20.5428 2.65523C25.7883 3.48602 29.5702 7.92854 29.7871 13.0671C29.8222 13.7954 29.7777 14.5335 29.6591 15.2823L29.67 15.284ZM47.3056 40.9308C48.3142 43.1468 50.9228 44.1259 53.129 43.1082L53.1227 43.1128C55.3297 42.0897 56.3017 39.4702 55.2931 37.2543L51.2927 28.4574C54.341 27.3994 56.8468 25.0173 58.0061 21.884C58.2646 21.2022 58.4504 20.4865 58.569 19.7377C58.6876 18.9889 58.732 18.2507 58.697 17.5224C58.48 12.3839 54.6981 7.94136 49.4527 7.11056L38.603 5.39215C37.9725 5.29228 37.3583 5.33508 36.7821 5.49034C36.6954 5.51022 36.6141 5.53096 36.5311 5.56263L36.4918 5.57607C36.4035 5.60622 36.3119 5.63749 36.2224 5.68183C36.1141 5.71865 36.0163 5.77003 35.9162 5.82264L35.8734 5.84506C35.813 5.87471 35.7517 5.90983 35.6904 5.94495C35.5624 6.01432 35.449 6.0972 35.3356 6.18009C35.2221 6.26298 35.1078 6.35133 35.0036 6.44687C34.5827 6.81723 34.2322 7.27156 33.9708 7.79605C33.7754 8.18531 33.6409 8.61224 33.5691 9.06589L29.367 35.5964C28.9853 38.0068 30.6268 40.2726 33.0185 40.6514C35.4102 41.0302 37.6661 39.3817 38.0479 36.9713L39.4858 27.8928L41.5241 28.2156L47.3056 40.9308ZM69.3101 10.2503L67.5653 9.97391C65.65 9.67056 63.85 10.9859 63.545 12.9118L59.0651 41.1968C58.76 43.1227 60.0654 44.9298 61.9808 45.2332L63.7256 45.5095C65.6409 45.8129 67.4409 44.4976 67.7459 42.5717L72.2258 14.2867C72.5308 12.3608 71.2254 10.5536 69.3101 10.2503ZM204.779 31.7064L206.523 31.9827C208.439 32.2861 209.744 34.0932 209.439 36.0191L204.959 64.3041C204.654 66.23 202.854 67.5453 200.939 67.242L199.194 66.9656C197.279 66.6623 195.973 64.8551 196.278 62.9292L200.758 34.6442C201.063 32.7183 202.863 31.403 204.779 31.7064ZM240.834 63.8679C240.692 64.7698 240.286 65.5685 239.708 66.194C239.658 66.2478 239.604 66.2974 239.55 66.3474L239.549 66.3479C239.51 66.3839 239.471 66.4202 239.432 66.4585C239.407 66.4835 239.379 66.5073 239.351 66.5312L239.351 66.5315L239.35 66.5317C239.314 66.5629 239.277 66.5946 239.243 66.6303C235.392 70.1215 230.067 71.9003 224.556 71.0273C214.858 69.4914 208.256 60.3385 209.799 50.5986L209.803 50.5713L209.839 50.3472C211.495 40.7373 220.531 34.2013 230.147 35.7243C235.664 36.5982 240.178 39.9353 242.757 44.445C242.807 44.52 242.846 44.5879 242.884 44.6667C242.918 44.7221 242.949 44.7794 242.981 44.8376L242.981 44.8381C242.999 44.871 243.017 44.9041 243.036 44.9373C243.042 44.9496 243.046 44.96 243.05 44.9704C243.054 44.9808 243.058 44.9913 243.064 45.0035C243.422 45.7717 243.56 46.6564 243.417 47.5637C243.035 49.9741 240.779 51.6226 238.382 51.243C237.05 51.032 235.955 50.2423 235.307 49.1647C235.263 49.0905 235.219 49.0163 235.181 48.9375C233.882 46.6195 231.579 44.9045 228.764 44.4585C223.91 43.6897 219.336 46.9882 218.5 51.8478L218.492 51.897L218.479 51.979L218.462 52.0883C217.749 56.9732 221.078 61.5344 225.943 62.3049C228.764 62.7517 231.478 61.8314 233.43 60.0282C233.496 59.9658 233.561 59.9034 233.62 59.851C234.568 59.032 235.86 58.6147 237.187 58.8247C239.584 59.2044 241.22 61.4694 240.838 63.8797L240.834 63.8679ZM80.9489 48.1478C86.8615 49.5156 92.7531 45.8096 94.1239 39.8637L94.1302 39.8591C95.4762 33.9988 91.9114 28.1507 86.1429 26.6824L86.1288 26.6782C86.0542 26.6559 85.9839 26.6348 85.9072 26.6227C85.8274 26.5988 85.7458 26.5859 85.6697 26.5739L85.6045 26.5635L85.4142 26.5334C84.2184 26.344 83.4003 25.2115 83.5908 24.0091C83.7812 22.8066 84.9038 21.9815 86.105 22.1718C87.078 22.3259 87.7967 23.1008 87.9328 24.0356C88.1394 25.9677 89.6089 27.5956 91.6093 27.9124C94.0064 28.2921 96.2569 26.6427 96.6386 24.2323C96.6949 23.8771 96.7068 23.5204 96.6781 23.174C96.6719 23.0722 96.6595 22.975 96.647 22.8778C96.0223 18.1677 92.3951 14.2259 87.4867 13.4485C81.4965 12.4998 75.8438 16.703 74.902 22.6497C73.9601 28.5964 77.9239 34.1771 83.7854 35.2343L83.9322 35.2576C85.1024 35.5382 85.8294 36.7178 85.56 37.891C85.2826 39.0797 84.1061 39.8234 82.9232 39.552C81.9615 39.3268 81.3013 38.4995 81.233 37.5586C81.1512 35.6127 79.8023 33.8919 77.8299 33.4338C75.465 32.8856 73.1066 34.3722 72.5572 36.7504C72.4783 37.1077 72.4401 37.4546 72.4462 37.8029C72.4489 37.8481 72.4508 37.8921 72.4526 37.9354C72.4548 37.9897 72.4571 38.043 72.461 38.0966C72.7566 42.8442 76.1059 47.0277 80.9489 48.1478Z" fill="white"/>
</svg>
