<svg width="230" height="108" viewBox="0 0 230 108" fill="none" xmlns="http://www.w3.org/2000/svg">
<g style="mix-blend-mode:hard-light">
<path d="M96.8042 16.6057L95.9802 16.6996C93.7477 16.954 92.1464 18.9895 92.4035 21.2461L95.6676 49.8946C95.9247 52.1512 97.9429 53.7743 100.175 53.52L100.999 53.4261C103.232 53.1717 104.833 51.1362 104.576 48.8796L101.312 20.2311C101.055 17.9745 99.0366 16.3514 96.8042 16.6057Z" fill="white"/>
</g>
<g style="mix-blend-mode:hard-light">
<path d="M114.947 14.5393L114.123 14.6332C111.891 14.8876 110.29 16.9231 110.547 19.1797L113.811 47.8282C114.068 50.0848 116.086 51.7079 118.319 51.4536L119.143 51.3597C121.375 51.1053 122.976 49.0698 122.719 46.8132L119.455 18.1647C119.198 15.9081 117.18 14.285 114.947 14.5393Z" fill="white"/>
</g>
<g style="mix-blend-mode:hard-light">
<path d="M121.115 50.3387C119.241 51.9956 116.406 51.7614 114.788 49.8127L93.5283 24.2544C91.9099 22.3057 92.1126 19.3853 93.9869 17.7284C95.8612 16.0716 98.6964 16.3057 100.315 18.2545L121.574 43.8127C123.193 45.7614 122.99 48.6818 121.115 50.3387Z" fill="white"/>
</g>
<g style="mix-blend-mode:hard-light">
<path d="M34.0982 23.7506L33.2691 23.8451C31.008 24.1027 29.3861 26.1643 29.6465 28.4498L32.8999 57.0041C33.1603 59.2896 35.2044 60.9336 37.4654 60.6759L38.2946 60.5815C40.5556 60.3238 42.1775 58.2622 41.9171 55.9767L38.6638 27.4224C38.4034 25.1369 36.3593 23.493 34.0982 23.7506Z" fill="white"/>
</g>
<g style="mix-blend-mode:hard-light">
<path d="M31.2094 42.1212L31.3049 42.9594C31.5653 45.2449 33.6093 46.8888 35.8704 46.6312L54.734 44.482C56.995 44.2244 58.6169 42.1627 58.3565 39.8772L58.261 39.0391C58.0006 36.7536 55.9566 35.1096 53.6955 35.3672L34.8319 37.5165C32.5708 37.7741 30.949 39.8357 31.2094 42.1212Z" fill="white"/>
</g>
<g style="mix-blend-mode:hard-light">
<path d="M29.6518 28.4484L29.7473 29.2865C30.0077 31.572 32.0517 33.216 34.3128 32.9583L53.1764 30.8091C55.4374 30.5515 57.0593 28.4899 56.7989 26.2044L56.7034 25.3662C56.443 23.0807 54.3989 21.4368 52.1379 21.6944L33.2743 23.8436C31.0132 24.1012 29.3914 26.1628 29.6518 28.4484Z" fill="white"/>
</g>
<g style="mix-blend-mode:hard-light">
<path d="M159.444 41.7794L159.539 42.6176C159.8 44.9031 161.844 46.547 164.105 46.2894L193.007 42.9965C195.268 42.7389 196.89 40.6772 196.629 38.3917L196.534 37.5536C196.273 35.2681 194.229 33.6241 191.968 33.8817L163.067 37.1747C160.805 37.4323 159.184 39.4939 159.444 41.7794Z" fill="white"/>
</g>
<g style="mix-blend-mode:hard-light">
<path d="M172.683 8.22486L171.988 8.69028C170.093 9.95943 169.579 12.5432 170.839 14.4614L188.517 41.3624C189.778 43.2805 192.336 43.8066 194.231 42.5375L194.926 42.072C196.821 40.8029 197.336 38.2191 196.075 36.301L178.397 9.39994C177.136 7.48181 174.578 6.95571 172.683 8.22486Z" fill="white"/>
</g>
<g style="mix-blend-mode:hard-light">
<path d="M161.999 45.8186L162.781 46.1158C164.913 46.9261 167.287 45.838 168.084 43.6855L179.258 13.4973C180.055 11.3448 178.972 8.94289 176.84 8.13257L176.058 7.83542C173.926 7.0251 171.552 8.11316 170.755 10.2657L159.582 40.4539C158.785 42.6064 159.867 45.0083 161.999 45.8186Z" fill="white"/>
</g>
<g style="mix-blend-mode:hard-light">
<path d="M137.387 11.982L128.276 13.02C128.038 13.0472 127.812 13.0941 127.588 13.1515C127.365 13.2194 127.157 13.2908 126.948 13.3837C126.812 13.4415 126.678 13.5098 126.55 13.5828C126.295 13.734 126.046 13.9056 125.826 14.0951C125.717 14.1925 125.608 14.2951 125.504 14.3972C125.406 14.5039 125.303 14.6164 125.217 14.7324C124.488 15.6591 124.106 16.87 124.25 18.1377C124.306 18.6249 124.437 19.0822 124.627 19.5063C125.419 21.2998 127.299 22.4547 129.33 22.2232L138.441 21.1852C143.473 20.6119 148.015 24.2651 148.594 29.3516C149.174 34.438 145.57 39.0195 140.538 39.5928L131.427 40.6308C129.396 40.8623 127.829 42.4098 127.456 44.3361C127.365 44.7868 127.341 45.2672 127.397 45.7543C127.56 47.1844 128.348 48.3946 129.46 49.1222C129.584 49.1983 129.714 49.2737 129.843 49.344C130.105 49.4786 130.38 49.5905 130.663 49.6803C130.804 49.7226 130.95 49.759 131.095 49.785C131.32 49.8283 131.538 49.8512 131.771 49.8671C132.003 49.8726 132.233 49.8676 132.471 49.8404L141.582 48.8024C151.641 47.6563 158.858 38.4818 157.7 28.3142C156.541 18.1465 147.445 10.8307 137.386 11.9768L137.387 11.982Z" fill="white"/>
</g>
<g style="mix-blend-mode:hard-light">
<path d="M124.203 17.7192L127.445 46.1792C127.708 48.4878 129.773 50.1484 132.057 49.8882L132.896 49.7925C135.18 49.5323 136.819 47.4498 136.556 45.1412L133.313 16.6812C133.05 14.3725 130.985 12.7119 128.701 12.9722L127.862 13.0678C125.578 13.328 123.939 15.4105 124.203 17.7192Z" fill="white"/>
</g>
<g style="mix-blend-mode:hard-light">
<path d="M83.4957 17.9361L82.6665 18.0306C80.4055 18.2882 78.7836 20.3499 79.044 22.6354L81.1222 40.8753C81.3826 43.1608 83.4266 44.8048 85.6877 44.5472L86.5169 44.4527C88.778 44.1951 90.3998 42.1335 90.1394 39.8479L88.0612 21.608C87.8008 19.3225 85.7568 17.6785 83.4957 17.9361Z" fill="white"/>
</g>
<g style="mix-blend-mode:hard-light">
<path d="M65.4613 19.9908L64.6321 20.0853C62.371 20.3429 60.7492 22.4045 61.0096 24.6901L63.0878 42.93C63.3482 45.2155 65.3922 46.8595 67.6533 46.6019L68.4825 46.5074C70.7435 46.2498 72.3654 44.1882 72.105 41.9026L70.0268 23.6627C69.7664 21.3772 67.7223 19.7332 65.4613 19.9908Z" fill="white"/>
</g>
<g style="mix-blend-mode:hard-light">
<path d="M89.6884 35.8877L90.2262 40.6074C90.6625 44.4367 89.718 47.8502 87.387 50.8432C85.0571 53.8467 82.0182 55.5567 78.2766 55.983C74.535 56.4093 71.1945 55.4262 68.2487 53.0237C65.3035 50.6265 63.6108 47.5188 63.1745 43.6896L62.6368 38.9698C62.3497 36.4502 64.138 34.177 66.6307 33.8929C69.1234 33.6089 71.3721 35.4222 71.6592 37.9419L72.1969 42.6616C72.342 43.9345 72.902 44.9798 73.8851 45.7751C74.8687 46.5758 75.9818 46.9 77.2308 46.7577C78.4797 46.6154 79.4913 46.0491 80.2697 45.0477C81.048 44.0463 81.3592 42.9072 81.2141 41.6342L80.6764 36.9145C80.3893 34.3948 82.1777 32.1216 84.6703 31.8376C87.163 31.5536 89.4117 33.3669 89.6988 35.8865L89.6884 35.8877Z" fill="white"/>
</g>
<g style="mix-blend-mode:hard-light">
<path d="M96.8042 16.6057L95.9802 16.6996C93.7477 16.954 92.1464 18.9895 92.4035 21.2461L95.6676 49.8946C95.9247 52.1512 97.9429 53.7743 100.175 53.52L100.999 53.4261C103.232 53.1717 104.833 51.1362 104.576 48.8796L101.312 20.2311C101.055 17.9745 99.0366 16.3514 96.8042 16.6057Z" fill="white"/>
</g>
<g style="mix-blend-mode:hard-light">
<path d="M114.947 14.5393L114.123 14.6332C111.891 14.8876 110.29 16.9231 110.547 19.1797L113.811 47.8282C114.068 50.0848 116.086 51.7079 118.319 51.4536L119.143 51.3597C121.375 51.1053 122.976 49.0698 122.719 46.8132L119.455 18.1647C119.198 15.9081 117.18 14.285 114.947 14.5393Z" fill="white"/>
</g>
<g style="mix-blend-mode:hard-light">
<path d="M121.115 50.3387C119.241 51.9956 116.406 51.7614 114.788 49.8127L93.5283 24.2544C91.9099 22.3057 92.1126 19.3853 93.9869 17.7284C95.8612 16.0716 98.6964 16.3057 100.315 18.2545L121.574 43.8127C123.193 45.7614 122.99 48.6818 121.115 50.3387Z" fill="white"/>
</g>
<g style="mix-blend-mode:hard-light">
<path d="M34.0982 23.7506L33.2691 23.8451C31.008 24.1027 29.3861 26.1643 29.6465 28.4498L32.8999 57.0041C33.1603 59.2896 35.2044 60.9336 37.4654 60.6759L38.2946 60.5815C40.5556 60.3238 42.1775 58.2622 41.9171 55.9767L38.6638 27.4224C38.4034 25.1369 36.3593 23.493 34.0982 23.7506Z" fill="white"/>
</g>
<g style="mix-blend-mode:hard-light">
<path d="M31.2094 42.1212L31.3049 42.9594C31.5653 45.2449 33.6093 46.8888 35.8704 46.6312L54.734 44.482C56.995 44.2244 58.6169 42.1627 58.3565 39.8772L58.261 39.0391C58.0006 36.7536 55.9566 35.1096 53.6955 35.3672L34.8319 37.5165C32.5708 37.7741 30.949 39.8357 31.2094 42.1212Z" fill="white"/>
</g>
<g style="mix-blend-mode:hard-light">
<path d="M29.6518 28.4484L29.7473 29.2865C30.0077 31.572 32.0517 33.216 34.3128 32.9583L53.1764 30.8091C55.4374 30.5515 57.0593 28.4899 56.7989 26.2044L56.7034 25.3662C56.443 23.0807 54.3989 21.4368 52.1379 21.6944L33.2743 23.8436C31.0132 24.1012 29.3914 26.1628 29.6518 28.4484Z" fill="white"/>
</g>
<g style="mix-blend-mode:hard-light">
<path d="M159.444 41.7794L159.539 42.6176C159.8 44.9031 161.844 46.547 164.105 46.2894L193.007 42.9965C195.268 42.7389 196.89 40.6772 196.629 38.3917L196.534 37.5536C196.273 35.2681 194.229 33.6241 191.968 33.8817L163.067 37.1747C160.805 37.4323 159.184 39.4939 159.444 41.7794Z" fill="white"/>
</g>
<g style="mix-blend-mode:hard-light">
<path d="M172.683 8.22486L171.988 8.69028C170.093 9.95943 169.579 12.5432 170.839 14.4614L188.517 41.3624C189.778 43.2805 192.336 43.8066 194.231 42.5375L194.926 42.072C196.821 40.8029 197.336 38.2191 196.075 36.301L178.397 9.39994C177.136 7.48181 174.578 6.95571 172.683 8.22486Z" fill="white"/>
</g>
<g style="mix-blend-mode:hard-light">
<path d="M161.999 45.8186L162.781 46.1158C164.913 46.9261 167.287 45.838 168.084 43.6855L179.258 13.4973C180.055 11.3448 178.972 8.94289 176.84 8.13257L176.058 7.83542C173.926 7.0251 171.552 8.11316 170.755 10.2657L159.582 40.4539C158.785 42.6064 159.867 45.0083 161.999 45.8186Z" fill="white"/>
</g>
<g style="mix-blend-mode:hard-light">
<path d="M137.387 11.982L128.276 13.02C128.038 13.0472 127.812 13.0941 127.588 13.1515C127.365 13.2194 127.157 13.2908 126.948 13.3837C126.812 13.4415 126.678 13.5098 126.55 13.5828C126.295 13.734 126.046 13.9056 125.826 14.0951C125.717 14.1925 125.608 14.2951 125.504 14.3972C125.406 14.5039 125.303 14.6164 125.217 14.7324C124.488 15.6591 124.106 16.87 124.25 18.1377C124.306 18.6249 124.437 19.0822 124.627 19.5063C125.419 21.2998 127.299 22.4547 129.33 22.2232L138.441 21.1852C143.473 20.6119 148.015 24.2651 148.594 29.3516C149.174 34.438 145.57 39.0195 140.538 39.5928L131.427 40.6308C129.396 40.8623 127.829 42.4098 127.456 44.3361C127.365 44.7868 127.341 45.2672 127.397 45.7543C127.56 47.1844 128.348 48.3946 129.46 49.1222C129.584 49.1983 129.714 49.2737 129.843 49.344C130.105 49.4786 130.38 49.5905 130.663 49.6803C130.804 49.7226 130.95 49.759 131.095 49.785C131.32 49.8283 131.538 49.8512 131.771 49.8671C132.003 49.8726 132.233 49.8676 132.471 49.8404L141.582 48.8024C151.641 47.6563 158.858 38.4818 157.7 28.3142C156.541 18.1465 147.445 10.8307 137.386 11.9768L137.387 11.982Z" fill="white"/>
</g>
<g style="mix-blend-mode:hard-light">
<path d="M124.203 17.7192L127.445 46.1792C127.708 48.4878 129.773 50.1484 132.057 49.8882L132.896 49.7925C135.18 49.5323 136.819 47.4498 136.556 45.1412L133.313 16.6812C133.05 14.3725 130.985 12.7119 128.701 12.9722L127.862 13.0678C125.578 13.328 123.939 15.4105 124.203 17.7192Z" fill="white"/>
</g>
<g style="mix-blend-mode:hard-light">
<path d="M83.4957 17.9361L82.6665 18.0306C80.4055 18.2882 78.7836 20.3499 79.044 22.6354L81.1222 40.8753C81.3826 43.1608 83.4266 44.8048 85.6877 44.5472L86.5169 44.4527C88.778 44.1951 90.3998 42.1335 90.1394 39.8479L88.0612 21.608C87.8008 19.3225 85.7568 17.6785 83.4957 17.9361Z" fill="white"/>
</g>
<g style="mix-blend-mode:hard-light">
<path d="M65.4613 19.9908L64.6321 20.0853C62.371 20.3429 60.7492 22.4045 61.0096 24.6901L63.0878 42.93C63.3482 45.2155 65.3922 46.8595 67.6533 46.6019L68.4825 46.5074C70.7435 46.2498 72.3654 44.1882 72.105 41.9026L70.0268 23.6627C69.7664 21.3772 67.7223 19.7332 65.4613 19.9908Z" fill="white"/>
</g>
<g style="mix-blend-mode:hard-light">
<path d="M89.6884 35.8877L90.2262 40.6074C90.6625 44.4367 89.718 47.8502 87.387 50.8432C85.0571 53.8467 82.0182 55.5567 78.2766 55.983C74.535 56.4093 71.1945 55.4262 68.2487 53.0237C65.3035 50.6265 63.6108 47.5188 63.1745 43.6896L62.6368 38.9698C62.3497 36.4502 64.138 34.177 66.6307 33.8929C69.1234 33.6089 71.3721 35.4222 71.6592 37.9419L72.1969 42.6616C72.342 43.9345 72.902 44.9798 73.8851 45.7751C74.8687 46.5758 75.9818 46.9 77.2308 46.7577C78.4797 46.6154 79.4913 46.0491 80.2697 45.0477C81.048 44.0463 81.3592 42.9072 81.2141 41.6342L80.6764 36.9145C80.3893 34.3948 82.1777 32.1216 84.6703 31.8376C87.163 31.5536 89.4117 33.3669 89.6988 35.8865L89.6884 35.8877Z" fill="white"/>
</g>
<g style="mix-blend-mode:hard-light">
<path d="M81.7926 60.2584L80.9634 60.3529C78.7023 60.6105 77.0805 62.6721 77.3409 64.9576L80.5519 93.14C80.8123 95.4255 82.8563 97.0695 85.1174 96.8119L85.9465 96.7174C88.2076 96.4598 89.8295 94.3981 89.5691 92.1126L86.3581 63.9303C86.0977 61.6447 84.0536 60.0008 81.7926 60.2584Z" fill="white"/>
</g>
<g style="mix-blend-mode:hard-light">
<path d="M100.153 58.1666L99.3242 58.2611C97.0632 58.5187 95.4413 60.5803 95.7017 62.8658L98.9127 91.0482C99.1731 93.3337 101.217 94.9777 103.478 94.7201L104.307 94.6256C106.568 94.368 108.19 92.3063 107.93 90.0208L104.719 61.8385C104.459 59.5529 102.414 57.909 100.153 58.1666Z" fill="white"/>
</g>
<g style="mix-blend-mode:hard-light">
<path d="M79.2538 61.1026L78.6209 61.651C76.8951 63.1462 76.699 65.7751 78.1829 67.5227L100.177 93.4259C101.661 95.1735 104.263 95.3781 105.989 93.8828L106.622 93.3344C108.347 91.8392 108.544 89.2103 107.06 87.4627L85.0654 61.5595C83.5815 59.8119 80.9796 59.6073 79.2538 61.1026Z" fill="white"/>
</g>
<g style="mix-blend-mode:hard-light">
<path d="M47.5023 68.3683L47.5978 69.2064C47.8582 71.4919 49.9023 73.1359 52.1634 72.8783L71.027 70.729C73.288 70.4714 74.9099 68.4098 74.6495 66.1243L74.554 65.2861C74.2936 63.0006 72.2495 61.3567 69.9885 61.6143L51.1249 63.7635C48.8638 64.0212 47.2419 66.0828 47.5023 68.3683Z" fill="white"/>
</g>
<g style="mix-blend-mode:hard-light">
<path d="M50.6229 95.7111L50.7184 96.5492C50.9788 98.8347 53.0229 100.479 55.284 100.221L74.1476 98.0718C76.4086 97.8142 78.0305 95.7526 77.7701 93.4671L77.6746 92.6289C77.4142 90.3434 75.3701 88.6995 73.1091 88.9571L54.2455 91.1063C51.9844 91.3639 50.3625 93.4255 50.6229 95.7111Z" fill="white"/>
</g>
<g style="mix-blend-mode:hard-light">
<path d="M55.2841 100.221L56.1133 100.127C58.3743 99.869 59.9962 97.8074 59.7358 95.5219L56.5248 67.3395C56.2644 65.054 54.2204 63.41 51.9593 63.6677L51.1301 63.7621C48.869 64.0198 47.2472 66.0814 47.5076 68.3669L50.7186 96.5492C50.979 98.8348 53.023 100.479 55.2841 100.221Z" fill="white"/>
</g>
<g style="mix-blend-mode:hard-light">
<path d="M49.06 82.0402L49.1555 82.8783C49.4159 85.1638 51.4599 86.8078 53.721 86.5501L72.5846 84.4009C74.8456 84.1433 76.4675 82.0817 76.2071 79.7962L76.1116 78.958C75.8512 76.6725 73.8071 75.0286 71.5461 75.2862L52.6825 77.4354C50.4214 77.693 48.7996 79.7546 49.06 82.0402Z" fill="white"/>
</g>
<g style="mix-blend-mode:hard-light">
<path d="M107.352 61.5431L107.448 62.3812C107.708 64.6668 109.752 66.3107 112.013 66.0531L130.877 63.9038C133.138 63.6462 134.76 61.5846 134.499 59.2991L134.404 58.4609C134.143 56.1754 132.099 54.5315 129.838 54.7891L110.975 56.9383C108.714 57.196 107.092 59.2576 107.352 61.5431Z" fill="white"/>
</g>
<g style="mix-blend-mode:hard-light">
<path d="M124.152 92.3744L124.981 92.2799C127.242 92.0223 128.864 89.9607 128.603 87.6752L125.392 59.4928C125.132 57.2073 123.088 55.5634 120.827 55.821L119.998 55.9155C117.736 56.1731 116.115 58.2347 116.375 60.5202L119.586 88.7026C119.846 90.9881 121.89 92.632 124.152 92.3744Z" fill="white"/>
</g>
<g style="mix-blend-mode:hard-light">
<path d="M181.535 85.8363L182.364 85.7418C184.626 85.4842 186.247 83.4226 185.987 81.1371L182.776 52.9547C182.516 50.6692 180.472 49.0253 178.211 49.2829L177.381 49.3774C175.12 49.635 173.498 51.6966 173.759 53.9821L176.97 82.1645C177.23 84.45 179.274 86.0939 181.535 85.8363Z" fill="white"/>
</g>
<g style="mix-blend-mode:hard-light">
<path d="M176.874 81.3263L176.97 82.1644C177.23 84.45 179.274 86.0939 181.535 85.8363L200.399 83.687C202.66 83.4294 204.282 81.3678 204.021 79.0823L203.926 78.2442C203.665 75.9586 201.621 74.3147 199.36 74.5723L180.497 76.7215C178.236 76.9792 176.614 79.0408 176.874 81.3263Z" fill="white"/>
</g>
<g style="mix-blend-mode:hard-light">
<path d="M29.9878 103.059L30.7675 102.76C32.8936 101.944 33.9587 99.5399 33.1464 97.3894L22.7354 69.8269C21.9231 67.6764 19.541 66.5943 17.4149 67.41L16.6352 67.7091C14.5091 68.5247 13.444 70.9293 14.2563 73.0798L24.6673 100.642C25.4796 102.793 27.8617 103.875 29.9878 103.059Z" fill="white"/>
</g>
<g style="mix-blend-mode:hard-light">
<path d="M33.5867 65.7799L32.7598 65.6639C30.5046 65.3474 28.4271 66.9376 28.1193 69.2157L24.1754 98.4137C23.8676 100.692 25.4463 102.795 27.7014 103.112L28.5284 103.228C30.7835 103.544 32.8611 101.954 33.1688 99.6758L37.1128 70.4778C37.4205 68.1997 35.8419 66.0964 33.5867 65.7799Z" fill="white"/>
</g>
<g style="mix-blend-mode:hard-light">
<path d="M43.9597 101.469L44.7394 101.17C46.8655 100.355 47.9306 97.95 47.1183 95.7995L36.7073 68.2371C35.895 66.0866 33.5129 65.0045 31.3868 65.8201L30.6071 66.1192C28.481 66.9349 27.4159 69.3395 28.2282 71.49L38.6393 99.0524C39.4516 101.203 41.8336 102.285 43.9597 101.469Z" fill="white"/>
</g>
<g style="mix-blend-mode:hard-light">
<path d="M19.6102 67.3717L18.7832 67.2557C16.5281 66.9392 14.4505 68.5294 14.1428 70.8075L10.1988 100.005C9.89107 102.284 11.4697 104.387 13.7249 104.703L14.5518 104.819C16.8069 105.136 18.8845 103.546 19.1923 101.268L23.1362 72.0696C23.444 69.7915 21.8653 67.6882 19.6102 67.3717Z" fill="white"/>
</g>
<g style="mix-blend-mode:hard-light">
<path d="M134.115 85.7843L134.211 86.6224C134.471 88.908 136.515 90.5519 138.776 90.2943L167.678 87.0014C169.939 86.7437 171.561 84.6821 171.3 82.3966L171.205 81.5585C170.944 79.273 168.9 77.629 166.639 77.8866L137.738 81.1796C135.477 81.4372 133.855 83.4988 134.115 85.7843Z" fill="white"/>
</g>
<g style="mix-blend-mode:hard-light">
<path d="M147.354 52.2278L146.659 52.6932C144.764 53.9624 144.25 56.5462 145.51 58.4643L163.188 85.3653C164.449 87.2834 167.007 87.8095 168.902 86.5404L169.597 86.075C171.492 84.8058 172.007 82.222 170.746 80.3039L153.068 53.4029C151.808 51.4847 149.249 50.9586 147.354 52.2278Z" fill="white"/>
</g>
<g style="mix-blend-mode:hard-light">
<path d="M136.662 89.8255L137.444 90.1226C139.576 90.9329 141.95 89.8449 142.747 87.6924L153.92 57.5041C154.717 55.3516 153.635 52.9498 151.503 52.1394L150.721 51.8423C148.589 51.032 146.215 52.12 145.418 54.2725L134.244 84.4608C133.448 86.6133 134.53 89.0151 136.662 89.8255Z" fill="white"/>
</g>
<g style="mix-blend-mode:hard-light">
<path d="M205.452 71.5493C205.442 71.4655 205.434 71.3922 205.424 71.3084C205.29 69.026 206.944 67.0016 209.219 66.7424C211.494 66.4831 213.71 68.1888 213.981 70.5722C214.156 72.1018 215.519 73.1935 217.027 73.0217C218.535 72.8498 219.617 71.4743 219.443 69.9499C219.27 68.4255 217.906 67.3286 216.398 67.5004C216.315 67.5099 216.242 67.5182 216.159 67.5276C213.901 67.6576 211.893 65.976 211.631 63.6764C211.369 61.3768 212.943 59.2925 215.178 58.9105C215.261 58.9011 215.333 58.8928 215.416 58.8834C215.499 58.8739 215.571 58.8656 215.654 58.8562C219.145 58.5328 222.424 59.8466 224.737 62.1832C226.487 63.9524 227.68 66.3105 227.985 68.9873C228.702 75.2786 224.241 80.9552 218.012 81.665C211.782 82.3747 206.303 77.9632 205.475 71.7961C205.465 71.7123 205.457 71.639 205.447 71.5552L205.452 71.5493Z" fill="white"/>
</g>
<g style="mix-blend-mode:hard-light">
<path d="M226.377 54.8216C226.386 54.9054 226.394 54.9788 226.404 55.0626C226.538 57.345 224.884 59.3694 222.609 59.6286C220.334 59.8878 218.119 58.1822 217.847 55.7987C217.673 54.2691 216.31 53.1775 214.801 53.3493C213.293 53.5211 212.211 54.8967 212.385 56.4211C212.559 57.9454 213.922 59.0423 215.431 58.8705C215.513 58.8611 215.586 58.8528 215.669 58.8433C217.927 58.7134 219.935 60.3949 220.197 62.6946C220.459 64.9942 218.886 67.0785 216.651 67.4604C216.568 67.4699 216.495 67.4782 216.412 67.4876C216.329 67.497 216.257 67.5053 216.174 67.5148C212.683 67.8382 209.405 66.5243 207.091 64.1878C205.341 62.4186 204.148 60.0604 203.843 57.3836C203.126 51.0924 207.588 45.4157 213.817 44.706C220.046 43.9963 225.525 48.4077 226.354 54.5748C226.363 54.6586 226.372 54.732 226.381 54.8158L226.377 54.8216Z" fill="white"/>
</g>
<g style="mix-blend-mode:hard-light">
<path d="M81.7926 60.2584L80.9634 60.3529C78.7023 60.6105 77.0805 62.6721 77.3409 64.9576L80.5519 93.14C80.8123 95.4255 82.8563 97.0695 85.1174 96.8119L85.9465 96.7174C88.2076 96.4598 89.8295 94.3981 89.5691 92.1126L86.3581 63.9303C86.0977 61.6447 84.0536 60.0008 81.7926 60.2584Z" fill="white"/>
</g>
<g style="mix-blend-mode:hard-light">
<path d="M100.153 58.1666L99.3242 58.2611C97.0632 58.5187 95.4413 60.5803 95.7017 62.8658L98.9127 91.0482C99.1731 93.3337 101.217 94.9777 103.478 94.7201L104.307 94.6256C106.568 94.368 108.19 92.3063 107.93 90.0208L104.719 61.8385C104.459 59.5529 102.414 57.909 100.153 58.1666Z" fill="white"/>
</g>
<g style="mix-blend-mode:hard-light">
<path d="M79.2538 61.1026L78.6209 61.651C76.8951 63.1462 76.699 65.7751 78.1829 67.5227L100.177 93.4259C101.661 95.1735 104.263 95.3781 105.989 93.8828L106.622 93.3344C108.347 91.8392 108.544 89.2103 107.06 87.4627L85.0654 61.5595C83.5815 59.8119 80.9796 59.6073 79.2538 61.1026Z" fill="white"/>
</g>
<g style="mix-blend-mode:hard-light">
<path d="M47.5023 68.3683L47.5978 69.2064C47.8582 71.4919 49.9023 73.1359 52.1634 72.8783L71.027 70.729C73.288 70.4714 74.9099 68.4098 74.6495 66.1243L74.554 65.2861C74.2936 63.0006 72.2495 61.3567 69.9885 61.6143L51.1249 63.7635C48.8638 64.0212 47.2419 66.0828 47.5023 68.3683Z" fill="white"/>
</g>
<g style="mix-blend-mode:hard-light">
<path d="M50.6229 95.7111L50.7184 96.5492C50.9788 98.8347 53.0229 100.479 55.284 100.221L74.1476 98.0718C76.4086 97.8142 78.0305 95.7526 77.7701 93.4671L77.6746 92.6289C77.4142 90.3434 75.3701 88.6995 73.1091 88.9571L54.2455 91.1063C51.9844 91.3639 50.3625 93.4255 50.6229 95.7111Z" fill="white"/>
</g>
<g style="mix-blend-mode:hard-light">
<path d="M55.2841 100.221L56.1133 100.127C58.3743 99.869 59.9962 97.8074 59.7358 95.5219L56.5248 67.3395C56.2644 65.054 54.2204 63.41 51.9593 63.6677L51.1301 63.7621C48.869 64.0198 47.2472 66.0814 47.5076 68.3669L50.7186 96.5492C50.979 98.8348 53.023 100.479 55.2841 100.221Z" fill="white"/>
</g>
<g style="mix-blend-mode:hard-light">
<path d="M49.06 82.0402L49.1555 82.8783C49.4159 85.1638 51.4599 86.8078 53.721 86.5501L72.5846 84.4009C74.8456 84.1433 76.4675 82.0817 76.2071 79.7962L76.1116 78.958C75.8512 76.6725 73.8071 75.0286 71.5461 75.2862L52.6825 77.4354C50.4214 77.693 48.7996 79.7546 49.06 82.0402Z" fill="white"/>
</g>
<g style="mix-blend-mode:hard-light">
<path d="M107.352 61.5431L107.448 62.3812C107.708 64.6668 109.752 66.3107 112.013 66.0531L130.877 63.9038C133.138 63.6462 134.76 61.5846 134.499 59.2991L134.404 58.4609C134.143 56.1754 132.099 54.5315 129.838 54.7891L110.975 56.9383C108.714 57.196 107.092 59.2576 107.352 61.5431Z" fill="white"/>
</g>
<g style="mix-blend-mode:hard-light">
<path d="M124.152 92.3744L124.981 92.2799C127.242 92.0223 128.864 89.9607 128.603 87.6752L125.392 59.4928C125.132 57.2073 123.088 55.5634 120.827 55.821L119.998 55.9155C117.736 56.1731 116.115 58.2347 116.375 60.5202L119.586 88.7026C119.846 90.9881 121.89 92.632 124.152 92.3744Z" fill="white"/>
</g>
<g style="mix-blend-mode:hard-light">
<path d="M181.535 85.8363L182.364 85.7418C184.626 85.4842 186.247 83.4226 185.987 81.1371L182.776 52.9547C182.516 50.6692 180.472 49.0253 178.211 49.2829L177.381 49.3774C175.12 49.635 173.498 51.6966 173.759 53.9821L176.97 82.1645C177.23 84.45 179.274 86.0939 181.535 85.8363Z" fill="white"/>
</g>
<g style="mix-blend-mode:hard-light">
<path d="M176.874 81.3263L176.97 82.1644C177.23 84.45 179.274 86.0939 181.535 85.8363L200.399 83.687C202.66 83.4294 204.282 81.3678 204.021 79.0823L203.926 78.2442C203.665 75.9586 201.621 74.3147 199.36 74.5723L180.497 76.7215C178.236 76.9792 176.614 79.0408 176.874 81.3263Z" fill="white"/>
</g>
<g style="mix-blend-mode:hard-light">
<path d="M29.9878 103.059L30.7675 102.76C32.8936 101.944 33.9587 99.5399 33.1464 97.3894L22.7354 69.8269C21.9231 67.6764 19.541 66.5943 17.4149 67.41L16.6352 67.7091C14.5091 68.5247 13.444 70.9293 14.2563 73.0798L24.6673 100.642C25.4796 102.793 27.8617 103.875 29.9878 103.059Z" fill="white"/>
</g>
<g style="mix-blend-mode:hard-light">
<path d="M33.5867 65.7799L32.7598 65.6639C30.5046 65.3474 28.4271 66.9376 28.1193 69.2157L24.1754 98.4137C23.8676 100.692 25.4463 102.795 27.7014 103.112L28.5284 103.228C30.7835 103.544 32.8611 101.954 33.1688 99.6758L37.1128 70.4778C37.4205 68.1997 35.8419 66.0964 33.5867 65.7799Z" fill="white"/>
</g>
<g style="mix-blend-mode:hard-light">
<path d="M43.9597 101.469L44.7394 101.17C46.8655 100.355 47.9306 97.95 47.1183 95.7995L36.7073 68.2371C35.895 66.0866 33.5129 65.0045 31.3868 65.8201L30.6071 66.1192C28.481 66.9349 27.4159 69.3395 28.2282 71.49L38.6393 99.0524C39.4516 101.203 41.8336 102.285 43.9597 101.469Z" fill="white"/>
</g>
<g style="mix-blend-mode:hard-light">
<path d="M19.6102 67.3717L18.7832 67.2557C16.5281 66.9392 14.4505 68.5294 14.1428 70.8075L10.1988 100.005C9.89107 102.284 11.4697 104.387 13.7249 104.703L14.5518 104.819C16.8069 105.136 18.8845 103.546 19.1923 101.268L23.1362 72.0696C23.444 69.7915 21.8653 67.6882 19.6102 67.3717Z" fill="white"/>
</g>
<g style="mix-blend-mode:hard-light">
<path d="M134.115 85.7843L134.211 86.6224C134.471 88.908 136.515 90.5519 138.776 90.2943L167.678 87.0014C169.939 86.7437 171.561 84.6821 171.3 82.3966L171.205 81.5585C170.944 79.273 168.9 77.629 166.639 77.8866L137.738 81.1796C135.477 81.4372 133.855 83.4988 134.115 85.7843Z" fill="white"/>
</g>
<g style="mix-blend-mode:hard-light">
<path d="M147.354 52.2278L146.659 52.6932C144.764 53.9624 144.25 56.5462 145.51 58.4643L163.188 85.3653C164.449 87.2834 167.007 87.8095 168.902 86.5404L169.597 86.075C171.492 84.8058 172.007 82.222 170.746 80.3039L153.068 53.4029C151.808 51.4847 149.249 50.9586 147.354 52.2278Z" fill="white"/>
</g>
<g style="mix-blend-mode:hard-light">
<path d="M136.662 89.8255L137.444 90.1226C139.576 90.9329 141.95 89.8449 142.747 87.6924L153.92 57.5041C154.717 55.3516 153.635 52.9498 151.503 52.1394L150.721 51.8423C148.589 51.032 146.215 52.12 145.418 54.2725L134.244 84.4608C133.448 86.6133 134.53 89.0151 136.662 89.8255Z" fill="white"/>
</g>
<g style="mix-blend-mode:hard-light">
<path d="M205.452 71.5493C205.442 71.4655 205.434 71.3922 205.424 71.3084C205.29 69.026 206.944 67.0016 209.219 66.7424C211.494 66.4831 213.71 68.1888 213.981 70.5722C214.156 72.1018 215.519 73.1935 217.027 73.0217C218.535 72.8498 219.617 71.4743 219.443 69.9499C219.27 68.4255 217.906 67.3286 216.398 67.5004C216.315 67.5099 216.242 67.5182 216.159 67.5276C213.901 67.6576 211.893 65.976 211.631 63.6764C211.369 61.3768 212.943 59.2925 215.178 58.9105C215.261 58.9011 215.333 58.8928 215.416 58.8834C215.499 58.8739 215.571 58.8656 215.654 58.8562C219.145 58.5328 222.424 59.8466 224.737 62.1832C226.487 63.9524 227.68 66.3105 227.985 68.9873C228.702 75.2786 224.241 80.9552 218.012 81.665C211.782 82.3747 206.303 77.9632 205.475 71.7961C205.465 71.7123 205.457 71.639 205.447 71.5552L205.452 71.5493Z" fill="white"/>
</g>
<g style="mix-blend-mode:hard-light">
<path d="M226.377 54.8216C226.386 54.9054 226.394 54.9788 226.404 55.0626C226.538 57.345 224.884 59.3694 222.609 59.6286C220.334 59.8878 218.119 58.1822 217.847 55.7987C217.673 54.2691 216.31 53.1775 214.801 53.3493C213.293 53.5211 212.211 54.8967 212.385 56.4211C212.559 57.9454 213.922 59.0423 215.431 58.8705C215.513 58.8611 215.586 58.8528 215.669 58.8433C217.927 58.7134 219.935 60.3949 220.197 62.6946C220.459 64.9942 218.886 67.0785 216.651 67.4604C216.568 67.4699 216.495 67.4782 216.412 67.4876C216.329 67.497 216.257 67.5053 216.174 67.5148C212.683 67.8382 209.405 66.5243 207.091 64.1878C205.341 62.4186 204.148 60.0604 203.843 57.3836C203.126 51.0924 207.588 45.4157 213.817 44.706C220.046 43.9963 225.525 48.4077 226.354 54.5748C226.363 54.6586 226.372 54.732 226.381 54.8158L226.377 54.8216Z" fill="white"/>
</g>
</svg>
