<svg width="167" height="82" viewBox="0 0 167 82" fill="none" xmlns="http://www.w3.org/2000/svg">
<g style="mix-blend-mode:screen">
<path d="M60.1965 22.631L37.918 27.7744L48.2192 72.3939L70.4977 67.2506L60.1965 22.631Z" fill="white"/>
</g>
<g style="mix-blend-mode:screen">
<path d="M86.8536 16.4764C86.4152 16.5776 85.99 16.6912 85.5621 16.8156L64.5403 21.6689L74.8415 66.2884L95.8536 61.4374C96.2927 61.3617 96.7356 61.28 97.1788 61.1777C109.541 58.3237 117.183 45.9835 114.342 33.6754C111.5 21.3672 99.1472 13.6382 86.8536 16.4764Z" fill="white"/>
</g>
<g style="mix-blend-mode:screen">
<path d="M23.1717 31.1891L16.4872 41.9008L14.4776 33.1963L0.939697 36.3115L6.08018 58.5774L11.2184 80.8336L24.754 77.7086L22.7445 69.0041L33.4482 75.7014L43.8503 59.0259L33.1466 52.3287L39.8311 41.617L23.1717 31.1891Z" fill="white"/>
</g>
<g style="mix-blend-mode:screen">
<path d="M144.927 19.4909C144.274 19.6416 143.642 19.8388 143.033 20.0667C142.979 19.7453 142.92 19.4201 142.844 19.0933C142.817 18.9763 142.787 18.8653 142.755 18.7494L157.152 15.4254L153.826 1.01546L124.699 7.73988C116.56 9.6189 111.486 17.7502 113.367 25.8987C115.248 34.0473 123.373 39.1312 131.512 37.2522C132.262 37.079 132.98 36.8518 133.676 36.5781C133.72 36.8144 133.764 37.0507 133.818 37.2848C133.868 37.4994 133.922 37.7128 133.98 37.9203L118.579 41.4759L121.771 55.3006L151.604 48.4131C159.582 46.5712 164.555 38.602 162.711 30.6144C160.867 22.6267 152.904 17.6441 144.925 19.486L144.927 19.4909Z" fill="white"/>
</g>
</svg>
