<svg width="286" height="52" viewBox="0 0 286 52" fill="none" xmlns="http://www.w3.org/2000/svg">
<path d="M31.072 36.8721C31.1109 37.4291 31.0651 37.9875 30.9341 38.5429C30.8031 39.0983 30.4669 39.7218 29.9339 40.4082C29.3966 41.095 28.6843 41.709 27.7971 42.2501C26.91 42.7912 25.635 43.2833 23.9769 43.7261C22.3139 44.1648 20.3732 44.4661 18.1453 44.6219L16.0731 44.7668C13.5561 44.9428 11.3552 44.846 9.47899 44.4713C7.60275 44.0965 6.12669 43.5013 5.04634 42.6858C3.96569 41.8659 3.15544 40.951 2.61085 39.9369C2.06626 38.9228 1.7505 37.7942 1.66326 36.5467L1.61185 35.8115C1.52618 34.5862 1.66556 33.4482 2.0297 32.3929C2.39384 31.3377 3.03454 30.3392 3.95562 29.3883C4.87701 28.4418 6.2295 27.6533 8.02642 27.0217C9.81921 26.3948 11.9893 25.9879 14.533 25.81L16.7475 25.6552C25.8059 25.0217 30.5629 27.9307 31.0144 34.3868L31.1007 35.621L9.69318 37.1179C10.3904 39.4198 12.7711 40.4264 16.84 40.1418L16.8756 40.1393C17.8939 40.0681 18.792 39.9382 19.5697 39.7495C20.3475 39.5608 20.95 39.3575 21.3724 39.1354C21.7951 38.9178 22.1359 38.679 22.3998 38.4278C22.6638 38.1765 22.8371 37.9718 22.925 37.8224C23.0126 37.6685 23.0652 37.5261 23.078 37.3908L31.0692 36.832L31.0713 36.8632L31.072 36.8721ZM15.8702 29.9162C12.1882 30.1737 10.0933 31.3366 9.58133 33.4096L22.6597 32.495C21.9354 30.5085 19.6857 29.6494 15.9058 29.9138L15.8702 29.9162Z" fill="white"/>
<path d="M42.3129 33.5201L31.8131 25.3624L41.3695 24.6941L46.8217 29.0454L51.6152 23.9777L60.7003 23.3424L51.4998 32.7434L62.2856 41.2841L53.1294 41.9244L47.0289 37.1842L41.7586 42.7195L32.7491 43.3495L42.3218 33.5195L42.3129 33.5201Z" fill="white"/>
<path d="M70.1953 22.3077L70.3751 24.8785C72.7296 22.6991 75.9683 21.4697 80.0862 21.1818L80.7399 21.136C82.8966 20.9852 84.7716 21.0869 86.3652 21.4456C87.9588 21.8043 89.2275 22.3738 90.1716 23.1584C91.1158 23.9431 91.8311 24.8423 92.3134 25.8607C92.8002 26.8789 93.0864 28.0319 93.1767 29.324L93.221 29.9567C93.3082 31.2043 93.1748 32.3643 92.8256 33.4409C92.4764 34.5175 91.8769 35.531 91.0321 36.4855C90.1872 37.44 88.9818 38.2228 87.4158 38.8338C85.8542 39.4444 83.982 39.8305 81.7986 39.9832L81.2161 40.024C78.7213 40.1984 76.5936 39.998 74.838 39.4312C73.0821 38.86 71.8941 38.2939 71.2695 37.7331L71.8861 46.5506L63.7838 47.1172L62.0886 22.8746L70.1909 22.308L70.1953 22.3077ZM70.8234 31.2901C70.9107 32.5376 71.6185 33.5851 72.9421 34.4283C74.266 35.276 76.0819 35.6191 78.3809 35.4583L78.5633 35.4456C80.9379 35.2795 82.6138 34.7057 83.5905 33.7195C84.5672 32.7333 85.0105 31.5964 84.9202 30.3043L84.9108 30.1707C84.8173 28.834 84.2242 27.7651 83.1353 26.9547C82.0422 26.1491 80.2993 25.8278 77.9024 25.9954L77.7201 26.0081C75.3455 26.1742 73.5807 26.7543 72.4217 27.7532C71.2626 28.7521 70.7253 29.8866 70.8138 31.152L70.8231 31.2856L70.8234 31.2901Z" fill="white"/>
<path d="M104.175 38.3372L96.0722 38.9037L94.335 14.0596L102.437 13.493L104.175 38.3372Z" fill="white"/>
<path d="M200.326 12.6433L200.625 16.9073C200.625 16.9073 189.817 17.6451 188.891 17.8218C187.97 17.9981 186.63 18.9111 185.978 19.8119C185.331 20.7168 185.049 21.7932 185.137 23.0497L185.801 32.5533L178.161 33.0876L176.875 14.6951L184.448 14.1655L184.676 17.4136C184.962 16.9145 185.329 16.4053 185.776 15.895C186.223 15.3846 187.002 14.8376 188.123 14.2533C189.24 13.6693 190.499 13.3305 191.891 13.2332L200.326 12.6433Z" fill="white"/>
<path d="M231.517 22.8559C231.556 23.4128 231.51 23.9712 231.379 24.5266C231.248 25.082 230.912 25.7055 230.379 26.392C229.842 27.0788 229.129 27.6927 228.242 28.2338C227.355 28.7749 226.08 29.2671 224.422 29.7099C222.759 30.1485 220.818 30.4499 218.586 30.606L216.514 30.7509C213.997 30.9269 211.796 30.8301 209.919 30.4553C208.044 30.085 206.567 29.4853 205.487 28.6699C204.406 27.85 203.596 26.9351 203.047 25.9213C202.502 24.9072 202.187 23.7786 202.099 22.531L202.048 21.7959C201.962 20.5706 202.102 19.4326 202.466 18.3773C202.83 17.3221 203.471 16.3236 204.392 15.3727C205.313 14.4262 206.67 13.6373 208.462 13.006C210.255 12.3792 212.425 11.9723 214.969 11.7944L217.184 11.6395C226.242 11.0061 230.999 13.9151 231.45 20.3711L231.537 21.6053L210.138 23.1017C210.835 25.4035 213.216 26.4101 217.285 26.1256L217.321 26.1231C218.339 26.0519 219.237 25.9219 220.015 25.7332C220.792 25.5445 221.395 25.3412 221.817 25.1191C222.24 24.9015 222.581 24.6628 222.845 24.4115C223.109 24.1602 223.282 23.9556 223.37 23.8062C223.458 23.6523 223.51 23.5098 223.523 23.3746L231.514 22.8158L231.516 22.847L231.517 22.8559ZM216.315 15.9C212.633 16.1575 210.538 17.3203 210.022 19.3936L223.1 18.4791C222.376 16.4925 220.126 15.6335 216.346 15.8978L216.311 15.9003L216.315 15.9Z" fill="white"/>
<path d="M256.442 8.71947L256.74 12.9834C256.74 12.9834 245.933 13.7212 245.007 13.8979C244.085 14.0743 242.746 14.9873 242.094 15.8881C241.447 16.793 241.165 17.8694 241.252 19.1258L241.917 28.6295L234.277 29.1637L232.991 10.7712L240.564 10.2417L240.791 13.4898C241.078 12.9906 241.445 12.4815 241.892 11.9711C242.339 11.4608 243.118 10.9138 244.239 10.3295C245.356 9.74544 246.614 9.40669 248.006 9.30936L256.442 8.71947Z" fill="white"/>
<path d="M270.632 27.2175C262.25 27.8037 257.912 25.9713 257.615 21.7207L257.601 21.5202L265.957 20.9359C266.07 22.5622 267.799 23.2562 271.139 23.0227L271.21 23.0177C272.615 22.9194 273.703 22.7538 274.482 22.5202C275.256 22.287 275.732 22.0523 275.912 21.8158C276.092 21.5794 276.166 21.2966 276.142 20.9624L276.138 20.8956C276.102 20.3832 275.804 20.0234 275.24 19.8166C274.68 19.6095 273.51 19.5481 271.741 19.627L268.25 19.804C266.215 19.9015 264.463 19.836 262.999 19.6025C261.535 19.3691 260.414 18.9998 259.637 18.4944C258.86 17.9891 258.29 17.4469 257.937 16.8672C257.579 16.2877 257.378 15.6437 257.328 14.9308L257.314 14.7303C257.27 14.1065 257.311 13.544 257.433 13.043C257.554 12.542 257.861 12.019 258.346 11.4702C258.83 10.9215 259.499 10.4494 260.347 10.0542C261.195 9.65913 262.377 9.29892 263.886 8.96949C265.396 8.64005 267.194 8.40241 269.275 8.25688L270.729 8.1552C278.894 7.58428 283.103 9.17937 283.366 12.9443L283.382 13.176L275.133 13.7528C275.069 13.5335 274.984 13.3424 274.875 13.1844C274.765 13.0219 274.561 12.8482 274.253 12.6593C273.944 12.4704 273.443 12.3353 272.746 12.2632C272.048 12.1866 271.19 12.1884 270.172 12.2596L270.136 12.2621C268.295 12.3908 267.066 12.5798 266.453 12.8197C265.835 13.0643 265.548 13.4292 265.582 13.9193L265.587 13.9861C265.618 14.4317 265.931 14.7501 266.53 14.9455C267.129 15.1409 268.215 15.2037 269.792 15.1382L273.283 14.9613C276.217 14.8009 278.511 14.8957 280.167 15.25C281.823 15.6043 282.95 16.1344 283.545 16.8405C284.139 17.5467 284.486 18.5477 284.577 19.8398L284.591 20.0403C284.655 20.9537 284.532 21.7592 284.233 22.4652C283.929 23.167 283.356 23.8518 282.513 24.5152C281.67 25.1786 280.377 25.7346 278.63 26.1792C276.882 26.6238 274.715 26.941 272.122 27.1223L270.633 27.2264L270.632 27.2175Z" fill="white"/>
<path d="M152.708 27.6503L149.155 27.8988L148.983 25.4482L152.536 25.1998L152.708 27.6503Z" fill="white"/>
<path d="M160.365 27.1152L156.812 27.3636L156.641 24.9131L160.194 24.6646L160.365 27.1152Z" fill="white"/>
<path d="M168.023 26.5791L164.47 26.8275L164.298 24.377L167.851 24.1285L168.023 26.5791Z" fill="white"/>
<path d="M167.141 17.5434C171.214 17.2585 174.76 20.3507 175.045 24.432C175.183 26.4058 174.544 28.322 173.25 29.8184C171.947 31.3154 170.146 32.2114 168.176 32.3492L147.018 33.8287L146.637 34.2672L141.865 39.7722L136.364 34.9811L135.927 34.5998L114.768 36.0793C110.695 36.3642 107.15 33.2764 106.864 29.1952C106.726 27.2124 107.365 25.3007 108.664 23.8085C109.958 22.3121 111.754 21.4119 113.728 21.2738L167.14 17.5389M167.043 16.1399L113.631 19.8748C111.203 20.0446 109.079 21.1826 107.599 22.889C106.118 24.5909 105.289 26.8651 105.459 29.2979C105.799 34.1589 110.011 37.8268 114.862 37.4876L135.443 36.0485L142 41.7597L147.694 35.1918L168.274 33.7526C170.702 33.5829 172.826 32.4449 174.311 30.7426C175.787 29.0321 176.616 26.7668 176.446 24.334C176.105 19.4686 171.894 15.8006 167.043 16.1399Z" fill="white"/>
</svg>
