<svg width="36" height="37" viewBox="0 0 36 37" fill="none" xmlns="http://www.w3.org/2000/svg">
<path d="M27.7207 10.826L14.1695 24.3772L10.0273 19.7945C9.77425 19.6165 9.41813 19.6821 9.24945 19.9351C9.07139 20.1881 9.13699 20.5443 9.39002 20.7129L13.9165 25.5674C14.0102 25.633 14.1226 25.6705 14.2351 25.6705C14.3757 25.6705 14.5256 25.6142 14.6287 25.5018L28.5079 11.6226C28.7234 11.4071 28.7234 11.0509 28.5079 10.826C28.2923 10.6105 27.9362 10.6105 27.7113 10.826H27.7207Z" fill="#2BB673" stroke="#2BB673" stroke-width="1.43968" stroke-miterlimit="10"/>
<path d="M17.9909 35.4449C8.54439 35.4449 0.869141 27.7603 0.869141 18.3232C0.869141 8.88613 8.55376 1.19214 17.9909 1.19214C27.4279 1.19214 35.1126 8.87676 35.1126 18.3139C35.1126 27.7509 27.4279 35.4356 17.9909 35.4356V35.4449ZM17.9909 2.11992C9.05982 2.11992 1.79692 9.38282 1.79692 18.3139C1.79692 27.2449 9.05982 34.5172 18.0002 34.5172C26.9406 34.5172 34.2035 27.2543 34.2035 18.3139C34.2035 9.37345 26.9219 2.11992 17.9909 2.11992Z" fill="#2BB673" stroke="#2BB673" stroke-width="1.43968" stroke-miterlimit="10"/>
</svg>
