<svg width="0" height="0" viewBox="0 0 32 32" fill="none" xmlns="http://www.w3.org/2000/svg">
<path fill-rule="evenodd" clip-rule="evenodd" d="M0 16.0014C0 7.16124 7.16124 0 16.0014 0C24.8388 0 32.0029 7.16409 32.0029 16.0014C32.0029 24.8388 24.8416 32.0029 16.0014 32.0029C7.16124 32.0029 0 24.8416 0 16.0014ZM17.2092 28.4536V29.5301C23.7509 28.9505 28.9705 23.7195 29.533 17.1721H28.4936C27.8255 17.1721 27.2858 16.6325 27.2858 15.9643C27.2858 15.2962 27.8255 14.7565 28.4936 14.7565H29.5273C28.9333 8.24627 23.7252 3.04952 17.2092 2.47274V3.47212C17.2092 4.14027 16.6696 4.67993 16.0014 4.67993C15.3333 4.67993 14.7936 4.14027 14.7936 3.47212V2.47274C8.27769 3.04952 3.06951 8.24342 2.4756 14.7565H3.50924C4.17739 14.7565 4.71705 15.2962 4.71705 15.9643C4.71705 16.6325 4.17739 17.1721 3.50924 17.1721H2.46988C3.03239 23.7166 8.25199 28.9505 14.7936 29.5301V28.4536C14.7936 27.7855 15.3333 27.2458 16.0014 27.2458C16.6696 27.2458 17.2092 27.7855 17.2092 28.4536ZM15.7389 16.774L22.8916 9.27867V9.28153C23.24 8.9189 23.8139 8.90462 24.1737 9.25012C24.5363 9.59847 24.5506 10.1695 24.2051 10.5322L17.0524 18.0275C17.0581 18.0618 17.0581 18.096 17.0581 18.1331C17.0581 18.8841 16.4499 19.4923 15.699 19.4923C14.988 19.4923 14.4026 18.9441 14.3455 18.2474L8.36069 13.7245C7.96094 13.4247 7.88099 12.8536 8.18366 12.4567C8.48633 12.0541 9.05454 11.9798 9.45144 12.2768L15.4363 16.7997C15.5219 16.7826 15.6104 16.774 15.699 16.774H15.7389Z" fill="white"/>
</svg>
