<svg width="25" height="21" viewBox="0 0 25 21" fill="none" xmlns="http://www.w3.org/2000/svg">
<path d="M13.9535 17.5C13.9535 17.1033 14 16.7183 14.0581 16.3333H2.32558V9.33333H20.9302V10.5C21.7442 10.5 22.5233 10.6517 23.2558 10.9083V2.33333C23.2558 1.03833 22.2209 0 20.9302 0H2.32558C1.03488 0 0 1.03833 0 2.33333V16.3333C0 17.6167 1.03488 18.6667 2.32558 18.6667H14.0581C14 18.2817 13.9535 17.8967 13.9535 17.5ZM2.32558 2.33333H20.9302V4.66667H2.32558V2.33333ZM19.4767 21L16.2791 17.5L17.6279 16.1467L19.4767 18.0017L23.6512 13.8133L25 15.4583L19.4767 21Z" fill="white"/>
</svg>
