<svg width="0" height="0" viewBox="0 0 1169 517" fill="none" xmlns="http://www.w3.org/2000/svg">
<g style="mix-blend-mode:saturation">
<path fill-rule="evenodd" clip-rule="evenodd" d="M1094.21 0.281111L1094.23 0.303027L1094.25 0.273352L1183.69 64.139L1167.86 86.5992L1100.76 38.6802L1069.11 83.6065L1069.12 83.6191L1053.3 106.079L1053.28 106.067L1053.27 106.084L1030.91 90.1168L1030.92 90.099L986.198 58.1602L954.566 103.052L954.624 103.089L938.8 125.549L938.747 125.511L938.709 125.565L916.351 109.597L916.389 109.543L871.697 77.63L840.04 122.557L840.058 122.57L824.234 145.03L824.216 145.017L824.203 145.035L801.85 129.067L801.858 129.05L757.135 97.1101L725.503 142.002L725.557 142.04L709.733 164.5L709.679 164.462L709.641 164.515L687.283 148.548L687.321 148.494L642.635 116.58L610.977 161.507L610.995 161.52L595.171 183.98L595.153 183.967L595.141 183.985L572.783 168.017L572.795 168L528.068 136.061L496.441 180.951L496.495 180.989L480.671 203.45L480.617 203.412L480.579 203.465L458.221 187.497L458.259 187.444L413.567 155.531L381.91 200.458L381.928 200.47L366.104 222.931L366.086 222.918L366.078 222.935L343.72 206.967L343.733 206.949L299.005 175.011L267.374 219.902L267.427 219.94L251.603 242.4L251.55 242.362L251.512 242.416L229.154 226.448L229.191 226.395L184.505 194.48L152.848 239.408L152.865 239.42L137.042 261.88L137.024 261.868L137.011 261.886L114.653 245.918L114.666 245.9L69.9381 213.961L22.4494 281.366L0.0912435 265.398L63.3878 175.562L63.4124 175.584L63.4335 175.554L130.49 223.445L177.949 156.082L177.979 156.103L178 156.074L245.015 203.934L292.45 136.612L292.48 136.633L292.501 136.604L359.553 184.495L407.012 117.132L407.041 117.153L407.063 117.124L474.083 164.984L521.512 97.6626L521.542 97.6837L521.563 97.654L588.62 145.544L636.079 78.1816L636.109 78.2027L636.125 78.1739L703.145 126.034L750.58 58.7119L750.609 58.733L750.631 58.7033L817.682 106.595L865.141 39.2318L865.171 39.2529L865.192 39.2232L932.212 87.0832L979.642 19.7621L979.672 19.7831L979.693 19.7534L1046.75 67.6439L1094.21 0.281111ZM1106.65 77.9337L1106.62 77.9127L1059.19 145.228L992.176 97.372L992.16 97.4009L992.13 97.3798L944.725 164.66L877.751 116.829L877.73 116.859L877.701 116.837L830.275 184.153L763.266 136.296L763.245 136.326L763.215 136.305L715.815 203.584L648.836 155.754L648.821 155.782L648.791 155.761L601.36 223.077L534.351 175.221L534.33 175.25L534.3 175.229L486.9 242.509L419.927 194.678L419.905 194.707L419.876 194.686L372.45 262.001L305.436 214.146L305.415 214.175L305.385 214.154L257.985 281.434L191.011 233.602L190.99 233.632L190.961 233.611L143.535 300.926L76.521 253.07L76.505 253.099L76.4752 253.078L13.2209 342.854L35.5612 358.809L83.0263 291.451L127.719 323.369L127.706 323.387L150.052 339.341L150.064 339.324L150.082 339.336L165.894 316.894L165.876 316.881L197.512 271.984L242.174 303.876L242.136 303.93L264.476 319.885L264.514 319.831L264.568 319.869L280.384 297.426L280.331 297.388L311.936 252.527L356.634 284.445L356.621 284.462L378.967 300.417L378.979 300.399L378.992 300.412L394.809 277.969L394.791 277.956L426.427 233.059L471.089 264.951L471.046 265.006L493.391 280.96L493.429 280.906L493.483 280.944L509.294 258.502L509.241 258.464L540.851 213.602L585.549 245.52L585.536 245.538L607.877 261.493L607.889 261.475L607.907 261.488L623.724 239.044L623.706 239.032L655.342 194.134L699.999 226.027L699.961 226.081L722.306 242.035L722.344 241.982L722.398 242.02L738.209 219.577L738.156 219.539L769.766 174.677L814.464 206.595L814.451 206.613L836.792 222.568L836.804 222.55L836.822 222.563L852.634 200.12L852.616 200.108L884.252 155.21L928.914 187.103L928.876 187.156L951.216 203.111L951.254 203.058L951.308 203.096L967.124 180.652L967.07 180.614L998.681 135.753L1043.37 167.671L1043.36 167.689L1065.71 183.643L1065.72 183.625L1065.74 183.638L1081.55 161.196L1081.53 161.183L1113.17 116.285L1180.22 164.171L1196.04 141.728L1106.67 77.904L1106.65 77.9337ZM1119.99 156.581L1120.02 156.597L1120.04 156.573L1209.42 220.396L1193.6 242.839L1126.54 194.949L1094.91 239.852L1094.93 239.864L1079.11 262.307L1079.1 262.294L1079.08 262.312L1056.74 246.358L1056.75 246.34L1012.06 214.416L980.447 259.283L980.501 259.321L964.684 281.764L964.631 281.726L964.593 281.78L942.252 265.825L942.29 265.771L897.627 233.874L865.992 278.776L866.01 278.789L850.199 301.231L850.181 301.219L850.168 301.237L827.828 285.282L827.841 285.264L783.142 253.341L751.532 298.208L751.586 298.246L735.774 320.688L735.721 320.65L735.683 320.704L713.337 304.75L713.375 304.696L668.718 272.798L637.082 317.7L637.1 317.713L621.284 340.156L621.266 340.144L621.253 340.161L598.913 324.206L598.926 324.188L554.227 292.266L522.617 337.133L522.671 337.171L506.859 359.613L506.806 359.575L506.768 359.629L484.422 343.674L484.465 343.62L439.802 311.723L408.167 356.625L408.185 356.638L392.369 379.081L392.356 379.067L392.343 379.085L369.998 363.131L370.011 363.113L325.312 331.191L293.707 376.057L293.761 376.094L277.944 398.538L277.891 398.5L277.853 398.553L255.512 382.598L255.55 382.545L210.887 350.647L179.252 395.55L179.27 395.562L163.459 418.005L163.441 417.992L163.428 418.01L141.083 402.056L141.095 402.038L96.402 370.114L48.9378 437.478L26.5974 421.523L89.8517 331.747L89.8806 331.763L89.8975 331.739L156.911 379.59L204.337 312.28L204.366 312.296L204.388 312.271L271.361 360.097L318.762 292.823L318.791 292.839L318.813 292.814L385.826 340.665L433.252 273.355L433.281 273.371L433.303 273.346L500.276 321.173L547.677 253.898L547.706 253.914L547.728 253.889L614.736 301.741L662.167 234.43L662.196 234.446L662.213 234.422L729.191 282.248L776.592 214.973L776.621 214.989L776.643 214.965L843.651 262.816L891.077 195.506L891.106 195.522L891.128 195.497L958.101 243.324L1005.51 176.048L1005.54 176.064L1005.55 176.041L1072.57 223.891L1119.99 156.581ZM1133.37 235.245L1133.4 235.266L1133.42 235.236L1222.79 299.06L1206.98 321.508L1139.92 273.618L1108.28 318.515L1108.3 318.528L1092.49 340.975L1092.47 340.963L1092.46 340.981L1070.11 325.021L1070.13 325.004L1025.43 293.085L993.823 337.947L993.876 337.985L978.061 360.433L978.006 360.39L977.969 360.449L955.628 344.489L955.666 344.435L911.004 312.543L879.368 357.44L879.386 357.453L863.575 379.9L863.557 379.888L863.545 379.905L841.203 363.945L841.216 363.927L796.518 332.01L764.908 376.872L764.961 376.91L749.151 399.357L749.096 399.314L749.059 399.373L726.713 383.413L726.751 383.36L682.094 351.467L650.458 396.364L650.476 396.377L634.66 418.825L634.642 418.812L634.63 418.83L612.288 402.87L612.301 402.852L567.603 370.935L535.993 415.796L536.046 415.834L520.236 438.282L520.181 438.239L520.144 438.297L497.798 422.338L497.841 422.284L453.179 390.391L421.543 435.289L421.561 435.301L405.745 457.75L405.732 457.736L405.72 457.754L383.373 441.795L383.386 441.777L338.688 409.859L307.083 454.72L307.136 454.758L291.321 477.207L291.266 477.164L291.229 477.222L268.888 461.262L268.926 461.208L224.264 429.316L192.628 474.214L192.646 474.226L176.835 496.674L176.817 496.661L176.805 496.679L154.458 480.72L154.471 480.702L109.778 448.783L62.3142 516.147L39.9729 500.187L103.227 410.41L103.257 410.431L103.273 410.403L170.287 458.259L217.713 390.943L217.743 390.964L217.764 390.935L284.737 438.766L332.137 371.487L332.167 371.508L332.188 371.478L399.202 419.334L446.628 352.019L446.658 352.04L446.679 352.01L513.652 399.841L561.052 332.562L561.082 332.583L561.103 332.553L628.112 380.41L675.543 313.094L675.573 313.115L675.588 313.086L742.567 360.917L789.967 293.637L789.997 293.658L790.018 293.628L857.027 341.485L904.453 274.17L904.482 274.191L904.504 274.161L971.477 321.993L1018.88 254.712L1018.91 254.733L1018.93 254.704L1085.94 302.56L1133.37 235.245Z" fill="url(#paint0_linear_1177_1725)"/>
</g>
<defs>
<linearGradient id="paint0_linear_1177_1725" x1="1050.56" y1="16.3737" x2="1051.25" y2="199.705" gradientUnits="userSpaceOnUse">
<stop stop-color="#160752"/>
<stop offset="1" stop-color="#160752"/>
</linearGradient>
</defs>
</svg>
