<svg viewBox="0 0 31 37" fill="none" xmlns="http://www.w3.org/2000/svg">
<path d="M12.1924 36.8451C4.73827 36.8451 0.132876 30.4356 0.132876 22.0794C0.132876 13.6757 4.73827 7.2187 12.1924 7.2187C16.7028 7.2187 22.2103 9.02287 22.875 18.471H23.3972L22.4002 11.5867V0.666696H30.8513V36.2754H22.0204L22.9699 26.4949H22.5901C21.2607 34.7086 16.228 36.8451 12.1924 36.8451ZM8.25166 22.2218C8.25166 26.6373 11.6226 28.7263 15.8957 28.7263C20.1687 28.7263 23.4447 26.6373 23.4447 22.2218C23.4447 17.8063 20.1687 15.6698 15.8957 15.6698C11.6226 15.6698 8.25166 17.8063 8.25166 22.2218Z" fill="#351C76"/>
</svg>
