<svg  viewBox="0 0 29 30" fill="none" xmlns="http://www.w3.org/2000/svg">
<path d="M16.1803 29.8451C6.44723 29.8451 0.13262 23.4356 0.13262 14.9844C0.13262 6.81817 6.01992 0.218696 14.8509 0.218696C22.21 0.218696 28.2872 4.68165 28.2872 12.5156C28.2872 13.4651 28.1448 14.5097 27.9549 15.6491L8.15645 14.8895C8.39384 20.5869 13.6164 21.8213 17.0824 21.8213C20.5483 21.8213 23.8717 20.8243 26.3881 19.0201H26.9578V27.2813C24.6314 28.7531 20.8331 29.8451 16.1803 29.8451ZM8.48879 12.658L20.7382 12.3257C20.3584 9.57191 17.9844 7.81522 14.9458 7.81522C12.4295 7.81522 9.3434 9.19209 8.48879 12.658Z" fill="#351C76"/>
</svg>
