<svg width="310" height="46" viewBox="0 0 724 80" fill="none" xmlns="http://www.w3.org/2000/svg">
<path d="M74.79 46.7093C74.79 48.1309 74.5739 49.5412 74.1417 50.9287C73.7095 52.3162 72.7428 53.8402 71.2643 55.4894C69.7744 57.1385 67.8524 58.5715 65.4981 59.7884C63.1439 61.0053 59.8115 62.0289 55.5125 62.8592C51.202 63.678 46.2092 64.0988 40.5112 64.0988H35.2113C28.7741 64.0988 23.1899 63.4619 18.4814 62.1768C13.7729 60.8916 10.1221 59.1174 7.51767 56.8541C4.91321 54.5795 3.01389 52.1115 1.80833 49.4388C0.602778 46.7661 0 43.8432 0 40.6587V38.7822C0 35.6545 0.557286 32.7885 1.67186 30.1727C2.78643 27.5568 4.59476 25.1344 7.10823 22.8825C9.62171 20.642 13.2043 18.8791 17.89 17.5939C22.5644 16.3201 28.16 15.6719 34.6654 15.6719H40.3293C63.4964 15.6719 75.0857 23.9061 75.0857 40.3858V43.5361H20.3352C21.7 49.5071 27.58 52.4868 37.9864 52.4868H38.0774C40.6818 52.4868 42.9906 52.3162 45.0037 51.975C47.0167 51.6339 48.5862 51.2244 49.7008 50.7354C50.8153 50.2577 51.7252 49.7118 52.4417 49.1204C53.1582 48.529 53.6359 48.0399 53.8861 47.676C54.1363 47.3007 54.2955 46.9481 54.3524 46.6069H74.79V46.6865V46.7093ZM37.3381 26.3399C27.9211 26.3399 22.3824 28.9216 20.7105 34.0964H54.1591C52.6692 28.9216 47.0963 26.3399 37.4291 26.3399H37.3381Z" fill="white"/>
<path d="M103.996 40.1936L78.7248 17.6064H103.166L116.268 29.6279L129.37 17.6064H152.605L127.516 39.8524L153.447 63.4631H130.029L115.346 50.3384L100.948 63.4631H77.906L104.019 40.1936H103.996Z" fill="white"/>
<path d="M176.955 16.6618V23.2241C183.335 18.1062 191.797 15.5586 202.328 15.5586H204C209.516 15.5586 214.27 16.15 218.262 17.3442C222.254 18.5384 225.382 20.2102 227.645 22.3711C229.908 24.532 231.569 26.9431 232.615 29.6158C233.673 32.2885 234.196 35.2683 234.196 38.5665V40.1815C234.196 43.366 233.65 46.2889 232.57 48.9616C231.489 51.6343 229.783 54.1023 227.463 56.3769C225.143 58.6515 221.936 60.4258 217.841 61.6996C213.759 62.9734 208.925 63.6216 203.341 63.6216H201.851C195.47 63.6216 190.091 62.7345 185.724 60.983C181.356 59.2202 178.433 57.5711 176.944 56.0357V78.5432H156.222V16.6618H176.944H176.955ZM176.955 39.5901C176.955 42.7746 178.57 45.561 181.789 47.938C185.007 50.3264 189.568 51.5206 195.448 51.5206H195.914C201.987 51.5206 206.355 50.3605 209.016 48.029C211.677 45.6975 213.008 42.8883 213.008 39.5901V39.2489C213.008 35.837 211.689 33.0164 209.061 30.7645C206.423 28.524 202.044 27.3981 195.914 27.3981H195.448C189.374 27.3981 184.78 28.5581 181.652 30.8896C178.524 33.2211 176.955 36.0076 176.955 39.2375V39.5787V39.5901Z" fill="white"/>
<path d="M260.582 63.4168H239.86V0H260.582V63.4168Z" fill="white"/>
<path d="M509.871 15.2285V26.1126C509.871 26.1126 482.234 26.0671 479.846 26.3515C477.469 26.6358 473.898 28.7171 472.078 30.8894C470.27 33.073 469.36 35.7571 469.36 38.9643V63.2233H449.821V16.2748H469.189V24.5659C470.008 23.349 471.032 22.1207 472.26 20.9037C473.488 19.6868 475.57 18.4358 478.527 17.1506C481.472 15.8654 484.736 15.2285 488.296 15.2285H509.871Z" fill="white"/>
<path d="M587.436 46.7093C587.436 48.1309 587.22 49.5412 586.788 50.9287C586.356 52.3162 585.389 53.8402 583.91 55.4894C582.42 57.1385 580.498 58.5715 578.144 59.7884C575.79 61.0053 572.458 62.0289 568.158 62.8592C563.848 63.678 558.855 64.0988 553.146 64.0988H547.846C541.409 64.0988 535.825 63.4619 531.116 62.1768C526.408 60.903 522.757 59.1174 520.152 56.8541C517.548 54.5795 515.648 52.1115 514.432 49.4388C513.226 46.7661 512.623 43.8432 512.623 40.6587V38.7822C512.623 35.6545 513.181 32.7885 514.295 30.1727C515.41 27.5568 517.218 25.1344 519.731 22.8825C522.245 20.642 525.839 18.8791 530.513 17.5939C535.188 16.3201 540.783 15.6719 547.289 15.6719H552.953C576.12 15.6719 587.709 23.9061 587.709 40.3858V43.5361H532.981C534.346 49.5071 540.226 52.4868 550.632 52.4868H550.723C553.328 52.4868 555.637 52.3162 557.65 51.975C559.663 51.6339 561.232 51.2244 562.347 50.7354C563.461 50.2577 564.371 49.7118 565.088 49.1204C565.804 48.529 566.282 48.0399 566.532 47.676C566.782 47.3007 566.942 46.9481 566.998 46.6069H587.436V46.6865V46.7093ZM549.984 26.3399C540.567 26.3399 535.028 28.9216 533.345 34.0964H566.794C565.304 28.9216 559.731 26.3399 550.064 26.3399H549.973H549.984Z" fill="white"/>
<path d="M653.389 15.2285V26.1126C653.389 26.1126 625.752 26.0671 623.364 26.3515C620.987 26.6358 617.416 28.7171 615.596 30.8894C613.788 33.073 612.878 35.7571 612.878 38.9643V63.2233H593.339V16.2748H612.707V24.5659C613.526 23.349 614.55 22.1207 615.778 20.9037C617.006 19.6868 619.088 18.4358 622.045 17.1506C624.99 15.8654 628.255 15.2285 631.814 15.2285H653.389Z" fill="white"/>
<path d="M686.212 64.7353C664.773 64.7353 654.06 59.3103 654.06 48.4603V47.9485H675.43C675.43 52.0997 679.706 54.1696 688.247 54.1696H688.429C692.023 54.1696 694.821 53.9421 696.846 53.4872C698.859 53.0323 700.11 52.5205 700.61 51.9518C701.111 51.3832 701.349 50.678 701.349 49.8251V49.6545C701.349 48.3465 700.656 47.3798 699.257 46.7543C697.869 46.1288 694.901 45.7648 690.386 45.6511L681.469 45.4805C676.271 45.3668 671.825 44.8891 668.14 44.0361C664.455 43.1831 661.668 42.0458 659.78 40.6242C657.892 39.2025 656.539 37.724 655.743 36.1886C654.935 34.6532 654.537 32.9814 654.537 31.1617V30.6499C654.537 29.0576 654.742 27.636 655.14 26.3849C655.538 25.1339 656.414 23.8601 657.745 22.5522C659.075 21.2443 660.861 20.1638 663.09 19.3108C665.319 18.4578 668.39 17.7527 672.291 17.184C676.192 16.6154 680.809 16.3311 686.132 16.3311H689.851C710.732 16.3311 721.161 21.1305 721.161 30.7409V31.3323H700.064C699.939 30.7636 699.757 30.2632 699.507 29.8424C699.257 29.4102 698.768 28.9325 698.017 28.398C697.266 27.8635 696.015 27.4313 694.252 27.1242C692.49 26.8057 690.306 26.6579 687.701 26.6579H687.61C682.902 26.6579 679.74 26.9195 678.137 27.4199C676.522 27.9317 675.726 28.8074 675.726 30.0585V30.2291C675.726 31.3664 676.465 32.2308 677.955 32.8335C679.445 33.4363 682.197 33.7889 686.223 33.9026L695.14 34.0732C702.634 34.1869 708.458 34.8352 712.609 36.0294C716.76 37.2236 719.535 38.7703 720.923 40.6696C722.31 42.569 723.015 45.1734 723.015 48.4716V48.9834C723.015 51.3149 722.56 53.3394 721.673 55.0795C720.775 56.8082 719.194 58.4459 716.931 59.9813C714.667 61.5167 711.278 62.6995 706.752 63.5184C702.225 64.3372 696.652 64.758 690.022 64.758H686.212V64.7353Z" fill="white"/>
<path d="M386.005 44.889H376.918V38.6338H386.005V44.889Z" fill="white"/>
<path d="M405.59 44.889H396.503V38.6338H405.59V44.889Z" fill="white"/>
<path d="M425.174 44.889H416.087V38.6338H425.174V44.889Z" fill="white"/>
<path d="M425.092 22.0517C435.596 22.0517 444.139 30.5904 444.139 41.0748C444.139 46.1454 442.155 50.9298 438.566 54.5238C434.954 58.1178 430.172 60.0865 425.092 60.0865H370.53L369.475 61.1395L356.242 74.3595L342.985 61.1281L341.93 60.075H287.368C276.864 60.075 268.321 51.5478 268.321 41.0634C268.321 35.97 270.305 31.197 273.906 27.6145C277.495 24.0204 282.265 22.0403 287.357 22.0403H425.092M425.092 18.4463H287.357C281.096 18.4463 275.442 20.9758 271.337 25.0735C267.232 29.1597 264.697 34.8254 264.697 41.0748C264.697 53.5623 274.846 63.6919 287.357 63.6919H340.428L356.23 79.4644L372.021 63.6919H425.092C431.353 63.6919 437.007 61.1624 441.123 57.0762C445.217 52.9671 447.752 47.3243 447.752 41.0748C447.752 28.5759 437.603 18.4463 425.092 18.4463Z" fill="white"/>
</svg>
