<svg width="310" height="46" viewBox="0 0 648 69" fill="none" xmlns="http://www.w3.org/2000/svg">
<path d="M121.284 10.3147C121.284 6.21721 118.026 2.89551 114.007 2.89551C109.988 2.89551 106.73 6.21721 106.73 10.3147V56.1183C106.73 60.2158 109.988 63.5375 114.007 63.5375C118.026 63.5375 121.284 60.2158 121.284 56.1183V10.3147Z" fill="white"/>
<path d="M150.392 10.3147C150.392 6.21721 147.134 2.89551 143.115 2.89551C139.096 2.89551 135.838 6.21721 135.838 10.3147V56.1183C135.838 60.2158 139.096 63.5375 143.115 63.5375C147.134 63.5375 150.392 60.2158 150.392 56.1183V10.3147Z" fill="white"/>
<path d="M147.227 62.2324C143.94 64.5821 139.459 63.6706 137.235 60.2088L107.971 14.7283C105.739 11.2664 106.599 6.55031 109.895 4.20061C113.183 1.85091 117.663 2.76236 119.888 6.2242L149.151 51.7047C151.383 55.1666 150.523 59.8827 147.227 62.2324Z" fill="white"/>
<path d="M405.093 2.89551H405.085C401.068 2.89551 397.812 6.42358 397.812 10.7757V58.083C397.812 62.4351 401.068 65.9632 405.085 65.9632H405.093C409.109 65.9632 412.366 62.4351 412.366 58.083V10.7757C412.366 6.42358 409.109 2.89551 405.093 2.89551Z" fill="white"/>
<path d="M436.626 2.89551H436.618C432.601 2.89551 429.345 6.42358 429.345 10.7757V58.083C429.345 62.4351 432.601 65.9632 436.618 65.9632H436.626C440.643 65.9632 443.899 62.4351 443.899 58.083V10.7757C443.899 6.42358 440.643 2.89551 436.626 2.89551Z" fill="white"/>
<path d="M401.541 5.39614L401.534 5.4009C398.067 7.76185 397.161 12.5005 399.51 15.985L430.359 61.7462C432.708 65.2307 437.423 66.1415 440.89 63.7806L440.897 63.7758C444.363 61.4149 445.27 56.6762 442.921 53.1917L412.072 7.43049C409.723 3.946 405.008 3.03519 401.541 5.39614Z" fill="white"/>
<path d="M346.872 11.3804V11.3899C346.872 16.0761 350.31 19.875 354.551 19.875L385.282 19.875C389.522 19.875 392.96 16.0761 392.96 11.3899V11.3804C392.96 6.69418 389.522 2.89524 385.282 2.89524L354.551 2.89524C350.31 2.89524 346.872 6.69418 346.872 11.3804Z" fill="white"/>
<path d="M346.872 57.4683V57.4778C346.872 62.164 350.31 65.9629 354.551 65.9629H385.282C389.522 65.9629 392.96 62.164 392.96 57.4778V57.4683C392.96 52.7821 389.522 48.9831 385.282 48.9831H354.551C350.31 48.9831 346.872 52.7821 346.872 57.4683Z" fill="white"/>
<path d="M355.357 65.9629H355.367C360.053 65.9629 363.852 62.4348 363.852 58.0827V10.7754C363.852 6.42328 360.053 2.89522 355.367 2.89522H355.357C350.671 2.89522 346.872 6.42328 346.872 10.7754V58.0827C346.872 62.4348 350.671 65.9629 355.357 65.9629Z" fill="white"/>
<path d="M346.872 34.424V34.4321C346.872 38.4489 350.31 41.7051 354.551 41.7051H385.282C389.522 41.7051 392.96 38.4489 392.96 34.4321V34.424C392.96 30.4072 389.522 27.151 385.282 27.151H354.551C350.31 27.151 346.872 30.4072 346.872 34.424Z" fill="white"/>
<path d="M448.75 11.3804V11.3899C448.75 16.0761 452.188 19.875 456.429 19.875L487.16 19.875C491.401 19.875 494.838 16.0761 494.838 11.3899V11.3804C494.838 6.6942 491.401 2.89524 487.16 2.89524L456.429 2.89524C452.188 2.89524 448.75 6.6942 448.75 11.3804Z" fill="white"/>
<path d="M470.578 65.9629H470.586C474.603 65.9629 477.859 62.4348 477.859 58.0827V10.7754C477.859 6.42328 474.603 2.89522 470.586 2.89522H470.578C466.561 2.89522 463.305 6.42328 463.305 10.7754V58.0827C463.305 62.4348 466.561 65.9629 470.578 65.9629Z" fill="white"/>
<path d="M567.605 65.9629H567.613C571.63 65.9629 574.886 62.4348 574.886 58.0827V10.7754C574.886 6.42328 571.63 2.89522 567.613 2.89522H567.605C563.588 2.89522 560.332 6.42328 560.332 10.7754V58.0827C560.332 62.4348 563.588 65.9629 567.605 65.9629Z" fill="white"/>
<path d="M560.332 57.4682V57.4777C560.332 62.1639 563.77 65.9629 568.01 65.9629H598.741C602.982 65.9629 606.42 62.1639 606.42 57.4777V57.4682C606.42 52.782 602.982 48.9831 598.741 48.9831H568.01C563.77 48.9831 560.332 52.782 560.332 57.4682Z" fill="white"/>
<path d="M7.28109 2.89551H7.27298C3.25623 2.89551 0 6.25373 0 10.3963V56.0367C0 60.1793 3.25623 63.5375 7.27298 63.5375H7.28109C11.2979 63.5375 14.5541 60.1793 14.5541 56.0367V10.3963C14.5541 6.25373 11.2979 2.89551 7.28109 2.89551Z" fill="white"/>
<path d="M0 33.2105L0 33.2199C0 37.9061 3.43777 41.7051 7.67846 41.7051H38.4094C42.6501 41.7051 46.0879 37.9061 46.0879 33.2199V33.2105C46.0879 28.5243 42.6501 24.7253 38.4094 24.7253L7.67846 24.7253C3.43777 24.7253 0 28.5243 0 33.2105Z" fill="white"/>
<path d="M0 10.1672L0 10.1753C0 14.192 3.43777 17.4482 7.67847 17.4482L38.4095 17.4482C42.6502 17.4482 46.0879 14.192 46.0879 10.1753V10.1672C46.0879 6.15039 42.6502 2.89417 38.4095 2.89417L7.67847 2.89417C3.43777 2.89417 0 6.15039 0 10.1672Z" fill="white"/>
<path d="M313.026 64.8584L313.035 64.8563C317.092 63.8138 319.54 59.663 318.503 55.5851L306.772 9.46414C305.735 5.38628 301.605 2.9256 297.548 3.96807L297.54 3.97017C293.483 5.01264 291.034 9.1635 292.071 13.2414L303.802 59.3623C304.839 63.4402 308.969 65.9009 313.026 64.8584Z" fill="white"/>
<path d="M324.721 3.97658L324.712 3.97447C320.655 2.932 316.525 5.39268 315.488 9.47055L303.758 55.5915C302.72 59.6694 305.169 63.8202 309.226 64.8627L309.234 64.8648C313.291 65.9073 317.421 63.4466 318.458 59.3687L330.189 13.2478C331.226 9.1699 328.778 5.01904 324.721 3.97658Z" fill="white"/>
<path d="M336.54 64.8662L336.548 64.8641C340.606 63.8217 343.054 59.6708 342.017 55.5929L330.286 9.47196C329.249 5.39409 325.119 2.93341 321.062 3.97588L321.053 3.97799C316.996 5.02045 314.548 9.17131 315.585 13.2492L327.316 59.3701C328.353 63.448 332.483 65.9087 336.54 64.8662Z" fill="white"/>
<path d="M301.201 3.97658L301.193 3.97447C297.135 2.932 293.006 5.39268 291.968 9.47055L280.238 55.5915C279.201 59.6694 281.649 63.8202 285.706 64.8627L285.714 64.8648C289.771 65.9073 293.901 63.4466 294.938 59.3687L306.669 13.2478C307.706 9.1699 305.258 5.01904 301.201 3.97658Z" fill="white"/>
<path d="M213.46 56.257V56.2651C213.46 60.2819 216.891 63.5381 221.123 63.5381H268.864C273.097 63.5381 276.528 60.2819 276.528 56.2651V56.257C276.528 52.2402 273.097 48.984 268.864 48.984H221.123C216.891 48.984 213.46 52.2402 213.46 56.257Z" fill="white"/>
<path d="M240.765 3.47639L240.757 3.48026C237.028 5.39503 235.549 9.98582 237.454 13.7341L261.089 60.2354C262.994 63.9837 267.561 65.47 271.291 63.5553L271.298 63.5514C275.027 61.6366 276.506 57.0458 274.601 53.2976L250.966 6.7962C249.061 3.04795 244.494 1.56161 240.765 3.47639Z" fill="white"/>
<path d="M217.132 63.5594L217.14 63.5633C220.869 65.478 225.437 63.9917 227.342 60.2435L250.976 13.7421C252.882 9.99384 251.403 5.40304 247.674 3.48827L247.666 3.48441C243.937 1.56963 239.369 3.05596 237.464 6.80421L213.829 53.3056C211.924 57.0538 213.403 61.6446 217.132 63.5594Z" fill="white"/>
<path d="M487.562 56.257V56.2651C487.562 60.2819 490.993 63.5381 495.225 63.5381H542.966C547.198 63.5381 550.629 60.2819 550.629 56.2651V56.257C550.629 52.2402 547.198 48.984 542.966 48.984H495.225C490.993 48.984 487.562 52.2402 487.562 56.257Z" fill="white"/>
<path d="M516.27 3.46663L516.263 3.4705C512.533 5.38528 511.055 9.97606 512.96 13.7243L536.594 60.2257C538.499 63.9739 543.067 65.4603 546.796 63.5455L546.804 63.5416C550.533 61.6269 552.012 57.0361 550.107 53.2878L526.472 6.78645C524.567 3.03819 519.999 1.55186 516.27 3.46663Z" fill="white"/>
<path d="M492.655 63.5477L492.662 63.5516C496.391 65.4663 500.959 63.98 502.864 60.2317L526.499 13.7304C528.404 9.98212 526.925 5.39134 523.196 3.47656L523.188 3.47269C519.459 1.55791 514.891 3.04423 512.986 6.79248L489.352 53.2939C487.447 57.0421 488.925 61.6329 492.655 63.5477Z" fill="white"/>
<path d="M608.846 46.5525C608.846 46.414 608.846 46.2842 608.854 46.1458C609.071 42.2777 612.272 39.197 616.191 39.197C620.11 39.197 623.545 42.494 623.545 46.5525C623.545 49.1572 625.647 51.26 628.251 51.26C630.855 51.26 632.958 49.1572 632.958 46.5525C632.958 43.9478 630.855 41.845 628.251 41.845C628.113 41.845 627.983 41.845 627.845 41.8363C623.977 41.62 620.897 38.4095 620.897 34.4895C620.897 30.5695 623.977 27.3677 627.845 27.1514C627.983 27.1514 628.113 27.1514 628.251 27.1514C628.39 27.1514 628.519 27.1514 628.658 27.1514C634.653 27.2725 639.974 30.1109 643.452 34.4895C646.082 37.8038 647.657 41.9921 647.657 46.5525C647.657 57.2741 638.97 65.9622 628.251 65.9622C617.532 65.9622 609.062 57.4905 608.854 46.9592C608.846 46.8207 608.846 46.6909 608.846 46.5525Z" fill="white"/>
<path d="M182.967 2.89551H167.716C167.321 2.89551 166.934 2.92897 166.555 2.97915C166.177 3.04607 165.815 3.12971 165.453 3.23845C165.218 3.30536 164.982 3.39737 164.755 3.48938C164.301 3.69013 163.863 3.92433 163.459 4.19199C163.258 4.33419 163.064 4.47638 162.871 4.62694C162.686 4.78587 162.501 4.94479 162.332 5.12044C160.953 6.4922 160.095 8.39093 160.095 10.482C160.095 11.285 160.221 12.0545 160.456 12.7739C161.432 15.8353 164.317 18.0602 167.716 18.0602H182.967C191.387 18.0602 198.209 24.8437 198.209 33.2165C198.209 41.5893 191.387 48.3728 182.967 48.3728H167.716C164.317 48.3728 161.432 50.5977 160.456 53.6591C160.221 54.3785 160.095 55.148 160.095 55.951C160.095 58.3097 161.171 60.4176 162.871 61.8061C163.064 61.9566 163.258 62.0988 163.459 62.241C163.863 62.5087 164.301 62.7429 164.755 62.9436C164.982 63.0356 165.218 63.1276 165.453 63.1946C165.815 63.3033 166.177 63.3869 166.555 63.4539C166.934 63.504 167.321 63.5375 167.716 63.5375H182.967C199.807 63.5375 213.46 49.9621 213.46 33.2165C213.46 16.4709 199.807 2.89551 182.967 2.89551Z" fill="white"/>
<path d="M160.095 10.4743V55.9599C160.095 60.1452 163.351 63.5381 167.368 63.5381H167.376C171.393 63.5381 174.649 60.1452 174.649 55.9599V10.4743C174.649 6.28895 171.393 2.8961 167.376 2.8961H167.368C163.351 2.8961 160.095 6.28895 160.095 10.4743Z" fill="white"/>
<path d="M90.968 2.89551H90.9585C86.2723 2.89551 82.4734 6.25402 82.4734 10.3969V39.0563C82.4734 43.1992 86.2723 46.5577 90.9585 46.5577H90.968C95.6542 46.5577 99.4531 43.1992 99.4531 39.0563V10.3969C99.4531 6.25402 95.6542 2.89551 90.968 2.89551Z" fill="white"/>
<path d="M60.6458 2.89551H60.6377C56.621 2.89551 53.3647 6.25402 53.3647 10.3969V39.0563C53.3647 43.1992 56.621 46.5577 60.6377 46.5577H60.6458C64.6626 46.5577 67.9188 43.1992 67.9188 39.0563V10.3969C67.9188 6.25402 64.6626 2.89551 60.6458 2.89551Z" fill="white"/>
<path d="M99.4527 32.3847V40.3072C99.4527 46.7373 97.2099 52.2123 92.7158 56.7406C88.2217 61.2775 82.786 63.5374 76.4087 63.5374C70.0314 63.5374 64.6042 61.2775 60.1102 56.7406C55.6161 52.2123 53.3647 46.7373 53.3647 40.3072V32.3847C53.3647 28.1548 56.8059 24.7266 61.0518 24.7266C65.2976 24.7266 68.7302 28.1548 68.7302 32.3847V40.3072C68.7302 42.4477 69.475 44.2812 70.973 45.7907C72.471 47.3001 74.2858 48.0506 76.4087 48.0506C78.5316 48.0506 80.3464 47.3001 81.8444 45.7907C83.3424 44.2812 84.0872 42.4477 84.0872 40.3072V32.3847C84.0872 28.1548 87.5284 24.7266 91.7742 24.7266C96.02 24.7266 99.4527 28.1548 99.4527 32.3847Z" fill="white"/>
<path d="M647.657 22.3053C647.657 22.4437 647.657 22.5735 647.648 22.712C647.432 26.5801 644.231 29.6607 640.311 29.6607C636.392 29.6607 632.958 26.3638 632.958 22.3053C632.958 19.7006 630.855 17.5978 628.251 17.5978C625.647 17.5978 623.545 19.7006 623.545 22.3053C623.545 24.91 625.647 27.0128 628.251 27.0128C628.39 27.0128 628.519 27.0128 628.658 27.0214C632.525 27.2378 635.605 30.4482 635.605 34.3682C635.605 38.2883 632.525 41.49 628.658 41.7064C628.519 41.7064 628.39 41.7064 628.251 41.7064C628.113 41.7064 627.983 41.7064 627.845 41.7064C621.849 41.5852 616.528 38.7469 613.05 34.3682C610.42 31.0539 608.846 26.8657 608.846 22.3053C608.846 11.5836 617.532 2.89551 628.251 2.89551C638.97 2.89551 647.44 11.3673 647.648 21.8986C647.657 22.037 647.657 22.1668 647.657 22.3053Z" fill="white"/>
</svg>
