<svg width="266" height="198" viewBox="0 0 266 198" fill="none" xmlns="http://www.w3.org/2000/svg">
<g filter="url(#filter0_d_1716_10022)">
<path d="M0.392 48V3.2H9.16V23.104C9.736 22.016 10.824 21.824 12.232 21.824H31.944V3.2H40.712V48H31.944V27.584C31.368 28.672 30.28 28.864 28.872 28.864H9.16V48H0.392ZM47.197 48V11.648H47.453C48.477 12.608 50.077 13.056 51.549 13.056C53.021 13.056 54.621 12.608 55.645 11.648H55.901V48H47.197ZM46.237 5.76C46.237 3.072 48.349 0.831997 51.549 0.831997C54.749 0.831997 56.861 3.072 56.861 5.76C56.861 8.448 54.813 10.624 51.549 10.624C48.285 10.624 46.237 8.448 46.237 5.76ZM26.07 119.02C9.41 119.02 0.825 108.395 0.825 92.5V58.5H12.555V93.435C12.555 103.465 18.76 107.715 26.155 107.715C33.465 107.715 39.585 103.465 39.585 93.435V58.5H51.23V92.5C51.23 108.395 42.815 119.02 26.07 119.02ZM80.3405 119.02C74.3055 119.02 66.0605 118.17 58.4955 112.985V100.745H59.5155C66.4855 107.97 75.6655 109.075 80.6805 109.075C85.6105 109.075 91.5605 107.8 91.5605 102.275C91.5605 92.33 58.4955 99.725 58.4955 80.77C58.4955 71.165 67.9305 65.98 79.4905 65.98C87.6505 65.98 94.9605 68.53 99.8055 72.355V83.065H98.8705C94.1955 78.39 86.5455 75.415 78.9805 75.415C73.3705 75.415 68.1855 77.37 68.1855 81.62C68.1855 91.65 102.696 84.255 102.696 102.87C102.696 112.9 94.7055 119.02 80.3405 119.02ZM135.267 119.02C117.842 119.02 106.537 107.63 106.537 92.415C106.537 77.795 117.162 65.98 132.972 65.98C146.232 65.98 156.942 74.31 156.942 88.335C156.942 89.78 156.857 91.31 156.517 93.095L117.162 91.905C117.247 106.355 130.507 108.395 136.627 108.395C142.832 108.395 149.207 106.695 153.712 103.465H154.562V114.345C150.397 117.065 143.597 119.02 135.267 119.02ZM117.587 88.59L147.082 88.165C146.572 80.855 140.622 76.01 133.142 76.01C127.107 76.01 119.202 79.495 117.587 88.59ZM163.194 118V67H175.009L172.459 95.985H173.309C174.669 73.545 182.404 65.98 194.134 65.98V79.24H193.539C190.904 78.39 188.354 78.475 185.974 79.155C176.879 82.385 174.584 94.455 174.584 105.335V118H163.194ZM1.505 188V128.5H15.19L38.225 164.795L45.96 180.35H46.725C44.685 171.85 43.41 162.075 43.41 148.135V128.5H55.14V188H41.37L17.655 150.685L10.6 136.15H9.835C12.13 145.755 13.15 154 13.15 168.365V188H1.505ZM78.8829 189.02C69.7029 189.02 61.5429 184.6 61.5429 174.06C61.5429 162.84 72.2529 157.995 86.6179 157.995C91.6329 157.995 97.1579 158.335 100.388 158.675V157.91C99.7079 148.73 91.2079 146.52 85.5129 146.52C78.4579 146.52 71.5729 149.24 66.7279 153.32H65.7929V142.015C70.9779 138.445 78.5429 135.98 86.8729 135.98C103.533 135.98 111.608 146.86 111.608 159.1V188H100.303V186.81L102.003 163.265H101.238C100.813 179.5 92.9079 189.02 78.8829 189.02ZM72.2529 172.275C72.2529 178.055 76.9279 180.435 82.4529 180.435C91.4629 180.435 98.0929 174.91 98.7729 163.01H90.1029C76.0779 163.01 72.2529 167.345 72.2529 172.275ZM119.781 188V137H131.596L128.961 163.265H129.811C131.936 143.8 137.121 135.98 148.341 135.98C158.286 135.98 164.236 143.375 164.236 155.955C164.236 158.335 164.066 160.97 163.811 163.265H164.576C165.766 145.585 172.566 135.98 184.721 135.98C194.496 135.98 201.296 142.27 201.296 159.015V188H189.821V165.475C189.821 156.805 187.951 147.88 179.111 147.88C167.211 147.88 165.851 161.31 165.851 173.72V188H154.376V163.775C154.376 155.53 152.591 147.88 143.836 147.88C131.001 147.88 131.171 165.305 131.171 178.735V188H119.781ZM235.707 189.02C218.282 189.02 206.977 177.63 206.977 162.415C206.977 147.795 217.602 135.98 233.412 135.98C246.672 135.98 257.382 144.31 257.382 158.335C257.382 159.78 257.297 161.31 256.957 163.095L217.602 161.905C217.687 176.355 230.947 178.395 237.067 178.395C243.272 178.395 249.647 176.695 254.152 173.465H255.002V184.345C250.837 187.065 244.037 189.02 235.707 189.02ZM218.027 158.59L247.522 158.165C247.012 150.855 241.062 146.01 233.582 146.01C227.547 146.01 219.642 149.495 218.027 158.59Z" fill="white"/>
</g>
<defs>
<filter id="filter0_d_1716_10022" x="0.39209" y="0.832031" width="264.989" height="196.188" filterUnits="userSpaceOnUse" color-interpolation-filters="sRGB">
<feFlood flood-opacity="0" result="BackgroundImageFix"/>
<feColorMatrix in="SourceAlpha" type="matrix" values="0 0 0 0 0 0 0 0 0 0 0 0 0 0 0 0 0 0 127 0" result="hardAlpha"/>
<feOffset dx="4" dy="4"/>
<feGaussianBlur stdDeviation="2"/>
<feComposite in2="hardAlpha" operator="out"/>
<feColorMatrix type="matrix" values="0 0 0 0 0.164706 0 0 0 0 0.0117647 0 0 0 0 0.266667 0 0 0 0.8 0"/>
<feBlend mode="normal" in2="BackgroundImageFix" result="effect1_dropShadow_1716_10022"/>
<feBlend mode="normal" in="SourceGraphic" in2="effect1_dropShadow_1716_10022" result="shape"/>
</filter>
</defs>
</svg>
