<svg width="310" height="46" viewBox="0 0 301 88" fill="none" xmlns="http://www.w3.org/2000/svg">
<path opacity="0.8" d="M115.203 0.261719H71.886V86.8949H115.203V0.261719Z" fill="white"/>
<path opacity="0.8" d="M210.417 43.6604C210.417 67.5564 191.054 87.0591 167.018 87.0591C166.131 87.0591 165.244 87.0344 164.374 86.977H166.936V0.335624H164.489C165.326 0.286354 166.164 0.261719 167.01 0.261719C190.914 0.261719 210.417 19.6248 210.417 43.6604Z" fill="white"/>
<path d="M166.936 0.334961V86.9763H164.374C141.694 85.6132 123.62 66.8002 123.62 43.6597C123.62 20.5192 141.644 1.64062 164.489 0.334961H166.936Z" fill="white"/>
<path opacity="0.8" d="M164.374 86.9767H123.62V43.6602C123.62 66.8006 141.694 85.6136 164.374 86.9767Z" fill="white"/>
<path opacity="0.8" d="M164.489 0.334961C141.644 1.64062 123.62 20.5932 123.62 43.6597V0.334961H164.489Z" fill="white"/>
<path opacity="0.8" d="M43.2099 0.284671L26.3101 17.1904L52.624 43.4952L69.5239 26.5895L43.2099 0.284671Z" fill="white"/>
<path opacity="0.8" d="M26.3114 69.8063V86.7059H0.0012207V43.4961L26.3114 69.8063Z" fill="white"/>
<path opacity="0.8" d="M52.6214 43.5041L26.312 69.8135L43.209 86.7105L69.5184 60.4011L52.6214 43.5041Z" fill="white"/>
<path d="M26.3094 17.1896L0 43.499L26.3094 69.8084L52.6188 43.499L26.3094 17.1896Z" fill="white"/>
<path opacity="0.8" d="M26.3114 0.286354V17.186L0.0012207 43.4962V0.261719L26.3114 0.286354Z" fill="white"/>
<path opacity="0.8" d="M297.206 0.261719V28.2471H269.229C268.867 12.727 256.18 0.261719 240.578 0.261719H297.206Z" fill="white"/>
<path opacity="0.8" d="M272.908 86.7063H214.917V59.8623H244.848C245.497 74.7993 257.815 86.7063 272.908 86.7063Z" fill="white"/>
<path opacity="0.8" d="M269.237 28.9205C269.237 29.5445 269.22 30.1604 269.171 30.7763C255.868 32.5418 245.505 43.6276 244.856 57.2589C243.46 57.4642 242.032 57.571 240.578 57.571C224.754 57.571 211.919 44.7444 211.919 28.9205C211.919 13.0966 224.754 0.261719 240.578 0.261719V28.2471H269.229C269.237 28.4688 269.237 28.6987 269.237 28.9205Z" fill="white"/>
<path d="M269.229 28.2471H240.578V0.261719C256.18 0.261719 268.867 12.727 269.229 28.2471Z" fill="white"/>
<path d="M272.908 59.8623V86.7063C257.815 86.7063 245.497 74.7993 244.848 59.8623H272.908Z" fill="white"/>
<path opacity="0.8" d="M301 58.6224C301 74.1343 288.42 86.7063 272.908 86.7063V59.8624H244.849C244.832 59.4518 244.824 59.0412 244.824 58.6224C244.824 58.1625 244.824 57.7109 244.857 57.2593C258.053 55.2803 268.318 44.3012 269.172 30.7766C270.395 30.6124 271.643 30.5303 272.908 30.5303C288.42 30.5303 301 43.1106 301 58.6224Z" fill="white"/>
<path d="M269.171 30.7764C268.317 44.301 258.053 55.28 244.857 57.259C245.505 43.6276 255.869 32.5419 269.171 30.7764Z" fill="white"/>
</svg>
