<svg  viewBox="0 0 46 30" fill="none" xmlns="http://www.w3.org/2000/svg">
<path d="M0.198871 29.2754V0.788436H9.12478L7.41557 16.2189H7.89035C9.12478 4.77661 11.831 0.218696 17.9557 0.218696C24.033 0.218696 26.3119 5.10896 26.3119 11.3761C26.3119 12.9903 26.1695 14.7945 26.0745 16.2189H26.5018C27.2615 5.72617 30.6324 0.218696 37.137 0.218696C42.6444 0.218696 45.9204 3.77957 45.9204 13.0853V29.2754H37.1844V18.4503C37.1844 14.0823 36.7571 9.33452 32.674 9.33452C28.0211 9.33452 27.309 15.2218 27.309 22.3436V29.2754H18.573V16.9785C18.573 13.0378 17.9557 9.33452 14.205 9.33452C8.93487 9.33452 8.93487 16.7411 8.93487 24.4326V29.2754H0.198871Z" fill="#351C76"/>
</svg>
