<svg width="54" height="23" viewBox="0 0 94 23" fill="none" xmlns="http://www.w3.org/2000/svg">
<path d="M1.98477 21.9283L0.956469 9.97242L3.72624 9.7342L3.71287 16.5805L3.91213 16.5634C3.83378 11.4513 5.53891 9.33741 8.40832 9.09062C10.6799 8.89524 12.7977 10.1785 13.1353 14.104L13.7214 20.9188L11.0513 21.1485L10.58 15.6687C10.4069 13.6562 9.62465 11.7963 7.51245 11.978C4.06517 12.2745 4.19046 16.2986 4.44239 19.2278L4.65491 21.6986L1.98477 21.9283ZM21.6067 20.4815C17.6214 20.8243 14.8526 18.2722 14.5578 14.8448C14.263 11.4175 16.552 8.3902 20.5373 8.04743C24.4827 7.70809 27.275 10.2983 27.5697 13.7257C27.8645 17.153 25.592 20.1388 21.6067 20.4815ZM17.0087 14.634C17.2144 17.0252 19.1391 18.1645 21.3908 17.9708C23.6225 17.7788 25.3444 16.326 25.1387 13.9348C24.933 11.5436 22.9884 10.4061 20.7567 10.598C18.5249 10.79 16.8031 12.2429 17.0087 14.634ZM34.2273 19.3961C32.8125 19.5177 30.8625 19.4847 28.9845 18.4217L28.7377 15.5523L28.9769 15.5318C30.7565 17.085 32.9308 17.1589 34.1065 17.0578C35.2622 16.9584 36.6314 16.5395 36.52 15.2443C36.3195 12.9129 28.7172 15.3132 28.335 10.8696C28.1413 8.61793 30.2486 7.21218 32.9586 6.9791C34.8716 6.81457 36.6366 7.26497 37.8496 8.06398L38.0655 10.5747L37.8463 10.5936C36.6561 9.59187 34.8027 9.04868 33.0293 9.20122C31.7141 9.31433 30.5381 9.87718 30.6237 10.8735C30.826 13.2248 38.767 10.7954 39.1423 15.1593C39.3446 17.5106 37.5949 19.1064 34.2273 19.3961ZM46.8845 18.3074C42.8992 18.6502 40.1303 16.0981 39.8355 12.6707C39.5408 9.24339 41.8298 6.21611 45.8151 5.87334C49.7605 5.534 52.5527 8.12426 52.8475 11.5516C53.1423 14.979 50.8698 17.9647 46.8845 18.3074ZM42.2865 12.4599C42.4922 14.8511 44.4169 15.9904 46.6685 15.7967C48.9003 15.6048 50.6221 14.1519 50.4165 11.7607C50.2108 9.36952 48.2662 8.23198 46.0344 8.42393C43.8027 8.61588 42.0808 10.0688 42.2865 12.4599ZM57.963 17.3546C55.9105 17.5311 54.776 16.2436 54.6149 14.3705L53.9877 7.07745L52.5729 7.19913L52.4358 5.60502C54.0897 5.46277 54.4824 5.12788 54.3316 3.37435L56.384 3.19783L56.5554 5.19047L59.2853 4.95568L59.4499 6.86862L56.6942 6.80451L57.2547 13.3205C57.3421 14.3367 57.6742 14.9304 58.6904 14.843C59.3281 14.7882 59.6576 14.4186 59.8824 13.9978L60.0617 13.9824L60.2537 16.2141C59.7306 16.9015 58.9394 17.2706 57.963 17.3546ZM61.7641 16.7868L60.7358 4.83093L63.5055 4.59271L63.4922 11.439L63.6914 11.4219C63.5578 6.1339 65.2186 4.20449 67.9684 3.96798L68.2358 7.0765L68.0963 7.0885C67.4614 6.94236 66.8654 7.0137 66.3211 7.2211C64.2541 8.16169 63.9595 11.0375 64.1788 13.5881L64.4342 16.5571L61.7641 16.7868ZM75.8401 15.817C71.8548 16.1598 69.0859 13.6077 68.7911 10.1803C68.4964 6.75298 70.7854 3.7257 74.7707 3.38293C78.7161 3.04359 81.5083 5.63385 81.8031 9.0612C82.0979 12.4885 79.8254 15.4743 75.8401 15.817ZM71.2421 9.96953C71.4478 12.3607 73.3725 13.5 75.6241 13.3063C77.8559 13.1143 79.5777 11.6615 79.3721 9.27028C79.1664 6.87911 77.2218 5.74157 74.99 5.93352C72.7583 6.12546 71.0364 7.57836 71.2421 9.96953ZM88.4607 14.7316C87.0459 14.8532 85.0959 14.8202 83.2179 13.7572L82.9711 10.8878L83.2102 10.8673C84.9899 12.4205 87.1642 12.4944 88.3399 12.3933C89.4956 12.2939 90.8647 11.875 90.7533 10.5798C90.5528 8.24843 82.9505 10.6487 82.5684 6.20512C82.3747 3.95343 84.482 2.54768 87.192 2.3146C89.1049 2.15007 90.87 2.60048 92.0829 3.39948L92.2989 5.91021L92.0797 5.92906C90.8895 4.92737 89.0361 4.38419 87.2627 4.53672C85.9475 4.64983 84.7714 5.21268 84.8571 6.209C85.0593 8.56032 93.0004 6.13091 93.3757 10.4948C93.5779 12.8461 91.8282 14.4419 88.4607 14.7316Z" fill="white"/>
</svg>
