<svg width="50" height="50" viewBox="0 0 50 50" fill="none" xmlns="http://www.w3.org/2000/svg">
<path fill-rule="evenodd" clip-rule="evenodd" d="M25.0001 44.5651C26.2007 44.5651 27.174 43.5918 27.174 42.3912C27.174 41.9321 27.0317 41.5063 26.7888 41.1554C25.505 41.8994 24.9134 43.2119 24.663 43.7673C24.6565 43.7817 24.6502 43.7956 24.6442 43.809L23.5823 42.5997L24.1541 42.1827L24.6033 42.8916C25.4019 41.7427 26.2005 41.2855 26.7124 41.0516C26.3144 40.5437 25.6954 40.2173 25.0001 40.2173C23.7995 40.2173 22.8262 41.1906 22.8262 42.3912C22.8262 43.5918 23.7995 44.5651 25.0001 44.5651Z" fill="url(#paint0_linear_1551_8246)"/>
<path fill-rule="evenodd" clip-rule="evenodd" d="M25 50C38.8071 50 50 38.8071 50 25C50 11.1929 38.8071 0 25 0C11.1929 0 0 11.1929 0 25C0 38.8071 11.1929 50 25 50ZM5.43478 25.5006L39.1304 9.78261L35.8886 37.3141L25.4753 33.0092L22.3317 40.2174V31.9079L35.2992 14.3879L16.7322 30.1058L5.43478 25.5006Z" fill="url(#paint1_linear_1551_8246)"/>
<defs>
<linearGradient id="paint0_linear_1551_8246" x1="26.0684" y1="39.7825" x2="26.0684" y2="44.5651" gradientUnits="userSpaceOnUse">
<stop stop-color="#FF8272"/>
<stop offset="1" stop-color="#FF2D5F"/>
</linearGradient>
<linearGradient id="paint1_linear_1551_8246" x1="37.2857" y1="-5" x2="37.2857" y2="50" gradientUnits="userSpaceOnUse">
<stop stop-color="#FF8272"/>
<stop offset="1" stop-color="#FF2D5F"/>
</linearGradient>
</defs>
</svg>
