<svg width="260" height="52" viewBox="0 0 260 52" fill="none" xmlns="http://www.w3.org/2000/svg">
<path d="M27.288 51.816C11.104 51.816 0.972 40.868 0.972 27.268C0.972 13.736 11.172 2.584 27.288 2.584C43.268 2.584 53.536 13.736 53.536 27.268C53.536 40.868 43.472 51.816 27.288 51.816ZM9.744 27.2C9.744 37.06 17.564 42.432 27.22 42.432C36.808 42.432 44.696 37.06 44.696 27.2C44.696 17.272 36.74 12.104 27.22 12.104C17.7 12.104 9.744 17.272 9.744 27.2ZM59.0413 51V10.2H68.4933L66.4533 33.388H67.1333C68.3573 16.048 74.7493 9.384 84.5413 9.384C92.2933 9.384 99.0933 14.348 99.0933 27.744V51H89.9813V32.3C89.9813 25.432 87.8733 18.904 80.6653 18.904C68.9013 18.904 68.1533 32.572 68.1533 42.568V51H59.0413ZM119.877 51V3.4H129.193V44.336C129.805 43.044 131.573 43.044 132.865 43.044H153.537V51H119.877ZM158.319 51V12.376H158.591C159.679 13.396 161.379 13.872 162.943 13.872C164.507 13.872 166.207 13.396 167.295 12.376H167.567V51H158.319ZM157.299 6.12C157.299 3.264 159.543 0.883997 162.943 0.883997C166.343 0.883997 168.587 3.264 168.587 6.12C168.587 8.976 166.411 11.288 162.943 11.288C159.475 11.288 157.299 8.976 157.299 6.12ZM174.057 51V10.2H183.509L181.469 33.388H182.149C183.373 16.048 189.765 9.384 199.557 9.384C207.309 9.384 214.109 14.348 214.109 27.744V51H204.997V32.3C204.997 25.432 202.889 18.904 195.681 18.904C183.917 18.904 183.169 32.572 183.169 42.568V51H174.057ZM241.696 51.816C227.756 51.816 218.712 42.704 218.712 30.532C218.712 18.836 227.212 9.384 239.86 9.384C250.468 9.384 259.036 16.048 259.036 27.268C259.036 28.424 258.968 29.648 258.696 31.076L227.212 30.124C227.28 41.684 237.888 43.316 242.784 43.316C247.748 43.316 252.848 41.956 256.452 39.372H257.132V48.076C253.8 50.252 248.36 51.816 241.696 51.816ZM227.552 27.472L251.148 27.132C250.74 21.284 245.98 17.408 239.996 17.408C235.168 17.408 228.844 20.196 227.552 27.472Z" fill="white"/>
</svg>
