<svg width="32" height="32" viewBox="0 0 42 42" fill="none" xmlns="http://www.w3.org/2000/svg">
<path fill-rule="evenodd" clip-rule="evenodd" d="M41.3912 8.61954C41.3912 7.4843 40.9482 6.41368 40.1452 5.60147L36.5642 2.0204C35.7704 1.22666 34.6721 0.774414 33.5461 0.774414C32.4201 0.774414 31.3218 1.22666 30.528 2.0204L29.6604 2.88798C29.3005 3.24794 29.3005 3.8294 29.6604 4.18935C30.0204 4.5493 30.6019 4.5493 30.9618 4.18935L31.8294 3.32177C32.7247 2.41728 34.3491 2.41728 35.2536 3.32177L38.8346 6.90284C39.2961 7.36432 39.5453 7.96424 39.5453 8.61031C39.5453 9.25638 39.2961 9.86553 38.8346 10.3178L35.1982 13.9542C34.8382 14.3142 34.8382 14.9049 35.1982 15.2648L35.7335 15.8001C35.8073 15.874 35.8442 15.9663 35.8442 16.0678C35.8442 16.3816 35.4105 16.557 35.1889 16.3355L25.8025 6.94899C25.7286 6.87515 25.6917 6.78286 25.6917 6.68133C25.6917 6.36753 26.1255 6.19217 26.347 6.41368L32.4293 12.496C32.7893 12.8559 33.3707 12.8559 33.7307 12.496C34.0906 12.136 34.0906 11.5545 33.7307 11.1946L27.6576 5.11231C27.2423 4.69698 26.6701 4.45701 26.0794 4.45701C24.8518 4.45701 23.855 5.4538 23.855 6.68133C23.855 7.21665 24.0581 7.7335 24.4088 8.13037L3.81767 28.7308C3.45771 29.0907 3.45771 29.6722 3.81767 30.0321L9.3554 35.5699C9.54 35.7545 9.77073 35.8375 10.0107 35.8375C10.2507 35.8375 10.4814 35.7452 10.666 35.5699C11.026 35.2099 11.026 34.6284 10.666 34.2685L5.78356 29.3861L25.701 9.45943L32.7062 16.4647L12.3089 36.862L4.94367 38.7079L3.46694 37.2312L4.44528 33.3086C4.56526 32.8102 4.26991 32.3118 3.77152 32.1918C3.27312 32.0626 2.77473 32.3672 2.65474 32.8656L0.808829 40.24C0.725763 40.5538 0.818059 40.8861 1.0488 41.1168C1.22416 41.2922 1.46413 41.3845 1.7041 41.3845C1.77793 41.3845 1.85177 41.3845 1.92561 41.3568L13.0011 38.5879C13.1672 38.551 13.3149 38.4679 13.4256 38.348L34.0076 17.766C34.4137 18.1168 34.9305 18.3198 35.4566 18.3198C36.6841 18.3198 37.6809 17.323 37.6809 16.0955C37.6809 15.5602 37.4871 15.0433 37.1364 14.6372L40.1268 11.6468C40.9297 10.8439 41.3728 9.77324 41.3728 8.62877L41.3912 8.61954ZM26.3565 13.0401C25.9966 12.6801 25.4151 12.6801 25.0551 13.0401L9.35566 28.7303C8.99571 29.0903 8.99571 29.6717 9.35566 30.0317C9.54025 30.2163 9.77099 30.2993 10.011 30.2993C10.2509 30.2993 10.4817 30.2071 10.6663 30.0317L26.3565 14.3507C26.7165 13.9907 26.7165 13.4092 26.3565 13.0493V13.0401ZM13.4353 32.8096C13.2519 32.9839 13.0229 33.0761 12.7845 33.0773C12.5463 33.0762 12.3174 32.993 12.134 32.8096C11.774 32.4497 11.774 31.8682 12.134 31.5083L27.8242 15.818C28.1842 15.4581 28.7657 15.4581 29.1256 15.818C29.4856 16.178 29.4856 16.7594 29.1256 17.1194L13.4353 32.8096ZM12.7845 33.0773C12.783 33.0773 12.7815 33.0773 12.78 33.0773H12.7893C12.7877 33.0773 12.7861 33.0773 12.7845 33.0773Z" fill="#F3F3F4"/>
</svg>
