<svg width="35" height="36" viewBox="0 0 35 36" fill="none" xmlns="http://www.w3.org/2000/svg">
<path d="M25.378 19.8152C26.3386 15.761 23.8308 11.6957 19.7766 10.7351C15.7223 9.77444 11.657 12.2823 10.6964 16.3365C9.73577 20.3907 12.2436 24.456 16.2978 25.4167C20.3521 26.3773 24.4174 23.8694 25.378 19.8152Z" fill="#1686FA"/>
<path d="M17.8366 35.0948C8.3901 35.0948 0.714844 27.4102 0.714844 17.9731C0.714844 8.53599 8.39947 0.851379 17.8366 0.851379C27.2737 0.851379 34.9583 8.53599 34.9583 17.9731C34.9583 27.4102 27.2737 35.0948 17.8366 35.0948ZM17.8366 1.7698C8.90553 1.7698 1.63325 9.03268 1.63325 17.9731C1.63325 26.9135 8.89616 34.1764 17.8366 34.1764C26.777 34.1764 34.0399 26.9135 34.0399 17.9731C34.0399 9.03268 26.777 1.7698 17.8366 1.7698Z" fill="#1686FA"/>
</svg>
