<svg viewBox="0 0 21 21" fill="none" xmlns="http://www.w3.org/2000/svg">
<path d="M10 18C10.4 18 10.7 18 11.1 17.9C11.2 18.6 11.4 19.3 11.7 19.8C11.2 19.9 10.6 20 10 20C4.5 20 0 15.5 0 10C0 4.5 4.5 0 10 0C15.5 0 20 4.5 20 10C20 10.5 19.92 10.97 19.84 11.5L19.8 11.7C19.2 11.4 18.6 11.2 17.9 11.1C18 10.7 18 10.4 18 10C18 5.6 14.4 2 10 2C5.6 2 2 5.6 2 10C2 14.4 5.6 18 10 18ZM10.5 10.3L13.6 12.1C13.2 12.4 12.8 12.7 12.5 13.1L9 11V5H10.5V10.3ZM15.74 15.75L17 13L18.25 15.75L21 17L18.25 18.26L17 21L15.74 18.26L13 17L15.74 15.75Z" fill="white"/>
</svg>
