<svg width="310" height="46" viewBox="0 0 477 77" fill="none" xmlns="http://www.w3.org/2000/svg">
<g filter="url(#filter0_d_1373_11329)">
<path fill-rule="evenodd" clip-rule="evenodd" d="M333.038 56.8321C332.974 56.6838 332.9 56.5355 332.826 56.3872L332.825 56.3858V56.3646L306.513 4.88833L306.375 4.62266C306.343 4.56598 306.314 4.50931 306.284 4.45263C306.225 4.33928 306.166 4.22592 306.088 4.11257C306.067 4.08074 306.048 4.0489 306.03 4.01707C306.011 3.98514 305.993 3.95322 305.971 3.92129C305.94 3.86816 305.908 3.81502 305.865 3.76189C305.861 3.75706 305.858 3.75223 305.855 3.74741L305.85 3.74141L305.836 3.71934C305.817 3.69102 305.798 3.66269 305.769 3.63437C305.759 3.61311 305.748 3.60249 305.738 3.59186C305.695 3.51747 305.642 3.45371 305.578 3.37932C305.557 3.34744 305.533 3.31556 305.509 3.28368C305.485 3.2518 305.461 3.21992 305.44 3.18804C305.196 2.87986 304.93 2.60357 304.643 2.32727C304.636 2.31246 304.623 2.30281 304.613 2.29472L304.612 2.29453C304.608 2.29109 304.604 2.28792 304.601 2.28476C304.579 2.26882 304.561 2.25023 304.542 2.23163C304.523 2.21303 304.505 2.19443 304.484 2.17849C304.367 2.07223 304.25 1.96596 304.133 1.87032C303.835 1.64715 303.527 1.42399 303.208 1.22208C303.073 1.13441 302.937 1.06467 302.802 0.994936L302.802 0.994909C302.757 0.971671 302.712 0.948433 302.666 0.924532L302.156 0.690742C301.986 0.616355 301.806 0.541967 301.636 0.478206L301.306 0.382565H301.264L301.019 0.308177C300.956 0.286924 300.892 0.26567 300.828 0.255043L300.69 0.212536L300.435 0.148775L300.359 0.135924L300.359 0.135842C300.263 0.119282 300.175 0.104097 300.073 0.0956412L299.393 0.0212536C299.298 0.0212536 299.205 0.0159402 299.112 0.0106268C299.019 0.0053134 298.926 0 298.83 0H298.809C298.627 0 298.455 0.00958611 298.274 0.0196537L298.246 0.0212536C298.023 0.0425072 297.799 0.0637608 297.587 0.0956412C297.543 0.102417 297.499 0.108113 297.455 0.113762L297.455 0.1138C297.361 0.125856 297.27 0.137709 297.183 0.159402C296.79 0.23379 296.397 0.340058 296.003 0.478206C295.851 0.523017 295.699 0.590502 295.553 0.655165L295.553 0.655231L295.472 0.690742C295.433 0.707953 295.393 0.725164 295.353 0.742506L295.353 0.742527C295.219 0.800134 295.082 0.859195 294.951 0.924532L294.872 0.969095L294.87 0.970064L294.87 0.97049C294.722 1.05343 294.565 1.14152 294.431 1.22208L294.43 1.22227L294.43 1.22233C294.112 1.42416 293.793 1.626 293.506 1.87032C293.34 1.99516 293.173 2.15055 293.017 2.29661L293.007 2.30602C292.72 2.58231 292.454 2.86924 292.22 3.16679C291.859 3.61311 291.54 4.09132 291.275 4.62266L264.941 56.1839L264.846 56.3646C264.622 56.8003 264.442 57.2572 264.293 57.7142C264.264 57.8022 264.239 57.8903 264.213 57.9854C264.201 58.028 264.189 58.072 264.176 58.118C264.143 58.2165 264.123 58.315 264.101 58.4234L264.1 58.4294L264.096 58.4461L264.089 58.4814L264.081 58.5218C264.049 58.6706 264.027 58.7981 264.006 58.9362C263.964 59.2232 263.942 59.4995 263.921 59.797C263.91 59.9352 263.91 60.0839 263.91 60.2327C263.91 60.3815 263.91 60.5303 263.921 60.6684C263.942 60.9553 263.964 61.2316 264.006 61.5079C264.049 61.8586 264.134 62.2093 264.229 62.5494C264.272 62.7194 264.325 62.8788 264.378 63.0382C264.431 63.2082 264.495 63.3676 264.569 63.527C264.571 63.5303 264.572 63.5333 264.574 63.5361L264.575 63.54L264.576 63.5407L264.576 63.5427L264.577 63.543C264.579 63.5485 264.581 63.5526 264.583 63.5553C264.585 63.5577 264.587 63.5589 264.591 63.5589C264.665 63.7392 264.75 63.9089 264.834 64.0785L264.835 64.0796C265.111 64.6216 265.451 65.1423 265.834 65.6099C265.93 65.7268 266.025 65.833 266.132 65.9393C266.227 66.0456 266.323 66.1412 266.418 66.2369L266.567 66.3856C266.61 66.4175 266.642 66.4494 266.684 66.4919C266.705 66.5132 266.737 66.5344 266.758 66.5557C266.773 66.5677 266.787 66.5803 266.802 66.5932C266.851 66.6372 266.9 66.6846 266.95 66.7257C266.971 66.7469 266.992 66.7682 267.024 66.7788C267.024 66.7788 267.027 66.7788 267.032 66.7804C267.035 66.7818 267.04 66.7845 267.045 66.7895C267.13 66.8603 267.225 66.9312 267.319 67.0021L267.383 67.0499L267.421 67.0783L267.46 67.1083C267.481 67.1295 267.502 67.1401 267.524 67.1508C267.651 67.2464 267.779 67.3314 267.906 67.4058C267.927 67.4218 267.949 67.435 267.97 67.4483C267.991 67.4616 268.012 67.4749 268.034 67.4908C268.065 67.5077 268.095 67.5246 268.125 67.5413C268.208 67.5876 268.288 67.6324 268.374 67.6715C268.427 67.7034 268.48 67.7352 268.533 67.7565C268.681 67.8305 268.84 67.9046 268.999 67.9786L268.999 67.979L269 67.9793L269.001 67.9797C269.027 67.9903 269.054 68.0036 269.08 68.0169C269.107 68.0301 269.134 68.0434 269.16 68.054C269.362 68.1391 269.553 68.2134 269.755 68.2772C269.787 68.2879 269.82 68.2985 269.853 68.3092C269.92 68.3304 269.986 68.3516 270.042 68.3728C270.106 68.3924 270.165 68.4075 270.223 68.4222C270.29 68.4394 270.356 68.4562 270.425 68.4791C270.429 68.4744 270.434 68.4739 270.438 68.4747C270.439 68.475 270.441 68.4755 270.442 68.4761L270.443 68.4771L270.445 68.4783L270.446 68.4791C270.744 68.5429 271.052 68.6066 271.339 68.6385C271.53 68.6598 271.721 68.681 271.902 68.6917C271.982 68.6917 272.064 68.697 272.146 68.7023C272.229 68.7076 272.311 68.7129 272.391 68.7129H325.323C325.461 68.7129 325.61 68.7023 325.737 68.6917H325.897C325.95 68.6917 326.003 68.681 326.056 68.6704C326.184 68.6598 326.311 68.6385 326.439 68.6173C326.587 68.6173 326.747 68.5854 326.896 68.5429C327.193 68.4897 327.469 68.4047 327.746 68.3197C327.926 68.2666 328.096 68.2028 328.266 68.1391L328.267 68.1389C328.32 68.1177 328.373 68.0965 328.415 68.0753L328.415 68.0752C328.639 67.9902 328.862 67.9052 329.074 67.799L329.138 67.7671L329.138 67.7668C329.255 67.7032 329.372 67.6395 329.478 67.5758C329.499 67.5652 329.518 67.5546 329.536 67.544L329.537 67.5436L329.56 67.5304C329.571 67.5243 329.583 67.5182 329.595 67.5121L329.596 67.5114C329.712 67.4373 329.829 67.3631 329.935 67.2889C330.094 67.1826 330.243 67.0764 330.392 66.9595C333.452 64.6322 334.589 60.4559 333.017 56.8428L333.038 56.8321ZM286.269 51.7632L298.851 27.1409L311.423 51.7632H286.269ZM381.953 9.16014C381.953 13.8466 378.148 17.651 373.462 17.651H364.982V60.0625C364.982 64.7489 361.177 68.5533 356.502 68.5533C354.153 68.5533 352.028 67.6075 350.497 66.0667C348.967 64.5258 348.011 62.411 348.011 60.0625V17.651H339.531C334.844 17.651 331.04 13.8466 331.04 9.16014C331.04 6.81162 331.986 4.69689 333.526 3.16663C335.067 1.63637 337.182 0.679955 339.531 0.679955H373.462C378.148 0.679955 381.953 4.48435 381.953 9.16014ZM243.134 62.38C244.303 66.9176 248.915 69.6593 253.453 68.501H253.443C257.98 67.332 260.722 62.7094 259.564 58.1717L246.439 6.85492C245.494 3.16742 242.263 0.659494 238.629 0.489465C238.331 0.457584 238.012 0.457584 237.704 0.489465C234.08 0.648867 230.829 3.15679 229.883 6.85492L224.697 27.184L219.5 6.85492C218.555 3.16742 215.324 0.659494 211.69 0.489465C211.392 0.457584 211.073 0.457584 210.765 0.489465C207.142 0.648867 203.89 3.15679 202.944 6.85492L189.83 58.1717C188.672 62.72 191.414 67.3427 195.952 68.501C200.5 69.6593 205.122 66.9176 206.281 62.38L211.233 42.9967L216.185 62.38C217.205 66.3119 220.808 68.9048 224.708 68.756C228.618 68.8942 232.221 66.3119 233.23 62.38L238.182 42.9967L243.134 62.38ZM54.8918 21.6472C54.8918 23.0925 54.7536 24.5165 54.4667 25.8873C52.5113 35.5684 43.9568 42.8583 33.6913 42.8583H20.971V60.5095C20.971 65.1959 17.1666 69.0003 12.4802 69.0003C7.79377 69.0003 4 65.1959 4 60.5095V8.92697C4 7.75802 4.23379 6.6422 4.66949 5.62203C4.77576 5.36699 4.89265 5.12257 5.0308 4.88878C5.13707 4.68687 5.24334 4.50622 5.37086 4.32556C5.44524 4.19804 5.53026 4.08114 5.6259 3.95362C5.72154 3.81547 5.82781 3.6667 5.93408 3.53918C6.10411 3.32664 6.29539 3.12473 6.48667 2.93345C6.67795 2.74217 6.87986 2.55088 7.0924 2.38086C7.2518 2.25333 7.4112 2.12581 7.58123 2.00892C7.67687 1.93453 7.77251 1.87077 7.87878 1.80701C8.02621 1.70294 8.18072 1.61303 8.33075 1.52572C8.36456 1.50604 8.39815 1.4865 8.43138 1.46695C8.66517 1.33943 8.90958 1.21191 9.16463 1.10564C10.1742 0.669941 11.29 0.436151 12.4589 0.436151H33.67C43.9249 0.436151 52.4795 7.72614 54.4454 17.4072C54.7323 18.778 54.8705 20.1914 54.8705 21.6472H54.8918ZM96.2727 64.9925C98.8656 68.8926 104.136 69.9659 108.037 67.3729L108.026 67.3836C111.926 64.78 112.989 59.5197 110.396 55.6197L100.109 40.1364C105.603 37.2141 109.662 31.9432 110.927 25.6521C111.214 24.2813 111.352 22.8679 111.352 21.412C111.352 19.9561 111.214 18.5428 110.927 17.1719C108.961 7.49091 100.406 0.200924 90.1516 0.200924H68.9405C67.7078 0.200924 66.5495 0.466594 65.4974 0.934173C65.338 0.997934 65.1893 1.06169 65.0405 1.14671L64.9697 1.18399C64.8104 1.26769 64.6451 1.35453 64.4879 1.46551C64.2925 1.56787 64.1215 1.69468 63.9464 1.82452L63.9464 1.82455L63.8715 1.87996C63.7653 1.95432 63.6591 2.03931 63.5528 2.1243L63.5527 2.12437C63.3296 2.29439 63.1383 2.48566 62.947 2.67693L62.947 2.67697C62.7557 2.86825 62.5644 3.07016 62.3944 3.2827C61.7037 4.11159 61.1723 5.07863 60.8323 6.15193C60.5772 6.94894 60.4497 7.79909 60.4497 8.68111V60.2636C60.4497 64.95 64.2647 68.7544 68.9405 68.7544C73.6163 68.7544 77.4207 64.95 77.4207 60.2636V42.6125H81.4058L96.2727 64.9925ZM128.971 0.191122H125.56C121.815 0.191122 118.78 3.22659 118.78 6.97102V61.9647C118.78 65.7092 121.815 68.7446 125.56 68.7446H128.971C132.716 68.7446 135.751 65.7092 135.751 61.9647V6.97102C135.751 3.22659 132.716 0.191122 128.971 0.191122ZM393.812 0.191122H397.223C400.967 0.191122 404.003 3.22659 404.003 6.97102V61.9647C404.003 65.7092 400.967 68.7446 397.223 68.7446H393.812C390.067 68.7446 387.032 65.7092 387.032 61.9647V6.97102C387.032 3.22659 390.067 0.191122 393.812 0.191122ZM472.292 50.3602C472.292 52.1137 471.761 53.7502 470.847 55.1104C470.766 55.2277 470.679 55.3377 470.591 55.4489L470.591 55.4491C470.527 55.5294 470.463 55.6103 470.4 55.6949C470.378 55.7245 470.355 55.7535 470.331 55.7823C470.31 55.8076 470.288 55.8327 470.267 55.8579C470.207 55.9281 470.146 55.9994 470.092 56.0775C463.801 63.8563 454.184 68.8296 443.408 68.8296C424.45 68.8296 409.094 53.4526 409.094 34.5157V34.4626V34.0269C409.349 15.3024 424.609 0.191122 443.408 0.191122C454.194 0.191122 463.812 5.16446 470.092 12.9433C470.209 13.0708 470.305 13.1877 470.4 13.3258C470.482 13.421 470.559 13.5205 470.637 13.6215L470.639 13.6239C470.683 13.6801 470.727 13.7368 470.772 13.7934C470.782 13.806 470.789 13.8177 470.796 13.8289C470.801 13.8367 470.805 13.8443 470.809 13.8519C470.82 13.8705 470.831 13.8891 470.847 13.9103C471.761 15.2599 472.292 16.8965 472.292 18.6605C472.292 23.3469 468.487 27.1513 463.801 27.1513C461.197 27.1513 458.87 25.9824 457.308 24.1333C457.202 24.0058 457.096 23.8783 457 23.7401C453.822 19.7338 448.913 17.1728 443.408 17.1728C433.918 17.1728 426.193 24.8028 426.065 34.2713V34.3669V34.5263V34.7388C426.182 44.218 433.908 51.8693 443.419 51.8693C448.934 51.8693 453.833 49.3082 457.01 45.3019L457.012 45.2997C457.118 45.1623 457.224 45.025 457.319 44.9087C458.881 43.0703 461.219 41.8907 463.812 41.8907C468.498 41.8907 472.302 45.6951 472.302 50.3815L472.292 50.3602ZM162.616 68.5753C174.306 69.3936 184.422 60.5946 185.241 48.9051L185.251 48.8945C186.048 37.375 177.483 27.3539 166.038 26.3019L166.01 26.2981C165.861 26.2782 165.72 26.2594 165.57 26.2594C165.411 26.2381 165.252 26.2381 165.103 26.2381H164.975H164.603C162.266 26.2381 160.363 24.3359 160.363 21.998C160.363 19.6601 162.255 17.7579 164.603 17.7579C166.506 17.7579 168.11 19.0119 168.652 20.7441C169.63 24.3466 172.924 26.9926 176.835 26.9926C181.521 26.9926 185.315 23.1882 185.315 18.5018C185.315 17.8111 185.23 17.131 185.071 16.4827C185.028 16.2914 184.975 16.1108 184.922 15.9301C182.308 7.18428 174.199 0.797568 164.603 0.797568C152.893 0.797568 143.382 10.468 143.382 22.0299C143.382 33.5919 152.627 42.986 164.125 43.2304H164.412C166.729 43.411 168.472 45.4301 168.312 47.7361C168.142 50.074 166.123 51.8381 163.785 51.6787C161.883 51.5405 160.374 50.1697 159.959 48.4056C159.216 44.7394 156.123 41.8808 152.223 41.6045C147.547 41.2751 143.499 44.8032 143.169 49.4789C143.127 50.1803 143.159 50.8498 143.275 51.5087C143.294 51.5936 143.311 51.6764 143.328 51.758C143.348 51.8603 143.369 51.9608 143.392 52.0613C145.39 60.9771 153.041 67.9058 162.616 68.5753Z" fill="white"/>
</g>
<defs>
<filter id="filter0_d_1373_11329" x="0" y="0" width="476.303" height="77" filterUnits="userSpaceOnUse" color-interpolation-filters="sRGB">
<feFlood flood-opacity="0" result="BackgroundImageFix"/>
<feColorMatrix in="SourceAlpha" type="matrix" values="0 0 0 0 0 0 0 0 0 0 0 0 0 0 0 0 0 0 127 0" result="hardAlpha"/>
<feOffset dy="4"/>
<feGaussianBlur stdDeviation="2"/>
<feComposite in2="hardAlpha" operator="out"/>
<feColorMatrix type="matrix" values="0 0 0 0 0 0 0 0 0 0 0 0 0 0 0 0 0 0 0.25 0"/>
<feBlend mode="normal" in2="BackgroundImageFix" result="effect1_dropShadow_1373_11329"/>
<feBlend mode="normal" in="SourceGraphic" in2="effect1_dropShadow_1373_11329" result="shape"/>
</filter>
</defs>
</svg>
