<svg width="268" height="47" viewBox="0 0 268 47" fill="none" xmlns="http://www.w3.org/2000/svg">
<circle cx="77.5" cy="23.5" r="23.5" fill="#D9D9D9"/>
<path d="M71 14.8325V32.1848C71 33.7977 72.8112 34.7472 74.1377 33.8297L86.6314 25.1879C87.7785 24.3945 87.7816 22.7002 86.6375 21.9025L74.1438 13.1919C72.8179 12.2675 71 13.2162 71 14.8325Z" stroke="#21144F" stroke-width="2"/>
<circle cx="23.5" cy="23.5" r="23.5" fill="#D9D9D9"/>
<rect x="128.233" y="12.9666" width="7.05" height="21.9333" rx="3.525" fill="#D9D9D9"/>
<rect x="139" y="1.99991" width="7.05" height="43.0833" rx="3.525" fill="#D9D9D9"/>
<rect x="150" y="6.69971" width="7.05" height="34.4667" rx="3.525" fill="#D9D9D9"/>
<rect x="161" y="2" width="7.05" height="43.0833" rx="3.525" fill="#D9D9D9"/>
<rect x="172" y="6.69971" width="7.05" height="34.4667" rx="3.525" fill="#D9D9D9"/>
<rect x="238" y="6.69971" width="7.05" height="34.4667" rx="3.525" fill="#D9D9D9"/>
<rect x="249" y="2" width="7.05" height="43.0833" rx="3.525" fill="#D9D9D9"/>
<rect x="260" y="6.69971" width="7.05" height="34.4667" rx="3.525" fill="#D9D9D9"/>
<rect x="205" y="6.69971" width="7.05" height="34.4667" rx="3.525" fill="#D9D9D9"/>
<rect x="227" y="10.6499" width="7" height="24" rx="3.5" fill="#D9D9D9"/>
<rect x="183" y="9.0499" width="7.05" height="28.9833" rx="3.525" fill="#D9D9D9"/>
<rect x="194" y="9.0499" width="7.05" height="28.9833" rx="3.525" fill="#D9D9D9"/>
<rect x="216" y="15.3166" width="7.05" height="16.45" rx="3.525" fill="#D9D9D9"/>
<path d="M12 26.7767V25.6091C12.0708 25.4009 12.0558 25.1807 12.0858 24.9664C12.411 22.6444 13.4585 20.7213 15.3023 19.2681C17.143 17.816 19.2609 17.2382 21.5888 17.4308C24.0031 17.6306 26.0016 18.6554 27.5825 20.4939C27.6383 20.5587 27.6773 20.6457 27.7751 20.6703C27.8261 20.5917 27.8039 20.5071 27.8045 20.4279C27.8069 19.9563 27.8063 19.4847 27.8057 19.013C27.8045 18.1982 28.0541 17.4662 28.5509 16.8236C28.6643 16.6766 28.7063 16.529 28.7057 16.349C28.7009 15.2785 28.7201 14.2081 28.6967 13.1382C28.6847 12.5928 28.8689 12.2094 29.3806 12.0006H29.83C30.3412 12.2094 30.5344 12.5916 30.5134 13.137C30.487 13.8241 30.5062 14.5135 30.508 15.2011C30.5086 15.4873 30.5254 15.5029 30.8002 15.4579C31.2028 15.3919 31.6035 15.3925 32.0061 15.4579C32.2797 15.5023 32.2947 15.4879 32.2953 15.1981C32.2965 14.5027 32.3133 13.8061 32.2905 13.1112C32.2731 12.5742 32.4657 12.198 32.9739 12H33.4233C33.932 12.198 34.1174 12.5748 34.1072 13.1118C34.0868 14.1967 34.1024 15.2821 34.1 16.3676C34.1 16.5212 34.1228 16.6556 34.2248 16.784C34.7582 17.453 35.003 18.2204 35.0006 19.0754C34.9958 21.0963 34.997 23.1172 35.0006 25.1381C35.0012 25.6325 34.9814 26.1251 34.9142 26.6153C34.5728 29.1204 33.4563 31.2055 31.5034 32.8153C29.7004 34.301 27.6035 34.9946 25.2756 34.9964C21.2414 34.9994 17.2078 34.9898 13.1735 35C12.6096 35.0012 12.1926 34.8422 12.0006 34.277V33.9176C12.192 33.3523 12.6084 33.1759 13.1729 33.1957C13.8005 33.2179 14.4299 33.2017 15.0581 33.1987C15.1349 33.1987 15.2225 33.2275 15.2891 33.1585C15.2825 33.1405 15.2819 33.1231 15.2723 33.1141C15.2123 33.0577 15.1517 33.0025 15.0893 32.9491C13.5923 31.6717 12.6372 30.0708 12.2136 28.1484C12.1134 27.6947 12.0882 27.2309 12 26.7767ZM25.4076 20.8431C25.167 20.6265 24.9354 20.4579 24.6924 20.3043C23.2807 19.4115 21.7382 19.0712 20.0816 19.2285C18.0957 19.4175 16.453 20.2659 15.2315 21.8499C14.0771 23.3476 13.6535 25.0679 13.8371 26.9405C14.0327 28.935 14.8901 30.5886 16.4998 31.7899C18.3939 33.2029 20.5262 33.5251 22.7875 32.9221C26.1696 32.0203 28.0847 28.8312 27.7517 25.6289C27.6269 24.4288 27.0029 23.5012 25.9062 22.957C23.6485 21.8361 20.8946 23.4958 20.8046 26.0147C20.7824 26.6351 20.9684 27.1727 21.4586 27.5675C22.0178 28.0182 22.6507 28.1196 23.3125 27.8291C24.0013 27.5267 24.3427 26.9669 24.3913 26.2247C24.4291 25.6505 24.8046 25.2761 25.3308 25.2953C25.8426 25.3145 26.208 25.7141 26.19 26.2775C26.1522 27.4601 25.647 28.4082 24.696 29.1096C23.1937 30.2172 21.0254 29.9388 19.8417 28.4958C19.1409 27.6407 18.9159 26.6633 19.0407 25.5755C19.3803 22.6186 22.0922 20.4771 25.053 20.8413C25.152 20.8533 25.2528 20.8959 25.407 20.8437L25.4076 20.8431ZM26.4402 33.0733C26.5146 33.1171 26.5734 33.0955 26.6316 33.0859C29.8156 32.5789 32.3775 30.123 33.0177 26.9639C33.1323 26.3975 33.1917 25.8245 33.1923 25.2473C33.1941 23.1886 33.1977 21.1299 33.1911 19.0718C33.1875 17.8496 32.1465 17.0006 30.997 17.2688C30.1594 17.4638 29.6104 18.1718 29.6086 19.0778C29.605 21.3759 29.6074 23.674 29.6068 25.9721C29.6068 26.3387 29.6038 26.7047 29.5672 27.0707C29.3338 29.3862 28.3577 31.3225 26.622 32.8741C26.5578 32.9317 26.4648 32.9641 26.4396 33.0733H26.4402Z" fill="#21144F"/>
</svg>
