<svg width="620" height="161" viewBox="0 0 620 161" fill="none" xmlns="http://www.w3.org/2000/svg">
<g clip-path="url(#clip0_1324_7662)">
<path d="M47.9847 27.6508H31.7178V10.0283H85.7652V27.6508H69.4104V73.2886H47.9847V27.6508Z" fill="#7974F5"/>
<path d="M88.916 5.50977H110.342L106.903 49.8924H107.806C110.241 26.4836 115.212 17.9861 127.876 17.9861C138.181 17.9861 144.595 24.5883 144.595 42.3865V73.3012H123.446V54.047C123.446 46.8172 123.169 40.2151 117.659 40.2151C110.881 40.2151 110.066 48.9761 110.066 62.0926V73.3012H88.916V5.50977Z" fill="#7974F5"/>
<path d="M147.293 46.0895C147.293 30.5505 158.502 17.9863 175.308 17.9863C189.14 17.9863 200.889 26.0319 200.889 40.9433C200.889 43.1147 200.612 45.374 200.161 47.809L166.723 46.2777C167.451 52.6038 173.137 55.0513 179.827 55.0513C186.517 55.0513 192.391 53.156 197.186 49.7169H198.366V69.6866C194.123 72.3099 186.705 74.3809 177.856 74.3809C159.33 74.3809 147.306 61.9924 147.306 46.0895H147.293ZM182.726 40.5793C181.823 37.8681 179.199 36.2364 175.584 36.2364C172.246 36.2364 168.982 37.8681 167.451 41.3826L182.726 40.5667V40.5793Z" fill="#7974F5"/>
<path d="M0 55.5658L2.27185 43.7798H0.100413V38.4328H3.32619L3.99142 35.069H1.41834V29.722H5.02066L7.15444 18.7393H13.7315L11.5475 29.722H15.3883L17.5723 18.7393H24.1117L21.9779 29.722H24.1117V35.069H20.9361L20.2709 38.4328H22.7812V43.7798H19.2291L16.9071 55.5658H10.3677L12.6897 43.7798H8.81126L6.53941 55.5658H0ZM9.8907 38.4328H13.7315L14.3465 35.069H10.5057L9.8907 38.4328Z" fill="#7974F5"/>
<path d="M271.291 30.4254C257.271 30.5132 253.932 14.8111 262.404 5.56056C269.044 -1.35539 281.182 -2.09594 288.098 4.93298C296.507 13.33 296.783 26.4967 294.825 37.4543C291.725 56.6583 275.044 94.5266 250.493 86.8576C236.071 82.4645 239.36 62.5827 249.677 55.4534C253.493 52.6041 258.338 51.349 262.932 51.5875C263.748 51.5875 264.4 52.2778 264.35 53.0937C264.312 53.8844 263.647 54.4869 262.856 54.4492C256.555 54.148 250.254 53.7589 243.954 53.3949C237.653 53.0058 231.352 52.579 225.051 52.1021C237.678 51.7632 250.305 51.6251 262.932 51.6126L262.856 54.4618C258.79 54.4618 254.873 55.7923 251.798 58.2649C244.179 63.9383 240.929 80.1174 252.564 82.7406C269.935 86.6944 282.085 62.407 286.868 48.8135C290.056 39.0233 292.754 28.4171 290.558 18.1875C288.675 7.732 279.952 0.326528 269.258 4.3054C256.191 9.18799 255.689 29.0698 271.279 30.4505L271.291 30.4254Z" fill="#81E9C0"/>
<path d="M271.291 32.3082L238.632 30.4255L271.291 28.5427C273.915 28.48 273.927 32.371 271.291 32.3082Z" fill="#81E9C0"/>
<path d="M225.064 52.0766C230.134 52.2021 234.013 56.4697 236.122 60.7624C240.452 69.7619 240.54 81.1839 234.415 89.5433C229.595 95.9697 221.26 98.3671 213.566 98.0407C205.219 98.0031 197.463 93.2084 194.952 84.9996C189.63 66.7369 200.061 43.8427 209.663 28.5799C217.144 17.4968 229.494 1.78216 244.142 1.84491C249.627 1.95788 254.798 5.96185 255.89 11.3591C258.313 22.0656 249.376 31.881 238.619 30.4376C243.439 30.4376 248.209 28.467 251.008 24.7768C253.832 21.1619 254.811 16.1914 253.506 11.9992C252.288 7.73164 248.422 5.02048 244.042 5.13345C231.226 5.87399 220.244 20.9485 213.667 31.1279C205.094 45.1858 195.053 67.0256 199.446 83.5185C201.266 90.0956 207.215 93.6226 213.78 93.8485C220.394 94.4133 227.486 92.7188 231.854 87.4974C237.665 80.4433 238.117 69.7493 234.854 61.3397C233.147 57.0596 229.934 52.7544 225.051 52.0892L225.064 52.0766Z" fill="#81E9C0"/>
<path d="M285.148 83.1045H333.41V100.727H306.562V108.045C307.377 106.513 308.909 106.237 310.904 106.237H331.238V122.78H310.904C309.373 122.78 307.377 122.692 306.562 120.973V128.742H333.949V146.365H285.148V83.1045Z" fill="#7974F5"/>
<path d="M337.112 92.1418H358.538L355.099 122.956H356.003C358.438 99.5473 363.408 91.0498 376.073 91.0498C386.378 91.0498 392.791 97.652 392.791 115.45V146.365H371.642V127.111C371.642 120.057 371.366 113.279 365.856 113.279C358.99 113.279 358.262 121.864 358.262 135.156V146.365H337.112V92.1418Z" fill="#7974F5"/>
<path d="M396.758 146.641C396.758 141.043 401.1 137.516 409.322 137.516V136.7C398.753 136.7 395.038 133.625 395.038 129.019C395.038 123.772 400.636 121.513 408.958 121.513C411.493 121.513 414.292 121.789 417.719 122.417L417.807 121.425C401.803 120.797 397.109 114.107 397.109 107.33C397.109 98.1166 406.598 91.0626 423.229 91.0626C431.363 91.0626 440.939 93.5981 447.818 100.916L448.27 100.376C442.759 91.163 427.396 87.3599 416.188 86.7323V84.9249L437.337 77.5068C446.55 84.1969 451.797 94.7654 451.797 103.087C451.797 117.911 441.944 125.316 424.145 125.316C418.183 125.316 415.284 125.14 413.665 125.14C410.778 125.14 409.146 125.504 409.146 127.036C409.146 128.391 410.866 128.567 412.849 128.567C418.547 128.567 428.3 125.58 438.241 125.58C451.972 125.58 454.144 134.793 454.144 141.031C454.144 149.704 448.897 161 424.861 161C404.163 161 396.758 154.31 396.758 146.629V146.641ZM424.773 142.474C431.011 142.474 437.061 141.395 437.061 137.868C437.061 135.521 433.898 134.793 429.743 134.793C423.505 134.793 414.744 136.424 411.217 136.512C411.217 141.483 417.995 142.474 424.773 142.474ZM423.769 114.911C427.923 114.911 430.271 113.191 430.271 110.932C430.271 108.497 427.923 106.865 423.769 106.865C419.614 106.865 417.267 108.497 417.267 110.932C417.267 113.191 419.526 114.911 423.769 114.911Z" fill="#7974F5"/>
<path d="M456.667 78.5859H477.992V146.365H456.667V78.5859Z" fill="#7974F5"/>
<path d="M492.363 77.4941C499.505 77.4941 504.287 82.5525 504.287 88.6149C504.287 94.6773 499.681 99.6352 492.363 99.6352C485.046 99.6352 480.339 94.6648 480.339 88.6149C480.339 82.565 485.134 77.4941 492.363 77.4941ZM481.607 97.9157H482.335C484.87 100.351 488.661 101.531 492.363 101.531C496.066 101.531 499.769 100.351 502.304 97.9157H503.032V146.365H481.607V97.9157Z" fill="#7974F5"/>
<path d="M564.033 78.5859H585.459L582.02 122.969H582.923C585.358 99.5597 590.329 91.0623 602.994 91.0623C613.298 91.0623 619.712 97.6644 619.712 115.463V146.377H598.563V127.123C598.563 119.893 598.287 113.291 592.776 113.291C585.999 113.291 585.183 122.052 585.183 135.169V146.377H564.033V78.5985V78.5859Z" fill="#7974F5"/>
<path d="M279.839 46.2777C279.839 30.7388 291.499 17.9863 309.938 17.9863C328.376 17.9863 339.949 30.7262 339.949 46.2777C339.949 61.8292 328.564 74.3809 309.938 74.3809C291.311 74.3809 279.839 61.8167 279.839 46.2777ZM309.938 54.4991C316.088 54.4991 321.058 51.9636 321.058 46.2777C321.058 40.5918 316.088 38.0564 309.938 38.0564C303.787 38.0564 298.905 40.5918 298.905 46.2777C298.905 51.9636 303.787 54.4991 309.938 54.4991Z" fill="#7974F5"/>
<path d="M342.647 49.9801V19.0654H363.797V38.3197C363.797 45.5494 364.073 52.1516 370.123 52.1516C373.65 52.1516 377.177 50.5199 377.177 33.9893V19.078H398.327V73.3011H376.901L380.34 42.4868H379.436C377.001 65.8956 372.018 74.3931 359.366 74.3931C349.061 74.3931 342.647 67.7909 342.647 49.9927V49.9801Z" fill="#7974F5"/>
<path d="M401.84 69.6866V47.809H403.196C410.79 55.4028 419.099 56.3944 424.258 56.3944C427.509 56.3944 429.592 55.6664 429.592 54.4112C429.592 50.9721 401.037 54.5869 401.037 35.2448C401.037 23.4965 412.698 17.9863 425.174 17.9863C434.211 17.9863 441.981 20.7853 446.863 23.4086V42.6629H445.683C440.437 38.0564 432.128 34.9813 424.082 34.9813C420.555 34.9813 418.383 35.6088 418.383 37.1527C418.383 41.3952 450.014 37.3284 450.014 55.7668C450.014 68.8707 438.805 74.3809 423.618 74.3809C417.655 74.3809 409.786 73.6529 401.84 69.6866Z" fill="#7974F5"/>
<path d="M451.809 46.0895C451.809 30.5505 463.017 17.9863 479.824 17.9863C493.656 17.9863 505.404 26.0319 505.404 40.9433C505.404 43.1147 505.128 45.374 504.676 47.809L471.239 46.2777C471.967 52.6038 477.652 55.0513 484.342 55.0513C491.033 55.0513 496.907 53.156 501.701 49.7169H502.881V69.6866C498.639 72.3099 491.221 74.3809 482.372 74.3809C463.846 74.3809 451.821 61.9924 451.821 46.0895H451.809ZM487.242 40.5793C486.338 37.8681 483.715 36.2364 480.1 36.2364C476.761 36.2364 473.498 37.8681 471.967 41.3826L487.242 40.5667V40.5793Z" fill="#7974F5"/>
<path d="M223.319 117.785C223.319 109.639 229.432 102.962 239.097 102.962C248.762 102.962 254.824 109.639 254.824 117.785C254.824 125.931 248.862 132.521 239.097 132.521C229.332 132.521 223.319 125.931 223.319 117.785ZM239.097 122.091C242.323 122.091 244.921 120.76 244.921 117.785C244.921 114.811 242.31 113.48 239.097 113.48C235.884 113.48 233.323 114.811 233.323 117.785C233.323 120.76 235.884 122.091 239.097 122.091Z" fill="#7974F5"/>
<path d="M257.046 110.204H254.824V103.526H257.046C257.046 96.9369 262.443 95.8574 267.188 95.8574C268.606 95.8574 270.225 96.0457 271.593 96.3846V101.405C270.978 101.267 270.363 101.217 269.698 101.217C268.091 101.217 266.384 101.782 266.246 103.539H271.593V110.832L268.142 110.217V131.956H257.058V110.217L257.046 110.204Z" fill="#7974F5"/>
<path d="M550.466 101.744C565.866 101.28 574.879 119.304 572.017 132.973C568.113 153.708 544.039 160.674 525.551 159.871C511.568 159.231 494.774 155.578 486.264 143.303C480.289 134.353 484.042 121.463 492.866 115.877C504.953 108.158 521.973 109.401 534.5 115.262C538.454 117.308 543.349 120.572 543.273 125.53C543.135 123.157 541.592 121.237 539.847 119.831C534.399 115.676 527.333 114.195 520.643 113.555C508.405 112.476 491.661 115.488 488.297 129.182C484.946 143.24 500.974 150.67 512.384 153.193C528.563 156.745 550.528 156.055 562.842 143.667C568.979 137.278 571.113 127.751 568.891 119.178C566.808 110.53 559.93 102.183 550.441 101.744H550.466Z" fill="#BDF7A3"/>
<path d="M509.747 108.02C494.685 103.187 496.292 89.0418 506.797 80.0046C515.96 72.1974 528.449 69.9005 540.122 70.7791C548.783 71.6577 558.699 74.4567 564.083 82.0254C571.1 91.8157 563.995 101.983 552.812 101.97C546.837 102.02 541.289 99.9868 536.444 97.1125C541.729 98.9827 547.314 100.225 552.624 99.5098C566.066 97.6396 565.614 85.5775 554.807 79.9293C541.427 73.1263 521.521 74.1053 509.27 83.0295C499.266 90.8115 497.333 101.418 509.747 108.02Z" fill="#BDF7A3"/>
</g>
<defs>
<clipPath id="clip0_1324_7662">
<rect width="619.7" height="161" fill="white"/>
</clipPath>
</defs>
</svg>
