<svg width="306" height="121" viewBox="0 0 306 121" fill="none" xmlns="http://www.w3.org/2000/svg">
<g filter="url(#filter0_di_1180_8363)">
<path fill-rule="evenodd" clip-rule="evenodd" d="M146.988 65.1367C144.492 76.4617 144.832 87.2887 149.5 94.3713L149.501 94.3663C151.82 97.8722 155.328 100.633 159.814 102.561C159.444 102.927 159.053 103.288 158.642 103.644C156.648 105.346 154.259 106.885 151.478 108.267C148.698 109.654 145.213 110.726 141.032 111.498C136.847 112.271 132.154 112.652 126.943 112.652C120.236 112.652 114.386 112.139 109.394 111.112C104.402 110.086 100.475 108.663 97.6133 106.845C94.7569 105.031 92.6412 102.993 91.2815 100.743C89.9219 98.4918 89.242 96.0174 89.242 93.3348C89.242 89.5039 90.7032 86.5012 93.6204 84.3266C96.5427 82.1572 100.703 81.0699 106.111 81.0699V80.0029C93.3262 80.0029 86.9336 76.5633 86.9336 69.689C86.9336 66.2951 88.6027 63.7649 91.936 62.1035C95.2693 60.4421 99.8405 59.6139 105.64 59.6139C109.074 59.6139 112.981 60.0102 117.359 60.7977L117.476 59.492C113.336 59.3345 109.632 58.8569 106.38 58.0694C103.123 57.2818 100.475 56.2911 98.4199 55.1073C96.3703 53.9235 94.6757 52.5212 93.3312 50.9004C91.9868 49.2797 91.0532 47.6335 90.5205 45.9518C89.9878 44.2751 89.7189 42.4664 89.7189 40.5306C89.7189 34.1695 92.8391 28.9414 99.0744 24.8514C105.31 20.7614 113.874 18.719 124.767 18.719C130.799 18.719 136.73 19.7758 142.549 21.8894C148.373 24.008 153.432 27.3563 157.734 31.9391L158.383 31.2278C156.608 28.2606 154.056 25.6136 150.717 23.2815C147.384 20.9545 143.686 19.0848 139.622 17.6825C135.553 16.2853 131.489 15.1828 127.425 14.3953C123.361 13.6078 119.313 13.0946 115.289 12.8558V10.4221L143.701 0.463867C149.698 4.8079 154.421 10.1732 157.876 16.5546C160.621 21.6252 162.27 26.5128 162.833 31.2227C156.45 39.3112 151.164 49.9503 148.155 60.5386C142.346 63.3228 134.964 64.7201 125.999 64.7201C122.844 64.7201 119.764 64.6794 116.766 64.6032C113.762 64.527 112.149 64.4863 111.91 64.4863C109.82 64.4863 108.293 64.6642 107.324 65.0198C106.355 65.3755 105.873 66.0512 105.873 67.0369C105.873 67.8701 106.309 68.4239 107.177 68.6983C108.039 68.9726 109.267 69.1098 110.845 69.1098C112.895 69.1098 117.856 68.4392 125.731 67.0928C133.599 65.7514 139.982 65.0757 144.878 65.0757C145.603 65.0757 146.298 65.096 146.988 65.1367ZM149.501 94.3663L149.505 94.356H149.495C149.497 94.3594 149.499 94.3629 149.501 94.3663ZM119.039 41.4248C117.517 42.4105 116.761 43.7315 116.761 45.3929C116.761 46.9781 117.532 48.2635 119.069 49.2492C120.611 50.2399 122.798 50.7328 125.522 50.7328C128.247 50.7328 130.373 50.2298 131.915 49.2187C133.452 48.2076 134.224 46.9324 134.224 45.3929C134.224 43.7366 133.452 42.4105 131.915 41.4248C130.373 40.4392 128.328 39.9413 125.522 39.9413C122.717 39.9413 120.556 40.4392 119.039 41.4248ZM126.826 87.7765C131.56 87.7765 135.492 87.2786 138.632 86.2929L138.637 86.298C141.773 85.3123 143.341 83.7322 143.341 81.5576C143.341 78.8293 140.063 77.4676 133.513 77.4676C130.358 77.4676 125.7 77.8385 119.546 78.5905C113.387 79.3374 109.759 79.7337 108.653 79.7743C108.653 85.1091 114.711 87.7765 126.826 87.7765ZM91.8498 81.6745C92.21 81.4052 92.5854 81.1512 92.971 80.9124H92.9812C92.0223 80.572 91.1395 80.1909 90.3277 79.754C86.1725 77.5235 83.9757 73.9416 83.9757 69.4096C83.9757 64.8776 86.274 61.3312 90.622 59.1668C92.3571 58.3031 94.3358 57.6426 96.5783 57.1802C94.3865 55.8643 92.5296 54.2944 91.0532 52.511C89.4805 50.6057 88.3491 48.609 87.7047 46.5665C87.0807 44.6054 86.7661 42.4766 86.7661 40.2461C86.7661 33.6615 89.6225 28.1031 95.2541 23.6778C91.9614 21.7166 88.0396 20.7259 83.4734 20.7259C74.5796 20.7259 68.0653 24.0741 63.9304 30.7756C59.7955 37.4771 56.858 49.1679 55.1076 65.8581H53.8595L58.659 22.2196H28.4211V98.944H58.2836V83.0869C58.2836 79.5863 58.3242 76.6344 58.4054 74.221C58.4865 71.8077 58.654 69.3232 58.9026 66.7625C59.1512 64.2069 59.5165 62.1136 59.9934 60.4878C60.4703 58.862 61.1095 57.3784 61.8959 56.0218C62.6823 54.6703 63.6716 53.6796 64.8538 53.0597C66.041 52.4348 67.4159 52.1249 68.9988 52.1249C70.2469 52.1249 71.3478 52.3586 72.3016 52.8413C73.2554 53.3189 74.0266 54.0606 74.605 55.0565C75.1834 56.0523 75.6552 57.0837 76.0053 58.1456C76.3554 59.2074 76.6192 60.5843 76.7815 62.2661C76.949 63.9529 77.0555 65.4517 77.0961 66.7625C77.1367 68.0733 77.157 69.7246 77.157 71.7264V98.944H87.2836C86.6139 97.0844 86.274 95.1181 86.274 93.0604C86.274 88.2541 88.1512 84.4232 91.8498 81.6745ZM15.6156 42.507C12.3584 42.507 9.72528 41.5366 7.71111 39.6008C5.70201 37.6651 4.69238 35.2924 4.69238 32.4878C4.69238 29.6832 5.71215 27.3004 7.75169 25.3392C9.79123 23.378 12.4092 22.3924 15.6156 22.3924C18.822 22.3924 21.3841 23.3729 23.3983 25.3392C25.4074 27.3004 26.417 29.6832 26.417 32.4878C26.417 35.2924 25.4226 37.7006 23.4389 39.6212C21.4501 41.5417 18.8728 42.507 15.6156 42.507ZM25.2552 85.6832H5.85421V41.689H6.49347C8.76132 43.8788 11.8003 44.9763 15.6156 44.9763C19.4309 44.9763 22.3532 43.8788 24.616 41.689H25.2552V85.6832ZM257.722 81.6542C263.43 84.5146 270.005 85.9423 277.448 85.9423H277.458L277.473 85.9322C282.222 85.9322 286.342 85.3682 289.837 84.2301C293.328 83.0971 296.129 81.2376 298.239 78.6616C300.35 76.0857 301.4 72.8746 301.4 69.0285C301.4 66.7574 300.867 64.7607 299.817 63.0383C298.757 61.321 297.392 59.9746 295.713 59.0144C294.033 58.0541 292.171 57.2361 290.132 56.5705C288.087 55.905 286.048 55.407 284.008 55.087C281.968 54.7669 280.106 54.4823 278.427 54.2436C276.743 54.0048 275.373 53.7202 274.323 53.3849C273.267 53.0496 272.74 52.6279 272.74 52.1198C272.74 50.8141 274.302 50.1586 277.9 50.1586C281.497 50.1586 285.058 50.7937 288.579 52.0639C292.095 53.3341 295.053 55.026 297.458 57.1345H298.538V39.6669C292.374 36.3797 285.814 34.7386 278.853 34.7386C275.941 34.7386 273.201 35.0587 270.629 35.6988C268.052 36.339 265.738 37.2891 263.684 38.5441C261.629 39.8041 259.995 41.4502 258.783 43.4927C257.57 45.5402 256.961 47.8469 256.961 50.4076C256.961 52.5212 257.337 54.4061 258.083 56.0574C258.833 57.7137 259.807 59.055 261.025 60.0813C262.238 61.1076 263.618 62.012 265.165 62.7843C266.713 63.5566 268.295 64.1358 269.924 64.5067C271.548 64.8776 273.136 65.223 274.683 65.5279C276.225 65.8327 277.61 66.0665 278.823 66.229C280.035 66.3865 281.02 66.5948 281.766 66.8489C282.516 67.0978 282.887 67.4179 282.887 67.7888C282.887 68.3477 282.456 68.7897 281.588 69.1098C280.72 69.4299 279.543 69.5925 278.047 69.5925C270.528 69.5925 264.171 66.9861 258.965 61.7783H257.722V81.6542ZM255.018 54.9244C255.018 51.1951 254.318 47.8164 252.908 44.7832L252.918 44.7883C251.507 41.7602 249.595 39.2706 247.169 37.3298C244.744 35.3889 241.954 33.8952 238.788 32.8485C235.622 31.8019 232.258 31.2786 228.682 31.2786C224.44 31.2786 220.513 32.0407 216.896 33.5548C213.279 35.0739 210.229 37.1367 207.743 39.7431C205.257 42.3495 203.319 45.4234 201.929 48.9748C200.813 51.815 200.148 54.7923 199.93 57.9119C203.116 57.292 206.277 57.231 209.255 57.9982C215.1 59.5021 219.402 63.8665 222.035 70.9643C224.207 76.8122 223.476 82.5941 220.158 87.7612C223.623 88.8485 227.342 89.3972 231.315 89.3972C235.678 89.3972 239.701 88.945 243.395 88.0356C247.088 87.1261 250.097 85.9576 252.431 84.535V63.9325H251.203C246.084 67.6008 240.133 69.435 233.354 69.435C229.635 69.435 226.536 68.7034 224.07 67.2299C221.604 65.7565 220.199 63.4905 219.869 60.4268L254.293 61.9714C254.775 59.304 255.018 56.9567 255.018 54.9244ZM220.6 55.3816C221.35 53.6237 222.492 52.2976 224.004 51.4034L223.999 51.3983C225.516 50.5041 227.18 50.057 228.996 50.057C230.813 50.057 232.411 50.4635 233.699 51.2662C234.988 52.0741 235.861 53.1715 236.312 54.5636L220.6 55.3816ZM174.704 75.1729C174.701 75.1757 174.698 75.1785 174.695 75.1813L174.69 75.1864C174.695 75.1819 174.7 75.1774 174.704 75.1729ZM219.25 71.8331C209.995 46.903 181.874 68.9882 174.704 75.1729C182.655 67.9274 215.097 36.3964 194.07 22.4178C169.398 6.01204 137.709 70.9084 151.986 92.5676C165.994 113.82 229.26 98.7864 219.25 71.8331ZM234.247 24.9126C232.408 26.4061 230.236 27.4418 227.722 28.0198L227.717 28.0244C225.208 28.6024 222.703 28.6671 220.211 28.2094V24.7923C222.744 24.6259 225.144 23.7335 227.412 22.1197C229.68 20.506 231.263 18.2079 232.162 15.2255L237.925 19.4471C237.314 21.6019 236.086 23.4237 234.247 24.9126Z" fill="url(#paint0_linear_1180_8363)"/>
</g>
<defs>
<filter id="filter0_di_1180_8363" x="0.692383" y="0.463867" width="304.708" height="120.188" filterUnits="userSpaceOnUse" color-interpolation-filters="sRGB">
<feFlood flood-opacity="0" result="BackgroundImageFix"/>
<feColorMatrix in="SourceAlpha" type="matrix" values="0 0 0 0 0 0 0 0 0 0 0 0 0 0 0 0 0 0 127 0" result="hardAlpha"/>
<feOffset dy="4"/>
<feGaussianBlur stdDeviation="2"/>
<feComposite in2="hardAlpha" operator="out"/>
<feColorMatrix type="matrix" values="0 0 0 0 0 0 0 0 0 0 0 0 0 0 0 0 0 0 0.25 0"/>
<feBlend mode="normal" in2="BackgroundImageFix" result="effect1_dropShadow_1180_8363"/>
<feBlend mode="normal" in="SourceGraphic" in2="effect1_dropShadow_1180_8363" result="shape"/>
<feColorMatrix in="SourceAlpha" type="matrix" values="0 0 0 0 0 0 0 0 0 0 0 0 0 0 0 0 0 0 127 0" result="hardAlpha"/>
<feOffset dy="4"/>
<feGaussianBlur stdDeviation="2"/>
<feComposite in2="hardAlpha" operator="arithmetic" k2="-1" k3="1"/>
<feColorMatrix type="matrix" values="0 0 0 0 0.783333 0 0 0 0 1 0 0 0 0 0.948 0 0 0 0.37 0"/>
<feBlend mode="normal" in2="shape" result="effect2_innerShadow_1180_8363"/>
</filter>
<linearGradient id="paint0_linear_1180_8363" x1="271.877" y1="-19.4643" x2="235.747" y2="145.451" gradientUnits="userSpaceOnUse">
<stop offset="0.00156703" stop-color="#BDF7A3"/>
<stop offset="1" stop-color="#00CDFF"/>
</linearGradient>
</defs>
</svg>
