<svg width="340" height="56" viewBox="0 0 469 96" fill="none" xmlns="http://www.w3.org/2000/svg">
<path d="M37.621 5.76367V41.549C37.621 48.7197 35.1133 52.3106 30.1036 52.3106C25.0938 52.3106 22.4958 48.7253 22.4958 41.549V22.6965H0V40.6231C0 44.5189 0.338877 48.1099 1.02228 51.4072C1.70003 54.699 2.80138 57.7535 4.31503 60.5653C5.82868 63.3771 7.73204 65.7654 10.0195 67.7303C12.3069 69.6952 15.1534 71.2253 18.5535 72.3206C21.9536 73.416 25.8055 73.9693 30.1036 73.9693C34.4016 73.9693 38.2422 73.4216 41.631 72.3206C45.0198 71.2253 47.8551 69.6952 50.1425 67.7303C52.4299 65.7654 54.3333 63.3771 55.8469 60.5653C57.3605 57.7535 58.4506 54.699 59.1171 51.4072C59.7835 48.1155 60.1168 44.5189 60.1168 40.6231V5.76367H37.621Z" fill="white"/>
<path d="M326.728 56.8611C318.172 33.8474 292.163 54.2582 285.549 59.9496C292.869 53.2928 322.91 24.1699 303.459 11.2627C295.958 6.28846 287.757 9.42208 280.601 16.5814C285.515 29.6579 284.052 43.7846 276.281 57.708C272.965 63.6478 268.617 69.2488 263.59 74.2682C263.884 74.8667 264.205 75.4426 264.567 75.9847C277.512 95.5938 335.985 81.7268 326.74 56.8555L326.728 56.8611Z" fill="white"/>
<path d="M276.597 13.922C268.955 -1.85905 232.475 -9.01273 205.32 18.7833C202.976 21.1829 200.852 23.5543 198.904 25.9031C198.972 26.0443 199.045 26.1854 199.113 26.3266C200.739 29.8441 201.564 33.4069 201.564 36.9244C201.564 39.7475 201.231 42.4012 200.576 44.8347H201.383C202.942 44.8347 204.207 46.0994 204.207 47.6578C204.207 50.8592 203.846 54.2017 203.129 57.6007C202.406 61.0392 201.129 64.6189 199.333 68.2437C197.52 71.8968 195.261 75.1885 192.606 78.0285C191.285 79.44 189.76 80.7386 188.054 81.9074C194.504 91.184 205.986 96.2148 218.785 94.9048C252.187 91.4889 294.541 50.9777 276.597 13.922ZM239.445 50.6559C229.42 57.245 219.378 59.6728 217.011 56.0762C214.645 52.4796 220.846 44.2136 230.871 37.6246C240.896 31.0355 250.938 28.6076 253.305 32.2042C255.671 35.8008 249.47 44.0668 239.445 50.6559Z" fill="white"/>
<path d="M395.181 77.1538H372.33V18.5297H395.469L391.798 51.8703H392.753C393.295 45.1627 394.119 39.5617 395.232 35.0786C396.345 30.5956 397.813 27.0611 399.643 24.4639C401.473 21.8723 403.54 20.0429 405.845 18.9758C408.149 17.9087 410.928 17.3779 414.17 17.3779V44.0391H412.882C411.165 42.3227 409.019 41.4645 406.443 41.4645C402.975 41.4645 400.23 43.0058 398.214 46.0887C396.192 49.1715 395.187 53.8634 395.187 60.1589V77.1369L395.181 77.1538Z" fill="white"/>
<path d="M440.461 77.7452C431.588 77.7452 423.743 76.0457 416.937 72.6411V48.9837H418.417C424.619 55.1832 432.204 58.2829 441.173 58.2829C442.952 58.2829 444.364 58.0909 445.397 57.7127C446.431 57.3287 446.945 56.8093 446.945 56.1374C446.945 55.6913 446.499 55.3187 445.612 55.0194C444.72 54.7145 443.551 54.4718 442.105 54.2798C440.659 54.0878 439.01 53.8112 437.168 53.4442C435.321 53.0772 433.429 52.6763 431.492 52.2302C429.549 51.7842 427.657 51.101 425.816 50.1807C423.969 49.2603 422.326 48.1819 420.88 46.9624C419.434 45.7371 418.265 44.1393 417.372 42.1688C416.48 40.1983 416.034 37.9567 416.034 35.4442C416.034 32.3896 416.757 29.6512 418.203 27.2177C419.648 24.7842 421.597 22.825 424.048 21.3288C426.499 19.8326 429.256 18.7033 432.328 17.9411C435.395 17.1789 438.665 16.7949 442.133 16.7949C450.435 16.7949 458.258 18.7541 465.606 22.6613V43.4561H464.318C461.454 40.9436 457.925 38.9335 453.728 37.4203C449.532 35.9128 445.284 35.1562 440.992 35.1562C436.7 35.1562 434.836 35.9354 434.836 37.4937C434.836 38.0979 435.463 38.6004 436.722 38.9956C437.976 39.3965 439.608 39.7353 441.613 40.0232C443.618 40.3112 445.838 40.6443 448.267 41.0226C450.701 41.4065 453.135 41.9937 455.569 42.7898C458.004 43.586 460.218 44.5571 462.223 45.6976C464.228 46.8438 465.854 48.4417 467.114 50.4912C468.368 52.5408 469 54.9178 469 57.6223C469 62.2013 467.741 66.0238 465.227 69.0897C462.714 72.1612 459.376 74.3688 455.208 75.7183C451.04 77.0677 446.126 77.7452 440.467 77.7452H440.461Z" fill="white"/>
<path d="M368.472 35.5127C366.913 31.775 364.75 28.5341 361.982 25.7844C359.215 23.0347 355.787 20.8496 351.697 19.2235C347.608 17.6031 343.163 16.79 338.363 16.79C334.449 16.79 330.777 17.3095 327.344 18.3427C323.91 19.376 320.888 20.8327 318.279 22.7072C315.805 24.4858 313.659 26.5748 311.846 28.9575C310.806 32.7122 308.931 36.5347 306.616 40.216C306.282 41.6953 306.051 43.2028 305.932 44.7385C309.857 43.5585 313.834 43.1463 317.51 44.0892C322.938 45.4838 326.926 49.5265 329.371 56.0986C331.913 62.9418 330.173 69.6889 324.717 75.3012C324.768 75.3181 324.813 75.3407 324.864 75.3633C328.97 76.9499 333.466 77.746 338.368 77.746C343.271 77.746 347.817 76.9499 351.918 75.3633C356.024 73.7711 359.441 71.603 362.174 68.8533C364.908 66.1036 367.032 62.8853 368.545 59.1983C370.053 55.5114 370.81 51.5647 370.81 47.3696C370.81 43.1745 370.031 39.2561 368.472 35.5184V35.5127ZM347.027 53.9926C344.784 55.4888 341.898 56.2341 338.368 56.2341C334.838 56.2341 331.975 55.4888 329.778 53.9926C327.581 52.4964 326.485 50.2887 326.485 47.364C326.485 44.4393 327.598 42.2203 329.823 40.7072C332.048 39.1996 334.895 38.4431 338.363 38.4431C341.831 38.4431 344.779 39.1996 347.021 40.7072C349.263 42.2203 350.381 44.4336 350.381 47.364C350.381 50.2944 349.263 52.4964 347.021 53.9926H347.027Z" fill="white"/>
<path d="M126.875 53.2188C130.176 53.2188 132.851 50.5443 132.851 47.2451C132.851 43.946 130.176 41.2715 126.875 41.2715C123.575 41.2715 120.9 43.946 120.9 47.2451C120.9 50.5443 123.575 53.2188 126.875 53.2188Z" fill="white"/>
<path d="M199.909 47.7318C198.723 53.0561 196.136 57.1157 192.149 59.9162C188.161 62.711 183.66 64.1113 178.639 64.1113C174.736 64.1113 171.059 63.3208 167.597 61.7455C164.135 60.1703 161.271 57.7876 159.001 54.5975C156.725 51.4131 155.59 47.7318 155.59 43.5593C155.59 39.1496 156.42 35.8071 158.08 33.5373C159.741 31.2676 161.661 30.1327 163.83 30.1327C165.219 30.1327 166.405 30.6183 167.394 31.5838C168.377 32.5493 168.868 33.8479 168.868 35.474C168.868 36.6935 168.569 38.2293 167.976 40.0756C167.383 41.9219 167.083 43.4746 167.083 44.728C167.083 48.765 168.439 51.9438 171.155 54.2644C173.866 56.5906 177.125 57.7481 180.926 57.7481C183.129 57.7481 185.27 57.3246 187.337 56.4777C189.404 55.6308 191.307 54.3942 193.035 52.7625C194.764 51.1364 196.148 48.957 197.181 46.2243C198.215 43.4915 198.734 40.4144 198.734 36.9928C198.734 33.8705 198.006 30.7368 196.549 27.5806C195.091 24.4244 193.03 21.5167 190.364 18.8573C187.698 16.198 184.23 14.0242 179.96 12.3473C175.685 10.6704 171.003 9.8291 165.914 9.8291C160.385 9.8291 155.313 10.8228 150.698 12.8046C146.084 14.7864 142.243 17.4684 139.171 20.8391C136.099 24.2155 133.726 28.134 132.049 32.5888C131.219 34.7908 130.597 37.0605 130.174 39.3811C133.235 40.6741 135.393 43.7061 135.393 47.2349C135.393 50.7638 133.252 53.7732 130.208 55.0718C130.603 57.4375 131.174 59.7129 131.919 61.8924C133.512 66.5222 135.844 70.5931 138.917 74.0993C141.989 77.6113 145.971 80.3496 150.874 82.3145C155.776 84.2794 161.345 85.2618 167.591 85.2618C172.477 85.2618 176.905 84.4036 180.875 82.6928C184.846 80.982 188.065 78.8026 190.545 76.1546C193.019 73.5065 195.108 70.4745 196.803 67.0473C198.497 63.6201 199.683 60.3001 200.367 57.0762C201.044 53.8579 201.383 50.7355 201.383 47.7148H199.909V47.7318Z" fill="white"/>
<path d="M118.358 47.2465C118.358 43.0118 121.47 39.4999 125.525 38.845C125.333 34.1925 124.48 29.9353 122.972 26.0847C121.239 21.6637 118.635 18.1066 115.156 15.4191C111.677 12.7315 107.604 11.3877 102.934 11.3877C101.234 11.3877 99.6239 11.5797 98.1102 11.9693C96.5966 12.3588 95.0773 13.0364 93.5636 14.0075C92.05 14.9787 90.6888 16.2321 89.4802 17.7622C88.2715 19.2923 87.1815 21.2741 86.21 23.6963C85.2329 26.1242 84.4874 28.9134 83.9621 32.0696H83.1714L85.1651 12.5H62.8501V83.7263H84.3292V61.887L82.2395 48.116H83.3521C83.5046 50.9278 83.8379 53.4572 84.3518 55.6988C84.8602 57.9403 85.4645 59.8318 86.1592 61.3788C86.8539 62.9259 87.7124 64.2696 88.7346 65.4158C89.7569 66.562 90.7848 67.4654 91.8184 68.1316C92.852 68.7979 94.0381 69.323 95.3653 69.7069C96.6926 70.0908 97.9295 70.3506 99.076 70.4691C100.223 70.5933 101.505 70.6554 102.928 70.6554C107.565 70.6554 111.626 69.2947 115.105 66.5733C118.584 63.8518 121.199 60.2665 122.944 55.8117C123.057 55.5294 123.153 55.2358 123.255 54.9478C120.363 53.5871 118.352 50.6511 118.352 47.2465H118.358ZM101.725 46.998C99.59 48.4491 96.7943 49.1774 93.3264 49.1774C89.8586 49.1774 87.0459 48.4547 84.8827 46.998C82.7196 45.547 81.6352 43.3788 81.6352 40.5049C81.6352 37.6311 82.7196 35.5533 84.8827 34.0853C87.0459 32.6173 89.8586 31.8833 93.3264 31.8833C96.7943 31.8833 99.5505 32.6173 101.702 34.0853C103.849 35.5533 104.927 37.6932 104.927 40.5049C104.927 43.3167 103.86 45.547 101.725 46.998Z" fill="white"/>
</svg>
