<svg width="429" height="690" viewBox="0 0 469 716" fill="none" xmlns="http://www.w3.org/2000/svg">
<circle cx="270.126" cy="476.346" r="127.276" fill="#5138FF"/>
<path d="M205.054 467.105V453.5H207.717V459.545C207.892 459.214 208.222 459.156 208.65 459.156H214.636V453.5H217.299V467.105H214.636V460.905C214.461 461.236 214.131 461.294 213.703 461.294H207.717V467.105H205.054ZM223.506 467.339C221.29 467.339 219.269 465.998 219.269 462.168V455.443H221.873V460.866C221.873 462.849 222.534 464.598 224.653 464.598C227.666 464.598 228.015 461.449 228.015 458.242V455.443H230.62V467.105H227.918L228.501 460.477H228.307C227.957 465.414 226.305 467.339 223.506 467.339ZM232.48 467.105V455.443H235.182L234.579 461.449H234.773C235.259 456.998 236.445 455.21 239.011 455.21C241.285 455.21 242.645 456.901 242.645 459.778C242.645 460.322 242.606 460.925 242.548 461.449H242.723C242.995 457.406 244.55 455.21 247.33 455.21C249.565 455.21 251.12 456.648 251.12 460.477V467.105H248.496V461.955C248.496 459.972 248.068 457.931 246.047 457.931C243.326 457.931 243.015 461.002 243.015 463.84V467.105H240.391V461.566C240.391 459.681 239.982 457.931 237.98 457.931C235.045 457.931 235.084 461.916 235.084 464.987V467.105H232.48ZM256.345 467.339C254.246 467.339 252.38 466.328 252.38 463.918C252.38 461.352 254.829 460.244 258.114 460.244C259.26 460.244 260.524 460.322 261.262 460.4V460.225C261.107 458.126 259.163 457.62 257.861 457.62C256.248 457.62 254.673 458.242 253.565 459.175H253.352V456.59C254.537 455.774 256.267 455.21 258.172 455.21C261.982 455.21 263.828 457.698 263.828 460.497V467.105H261.243V466.833L261.632 461.449H261.457C261.36 465.162 259.552 467.339 256.345 467.339ZM254.829 463.51C254.829 464.831 255.898 465.376 257.161 465.376C259.222 465.376 260.738 464.112 260.893 461.391H258.911C255.704 461.391 254.829 462.382 254.829 463.51ZM265.697 467.105V455.443H268.399L267.816 462.071H268.01C268.36 457.115 270.187 455.21 272.986 455.21C275.202 455.21 277.145 456.629 277.145 460.458V467.105H274.541V461.76C274.541 459.797 273.938 457.931 271.878 457.931C268.515 457.931 268.302 461.838 268.302 464.695V467.105H265.697ZM290.103 467.339C288.451 467.339 285.963 466.503 285.438 463.101H285.283L285.652 467.105H282.989V452.528H285.516V456.998L285.108 459.817H285.322C285.613 456.201 287.907 455.21 290.103 455.21C293.271 455.21 295.332 457.756 295.332 461.294C295.332 464.831 293.271 467.339 290.103 467.339ZM285.186 461.333C285.186 463.743 286.877 464.89 289.034 464.89C291.192 464.89 292.883 463.743 292.883 461.333C292.883 458.923 291.192 457.737 289.034 457.737C286.877 457.737 285.186 458.923 285.186 461.333ZM302.565 467.339C298.677 467.339 296.209 464.637 296.209 461.294C296.209 457.951 298.677 455.21 302.565 455.21C306.413 455.21 308.901 457.951 308.901 461.294C308.901 464.637 306.452 467.339 302.565 467.339ZM298.599 461.294C298.599 463.626 300.368 464.89 302.565 464.89C304.741 464.89 306.53 463.626 306.53 461.294C306.53 458.961 304.741 457.698 302.565 457.698C300.388 457.698 298.599 458.961 298.599 461.294ZM315.048 467.339C311.88 467.339 309.78 464.831 309.78 461.294C309.78 457.756 311.88 455.21 315.048 455.21C317.244 455.21 319.499 456.201 319.79 459.817H320.004L319.596 456.998V452.528H322.123V467.105H319.46L319.829 463.101H319.674C319.149 466.503 316.7 467.339 315.048 467.339ZM312.229 461.333C312.229 463.743 313.959 464.89 316.117 464.89C318.274 464.89 319.926 463.743 319.926 461.333C319.926 458.923 318.274 457.737 316.117 457.737C313.959 457.737 312.229 458.923 312.229 461.333ZM327.12 470.254C326.382 470.254 325.604 470.118 325.041 469.904V467.63C325.352 467.766 326.013 467.98 326.615 467.98C327.917 467.98 328.442 467.455 329.744 466.075C329.939 465.92 330.191 465.706 330.58 465.648V465.492H327.606L323.408 455.443H326.187L328.364 460.73C328.85 462.013 329.511 463.704 329.511 464.656H329.686C329.686 463.704 330.347 461.974 330.833 460.73L333.01 455.443H335.789L331.261 466.425C330.328 469.185 328.928 470.254 327.12 470.254ZM207.164 483.3C203.293 483.3 201.009 480.692 201.009 477.436C201.009 474.181 203.293 471.573 207.164 471.573C209.059 471.573 210.371 472.302 210.987 472.755V474.326H210.825C209.351 473.176 208.33 473.014 206.986 473.014C204.978 473.014 202.37 474.326 202.37 477.453C202.37 480.028 204.394 481.874 206.986 481.874C208.33 481.874 209.351 481.696 210.825 480.546H210.987V482.117C210.371 482.571 209.059 483.3 207.164 483.3ZM216.593 483.3C214.746 483.3 212.786 482.231 212.786 479.04V473.387H214.163V478.457C214.163 480.287 214.973 481.874 217.079 481.874C220.529 481.874 220.626 478.084 220.626 475.557V473.387H222.003V483.105H220.529L220.95 477.582H220.788C220.594 481.664 218.958 483.3 216.593 483.3ZM228.88 483.3C225.56 483.3 223.405 481.162 223.405 478.23C223.405 475.444 225.43 473.193 228.443 473.193C231.002 473.193 233.01 474.861 233.01 477.534C233.01 477.76 232.994 477.987 232.946 478.279L224.685 478.084C224.636 481.648 227.941 482.004 229.091 482.004C230.273 482.004 231.553 481.68 232.411 481.065H232.557V482.377C231.731 482.927 230.467 483.3 228.88 483.3ZM224.75 477.55L231.796 477.501C231.731 475.655 230.273 474.44 228.459 474.44C227.05 474.44 225.057 475.266 224.75 477.55ZM234.52 483.105V473.387H235.994L235.573 478.91H235.735C235.929 474.748 237.581 473.193 239.898 473.193V474.764H239.849C239.233 474.699 238.699 474.78 238.229 474.974C236.172 475.881 235.897 478.862 235.897 480.886V483.105H234.52ZM241.29 485.535V473.387H242.715L242.424 476.724H242.553C242.975 473.857 245.388 473.193 246.765 473.193C249.502 473.193 251.381 475.185 251.381 478.23C251.381 481.259 249.502 483.3 246.765 483.3C244.578 483.3 242.748 482.247 242.456 479.461H242.31L242.618 481.81V485.535H241.29ZM242.456 478.198C242.456 480.708 244.108 481.955 246.246 481.955C248.401 481.955 250.069 480.708 250.069 478.198C250.069 475.703 248.401 474.488 246.246 474.488C244.108 474.488 242.456 475.703 242.456 478.198ZM257.536 483.3C254.329 483.3 252.304 481.065 252.304 478.279C252.304 475.493 254.345 473.193 257.536 473.193C260.711 473.193 262.768 475.493 262.768 478.279C262.768 481.065 260.743 483.3 257.536 483.3ZM253.584 478.279C253.584 480.676 255.349 482.036 257.536 482.036C259.723 482.036 261.488 480.676 261.488 478.279C261.488 475.865 259.723 474.521 257.536 474.521C255.349 474.521 253.584 475.865 253.584 478.279ZM267.642 483.105V470.957H269.116L268.695 478.91H268.857C269.068 474.829 270.898 473.193 273.263 473.193C275.109 473.193 276.988 474.375 276.988 477.566V483.105H275.612V478.149C275.612 476.319 274.899 474.618 272.809 474.618C269.214 474.618 269.019 478.716 269.019 481.097V483.105H267.642ZM282.648 483.3C280.801 483.3 278.841 482.231 278.841 479.04V473.387H280.218V478.457C280.218 480.287 281.028 481.874 283.134 481.874C286.584 481.874 286.681 478.084 286.681 475.557V473.387H288.058V483.105H286.584L287.005 477.582H286.843C286.649 481.664 285.013 483.3 282.648 483.3ZM290.04 483.105V473.387H291.514L291.077 478.133H291.239C291.628 474.634 292.713 473.193 294.867 473.193C296.617 473.193 298.074 474.343 298.074 476.999C298.074 477.372 298.058 477.76 298.026 478.133H298.172C298.366 474.974 299.775 473.193 302.188 473.193C304.051 473.193 305.509 474.391 305.509 477.566V483.105H304.148V478.23C304.148 476.4 303.581 474.602 301.589 474.602C298.641 474.602 298.35 477.728 298.35 480.012V483.105H296.973V478.068C296.973 476.286 296.487 474.602 294.43 474.602C291.369 474.602 291.417 478.748 291.417 481.21V483.105H290.04ZM310.308 483.3C308.511 483.3 306.891 482.441 306.891 480.384C306.891 478.424 308.721 477.388 311.718 477.388C312.851 477.388 314.131 477.453 314.811 477.517V477.372C314.747 475.023 312.706 474.488 311.539 474.488C310.098 474.488 308.786 475.023 307.814 475.881H307.636V474.488C308.656 473.679 310.082 473.193 311.653 473.193C314.844 473.193 316.156 475.396 316.156 477.453V483.105H314.763V482.911L315.022 478.165H314.876C314.795 481.275 313.224 483.3 310.308 483.3ZM308.203 480.222C308.203 481.632 309.304 482.198 310.632 482.198C312.738 482.198 314.342 481 314.504 478.117H312.382C309.094 478.117 308.203 479.056 308.203 480.222ZM318.133 483.105V473.387H319.607L319.186 478.91H319.348C319.558 474.829 321.388 473.193 323.753 473.193C325.6 473.193 327.479 474.375 327.479 477.566V483.105H326.102V478.149C326.102 476.319 325.389 474.618 323.3 474.618C319.704 474.618 319.51 478.716 319.51 481.097V483.105H318.133ZM334.11 483.3C330.903 483.3 328.878 481.065 328.878 478.279C328.878 475.493 330.919 473.193 334.11 473.193C337.285 473.193 339.342 475.493 339.342 478.279C339.342 481.065 337.317 483.3 334.11 483.3ZM330.158 478.279C330.158 480.676 331.923 482.036 334.11 482.036C336.297 482.036 338.062 480.676 338.062 478.279C338.062 475.865 336.297 474.521 334.11 474.521C331.923 474.521 330.158 475.865 330.158 478.279Z" fill="white"/>
<circle cx="111.165" cy="324.904" r="111.165" fill="#FF4243"/>
<path d="M50.7703 316.737V303.131H54.5799L56.9317 309.312C57.5149 310.731 57.8453 311.645 57.9619 312.967H58.0785C58.1951 311.645 58.5061 310.731 59.0892 309.312L61.4605 303.131H65.2702V316.737H62.6851V311.859C62.6851 309.274 62.8211 306.358 63.3071 304.511H63.1321L58.7394 316.737H57.301L52.8889 304.511H52.7334C53.2193 306.358 53.3359 309.274 53.3359 311.859V316.737H50.7703ZM70.4323 319.886C69.6937 319.886 68.9163 319.75 68.3526 319.536V317.262C68.6636 317.398 69.3244 317.612 69.927 317.612C71.2293 317.612 71.7541 317.087 73.0563 315.707C73.2507 315.552 73.5034 315.338 73.8921 315.28V315.124H70.9183L66.7199 305.075H69.4994L71.6763 310.362C72.1622 311.645 72.8231 313.336 72.8231 314.288H72.998C72.998 313.336 73.6589 311.606 74.1448 310.362L76.3217 305.075H79.1012L74.5724 316.057C73.6394 318.817 72.24 319.886 70.4323 319.886ZM84.7708 316.737V306.688H83.7213V305.075H84.7708C84.7708 302.84 86.3452 301.926 88.3278 301.926C88.9109 301.926 89.4551 302.004 89.9994 302.14V303.501C89.7273 303.442 89.2996 303.365 88.8526 303.365C87.9585 303.365 87.0255 303.656 86.9867 305.075H89.9994V306.902L87.3754 306.63V316.737H84.7708ZM93.8233 316.971C91.7241 316.971 89.8582 315.96 89.8582 313.55C89.8582 310.984 92.3072 309.876 95.592 309.876C96.7388 309.876 98.0022 309.954 98.7408 310.032V309.857C98.5853 307.757 96.6416 307.252 95.3394 307.252C93.7261 307.252 92.1517 307.874 91.0438 308.807H90.83V306.222C92.0156 305.406 93.7455 304.842 95.6503 304.842C99.46 304.842 101.306 307.33 101.306 310.129V316.737H98.7214V316.465L99.1101 311.081H98.9352C98.838 314.794 97.0304 316.971 93.8233 316.971ZM92.3072 313.141C92.3072 314.463 93.3762 315.007 94.6396 315.007C96.6999 315.007 98.216 313.744 98.3715 311.023H96.3889C93.1819 311.023 92.3072 312.014 92.3072 313.141ZM105.881 316.737L101.488 305.075H104.248L106.561 311.042C107.008 312.325 107.591 314.444 107.591 315.396H107.786C107.786 314.444 108.349 312.286 108.797 311.042L111.11 305.075H113.87L109.496 316.737H105.881ZM119.961 316.971C116.073 316.971 113.605 314.269 113.605 310.926C113.605 307.583 116.073 304.842 119.961 304.842C123.809 304.842 126.297 307.583 126.297 310.926C126.297 314.269 123.848 316.971 119.961 316.971ZM115.995 310.926C115.995 313.258 117.764 314.521 119.961 314.521C122.138 314.521 123.926 313.258 123.926 310.926C123.926 308.593 122.138 307.33 119.961 307.33C117.784 307.33 115.995 308.593 115.995 310.926ZM127.623 316.737V305.075H130.325L129.742 311.703H129.936C130.247 306.572 132.016 304.842 134.698 304.842V307.874H134.562C133.96 307.68 133.377 307.699 132.833 307.855C130.753 308.593 130.228 311.353 130.228 313.841V316.737H127.623ZM135.918 316.737V305.697H135.996C136.307 305.989 136.793 306.125 137.24 306.125C137.687 306.125 138.173 305.989 138.484 305.697H138.562V316.737H135.918ZM135.627 303.909C135.627 303.093 136.268 302.412 137.24 302.412C138.212 302.412 138.853 303.093 138.853 303.909C138.853 304.725 138.231 305.386 137.24 305.386C136.249 305.386 135.627 304.725 135.627 303.909ZM144.054 316.971C142.052 316.971 141.061 315.629 141.061 313.802V306.688H139.681V305.133C141.294 305.133 141.702 304.842 141.702 303.131H143.704V305.075H146.367V306.941L143.704 306.65V313.005C143.704 313.997 143.976 314.599 144.967 314.599C145.589 314.599 145.939 314.269 146.192 313.88H146.367V316.057C145.803 316.679 145.006 316.971 144.054 316.971ZM153.62 316.971C149.635 316.971 147.05 314.366 147.05 310.887C147.05 307.544 149.479 304.842 153.095 304.842C156.127 304.842 158.576 306.747 158.576 309.954C158.576 310.284 158.556 310.634 158.479 311.042L149.479 310.77C149.499 314.074 152.531 314.541 153.931 314.541C155.349 314.541 156.807 314.152 157.837 313.414H158.032V315.902C157.079 316.523 155.524 316.971 153.62 316.971ZM149.577 310.012L156.321 309.915C156.205 308.243 154.844 307.135 153.134 307.135C151.754 307.135 149.946 307.932 149.577 310.012ZM164.748 316.971C163.368 316.971 161.483 316.776 159.753 315.591V312.792H159.986C161.58 314.444 163.679 314.696 164.826 314.696C165.953 314.696 167.314 314.405 167.314 313.141C167.314 310.867 159.753 312.558 159.753 308.224C159.753 306.028 161.91 304.842 164.554 304.842C166.42 304.842 168.091 305.425 169.199 306.3V308.749H168.985C167.916 307.68 166.167 306.999 164.437 306.999C163.154 306.999 161.969 307.446 161.969 308.418C161.969 310.712 169.86 309.021 169.86 313.278C169.86 315.571 168.033 316.971 164.748 316.971ZM59.9265 332.737V321.399H61.9836L64.6076 327.473C65.304 329.012 65.6604 329.951 65.8062 330.972H65.8871C66.0329 329.951 66.4055 329.012 67.102 327.473L69.7097 321.399H71.7668V332.737H70.39V328.218C70.39 326.064 70.4062 323.634 70.8112 322.096H70.6816L66.2759 332.737H65.4336L61.0279 322.096H60.8821C61.2871 323.634 61.3195 326.064 61.3195 328.218V332.737H59.9265ZM73.8443 332.737V323.278H73.8766C74.0548 323.424 74.314 323.489 74.5569 323.489C74.7837 323.489 75.0429 323.424 75.2048 323.278H75.2372V332.737H73.8443ZM73.6013 321.869C73.6013 321.399 73.99 320.994 74.5569 320.994C75.1077 320.994 75.4802 321.399 75.4802 321.869C75.4802 322.355 75.1239 322.744 74.5569 322.744C73.9738 322.744 73.6013 322.355 73.6013 321.869ZM81.2142 332.932C80.0156 332.932 78.3797 332.737 76.9057 331.636V330.097H77.0839C78.3959 331.49 80.2748 331.701 81.2466 331.701C82.3642 331.701 83.8868 331.393 83.8868 329.935C83.8868 327.408 77.0029 329.206 77.0029 325.497C77.0029 323.829 78.655 322.824 80.8417 322.824C82.348 322.824 83.7572 323.294 84.6804 324.153V325.497H84.5185C83.6762 324.574 82.2184 324.007 80.7931 324.007C79.4811 324.007 78.2015 324.493 78.2015 325.594C78.2015 328.056 85.2312 326.307 85.2312 330C85.2312 331.684 83.9678 332.932 81.2142 332.932ZM90.3611 332.737V323.894H89.454V323.019H90.3611C90.3611 321.351 91.4139 320.395 93.0984 320.395C93.5843 320.395 93.9731 320.46 94.4104 320.573V321.432C94.1998 321.367 93.7625 321.27 93.309 321.27C92.4667 321.27 91.5921 321.545 91.5759 323.019H94.4104V324.055L91.7378 323.813V332.737H90.3611ZM97.9244 332.932C96.1265 332.932 94.5067 332.073 94.5067 330.016C94.5067 328.056 96.337 327.02 99.3335 327.02C100.467 327.02 101.747 327.084 102.427 327.149V327.003C102.362 324.655 100.322 324.12 99.1554 324.12C97.7138 324.12 96.4018 324.655 95.43 325.513H95.2518V324.12C96.2722 323.31 97.6976 322.824 99.2688 322.824C102.46 322.824 103.772 325.027 103.772 327.084V332.737H102.379V332.543L102.638 327.797H102.492C102.411 330.907 100.84 332.932 97.9244 332.932ZM95.8187 329.854C95.8187 331.263 96.9201 331.83 98.2483 331.83C100.354 331.83 101.958 330.632 102.119 327.749H99.9976C96.7096 327.749 95.8187 328.688 95.8187 329.854ZM108.246 332.737L104.213 323.019H105.655L108.084 328.704C108.505 329.773 109.105 331.442 109.105 332.041H109.267C109.267 331.442 109.866 329.757 110.287 328.704L112.717 323.019H114.158L110.125 332.737H108.246ZM119.385 332.932C116.178 332.932 114.153 330.696 114.153 327.91C114.153 325.125 116.194 322.824 119.385 322.824C122.56 322.824 124.617 325.125 124.617 327.91C124.617 330.696 122.592 332.932 119.385 332.932ZM115.433 327.91C115.433 330.308 117.198 331.668 119.385 331.668C121.572 331.668 123.337 330.308 123.337 327.91C123.337 325.497 121.572 324.153 119.385 324.153C117.198 324.153 115.433 325.497 115.433 327.91ZM125.995 332.737V323.019H127.469L127.048 328.542H127.21C127.405 324.379 129.057 322.824 131.373 322.824V324.396H131.324C130.709 324.331 130.174 324.412 129.705 324.606C127.648 325.513 127.372 328.494 127.372 330.518V332.737H125.995ZM132.639 332.737V323.278H132.671C132.85 323.424 133.109 323.489 133.352 323.489C133.578 323.489 133.838 323.424 134 323.278H134.032V332.737H132.639ZM132.396 321.869C132.396 321.399 132.785 320.994 133.352 320.994C133.902 320.994 134.275 321.399 134.275 321.869C134.275 322.355 133.919 322.744 133.352 322.744C132.769 322.744 132.396 322.355 132.396 321.869ZM138.522 332.932C137.015 332.932 136.351 331.927 136.351 330.615V323.894H135.137V323.051C136.481 323.051 136.659 322.873 136.659 321.399H137.728V323.019H140.239V324.072L137.728 323.829V330.227C137.728 331.134 137.987 331.668 138.894 331.668C139.526 331.668 139.882 331.312 140.109 330.956H140.239V332.203C139.834 332.705 139.234 332.932 138.522 332.932ZM146.164 332.932C142.957 332.932 140.933 330.696 140.933 327.91C140.933 325.125 142.974 322.824 146.164 322.824C149.339 322.824 151.396 325.125 151.396 327.91C151.396 330.696 149.372 332.932 146.164 332.932ZM142.212 327.91C142.212 330.308 143.978 331.668 146.164 331.668C148.351 331.668 150.117 330.308 150.117 327.91C150.117 325.497 148.351 324.153 146.164 324.153C143.978 324.153 142.212 325.497 142.212 327.91ZM156.665 332.932C155.466 332.932 153.83 332.737 152.357 331.636V330.097H152.535C153.847 331.49 155.726 331.701 156.697 331.701C157.815 331.701 159.338 331.393 159.338 329.935C159.338 327.408 152.454 329.206 152.454 325.497C152.454 323.829 154.106 322.824 156.293 322.824C157.799 322.824 159.208 323.294 160.131 324.153V325.497H159.969C159.127 324.574 157.669 324.007 156.244 324.007C154.932 324.007 153.652 324.493 153.652 325.594C153.652 328.056 160.682 326.307 160.682 330C160.682 331.684 159.419 332.932 156.665 332.932Z" fill="white"/>
<circle cx="397.203" cy="644.237" r="71.7627" fill="#54D6BC"/>
<circle cx="63.934" cy="508.595" r="63.934" fill="#FF810E"/>
<circle cx="216.753" cy="233.938" r="53.4958" fill="#5873FF"/>
<circle cx="129.424" cy="592.345" r="27.3886" fill="#4058FF"/>
<circle cx="264.756" cy="310.941" r="27.3886" fill="#FFE900"/>
<circle cx="261.879" cy="90.0295" r="90.0295" fill="#51E1FF"/>
<path d="M39.4174 506.127C34.7914 506.127 32.0119 503.017 32.0119 499.091C32.0119 495.184 34.7914 492.054 39.4174 492.054C41.5943 492.054 43.1687 492.851 43.8879 493.376V496.408H43.6546C42.0219 495.009 40.8169 494.756 39.2813 494.756C37.0072 494.756 34.5387 496.117 34.5387 499.091C34.5387 501.637 36.5602 503.445 39.2813 503.445C40.8169 503.445 42.0219 503.192 43.6546 501.792H43.8879V504.786C43.1687 505.31 41.5943 506.127 39.4174 506.127ZM51.4062 506.127C47.5188 506.127 45.0503 503.425 45.0503 500.082C45.0503 496.739 47.5188 493.998 51.4062 493.998C55.2547 493.998 57.7426 496.739 57.7426 500.082C57.7426 503.425 55.2935 506.127 51.4062 506.127ZM47.441 500.082C47.441 502.414 49.2098 503.678 51.4062 503.678C53.5831 503.678 55.3713 502.414 55.3713 500.082C55.3713 497.749 53.5831 496.486 51.4062 496.486C49.2292 496.486 47.441 497.749 47.441 500.082ZM59.1639 505.894V491.316H61.7879V505.894H59.1639ZM69.4764 506.127C65.589 506.127 63.1205 503.425 63.1205 500.082C63.1205 496.739 65.589 493.998 69.4764 493.998C73.3249 493.998 75.8128 496.739 75.8128 500.082C75.8128 503.425 73.3638 506.127 69.4764 506.127ZM65.5113 500.082C65.5113 502.414 67.28 503.678 69.4764 503.678C71.6533 503.678 73.4415 502.414 73.4415 500.082C73.4415 497.749 71.6533 496.486 69.4764 496.486C67.2995 496.486 65.5113 497.749 65.5113 500.082ZM77.1393 505.894V494.231H79.841L79.2579 500.859H79.4522C79.7632 495.728 81.532 493.998 84.2143 493.998V497.03H84.0782C83.4757 496.836 82.8926 496.855 82.3483 497.011C80.2686 497.749 79.7438 500.51 79.7438 502.997V505.894H77.1393ZM90.0818 506.127C88.7018 506.127 86.8164 505.932 85.0865 504.747V501.948H85.3198C86.9136 503.6 89.0128 503.853 90.1595 503.853C91.2869 503.853 92.6475 503.561 92.6475 502.298C92.6475 500.024 85.0865 501.715 85.0865 497.38C85.0865 495.184 87.244 493.998 89.8874 493.998C91.7534 493.998 93.4249 494.581 94.5328 495.456V497.905H94.319C93.25 496.836 91.5007 496.156 89.7708 496.156C88.488 496.156 87.3023 496.603 87.3023 497.575C87.3023 499.868 95.1937 498.177 95.1937 502.434C95.1937 504.727 93.3666 506.127 90.0818 506.127ZM43.5794 522.088C39.7083 522.088 37.4244 519.48 37.4244 516.224C37.4244 512.969 39.7083 510.361 43.5794 510.361C45.4745 510.361 46.7865 511.09 47.402 511.543V513.115H47.2401C45.7661 511.965 44.7457 511.803 43.4013 511.803C41.3928 511.803 38.785 513.115 38.785 516.241C38.785 518.816 40.8097 520.663 43.4013 520.663C44.7457 520.663 45.7661 520.484 47.2401 519.334H47.402V520.906C46.7865 521.359 45.4745 522.088 43.5794 522.088ZM53.8533 522.088C50.6462 522.088 48.6215 519.853 48.6215 517.067C48.6215 514.281 50.6624 511.981 53.8533 511.981C57.028 511.981 59.085 514.281 59.085 517.067C59.085 519.853 57.0604 522.088 53.8533 522.088ZM49.9011 517.067C49.9011 519.464 51.6666 520.825 53.8533 520.825C56.0399 520.825 57.8054 519.464 57.8054 517.067C57.8054 514.653 56.0399 513.309 53.8533 513.309C51.6666 513.309 49.9011 514.653 49.9011 517.067ZM60.5904 521.894V509.745H61.9834V521.894H60.5904ZM68.6113 522.088C65.4042 522.088 63.3795 519.853 63.3795 517.067C63.3795 514.281 65.4204 511.981 68.6113 511.981C71.786 511.981 73.843 514.281 73.843 517.067C73.843 519.853 71.8184 522.088 68.6113 522.088ZM64.6591 517.067C64.6591 519.464 66.4246 520.825 68.6113 520.825C70.7979 520.825 72.5634 519.464 72.5634 517.067C72.5634 514.653 70.7979 513.309 68.6113 513.309C66.4246 513.309 64.6591 514.653 64.6591 517.067ZM75.2218 521.894V512.175H76.6958L76.2747 517.698H76.4367C76.631 513.536 78.2832 511.981 80.5994 511.981V513.552H80.5508C79.9353 513.487 79.4008 513.568 78.9311 513.762C76.874 514.67 76.5986 517.65 76.5986 519.675V521.894H75.2218ZM85.7554 522.088C84.5567 522.088 82.9208 521.894 81.4468 520.792V519.253H81.625C82.937 520.646 84.8159 520.857 85.7877 520.857C86.9054 520.857 88.4279 520.549 88.4279 519.091C88.4279 516.565 81.544 518.363 81.544 514.653C81.544 512.985 83.1962 511.981 85.3828 511.981C86.8892 511.981 88.2983 512.45 89.2216 513.309V514.653H89.0596C88.2174 513.73 86.7596 513.163 85.3342 513.163C84.0222 513.163 82.7426 513.649 82.7426 514.75C82.7426 517.213 89.7723 515.463 89.7723 519.156C89.7723 520.841 88.5089 522.088 85.7554 522.088Z" fill="white"/>
<path d="M357.177 641.536L361.706 627.93H366.021L370.55 641.536H367.712L366.915 639.223C366.779 638.756 366.76 638.465 366.779 638.192H360.929C360.967 638.465 360.948 638.756 360.812 639.223L360.015 641.536H357.177ZM361.317 636.424H366.41V636.327C366.04 635.918 365.807 635.141 365.535 634.247C365.069 632.711 364.097 629.601 363.961 628.902H363.766C363.63 629.601 362.658 632.711 362.192 634.247C361.92 635.141 361.687 635.918 361.317 636.327V636.424ZM371.937 641.536V629.874H374.639L374.056 636.501H374.25C374.6 631.545 376.427 629.64 379.226 629.64C381.442 629.64 383.385 631.059 383.385 634.888V641.536H380.781V636.19C380.781 634.227 380.178 632.361 378.118 632.361C374.756 632.361 374.542 636.268 374.542 639.125V641.536H371.937ZM385.243 641.536V630.495H385.321C385.632 630.787 386.118 630.923 386.565 630.923C387.012 630.923 387.498 630.787 387.809 630.495H387.886V641.536H385.243ZM384.952 628.707C384.952 627.891 385.593 627.211 386.565 627.211C387.537 627.211 388.178 627.891 388.178 628.707C388.178 629.524 387.556 630.184 386.565 630.184C385.574 630.184 384.952 629.524 384.952 628.707ZM389.742 641.536V629.874H392.443L391.841 635.88H392.035C392.521 631.428 393.707 629.64 396.272 629.64C398.547 629.64 399.907 631.331 399.907 634.208C399.907 634.752 399.868 635.355 399.81 635.88H399.985C400.257 631.837 401.812 629.64 404.591 629.64C406.827 629.64 408.382 631.079 408.382 634.908V641.536H405.758V636.385C405.758 634.402 405.33 632.361 403.309 632.361C400.587 632.361 400.276 635.432 400.276 638.27V641.536H397.652V635.996C397.652 634.111 397.244 632.361 395.242 632.361C392.307 632.361 392.346 636.346 392.346 639.417V641.536H389.742ZM413.607 641.769C411.508 641.769 409.642 640.758 409.642 638.348C409.642 635.782 412.091 634.674 415.376 634.674C416.522 634.674 417.786 634.752 418.524 634.83V634.655C418.369 632.556 416.425 632.05 415.123 632.05C413.51 632.05 411.935 632.672 410.827 633.605H410.614V631.02C411.799 630.204 413.529 629.64 415.434 629.64C419.244 629.64 421.09 632.128 421.09 634.927V641.536H418.505V641.264L418.894 635.88H418.719C418.622 639.592 416.814 641.769 413.607 641.769ZM412.091 637.94C412.091 639.262 413.16 639.806 414.423 639.806C416.483 639.806 418 638.542 418.155 635.821H416.172C412.965 635.821 412.091 636.812 412.091 637.94ZM422.959 641.536V626.958H425.583V641.536H422.959ZM432.2 641.769C430.82 641.769 428.935 641.575 427.205 640.389V637.59H427.438C429.032 639.242 431.131 639.495 432.278 639.495C433.405 639.495 434.766 639.203 434.766 637.94C434.766 635.666 427.205 637.357 427.205 633.022C427.205 630.826 429.362 629.64 432.006 629.64C433.872 629.64 435.543 630.223 436.651 631.098V633.547H436.437C435.368 632.478 433.619 631.798 431.889 631.798C430.606 631.798 429.421 632.245 429.421 633.217C429.421 635.51 437.312 633.819 437.312 638.076C437.312 640.369 435.485 641.769 432.2 641.769ZM358.658 657.536L362.966 646.197H365.266L369.575 657.536H368.052L367.177 655.317C367.048 654.96 366.999 654.701 367.015 654.458H361.201C361.217 654.701 361.168 654.96 361.039 655.317L360.18 657.536H358.658ZM361.508 653.405H366.724V653.341C366.384 652.952 366.173 652.32 365.914 651.607C365.477 650.376 364.375 647.38 364.197 646.748H364.035C363.857 647.38 362.755 650.376 362.318 651.607C362.059 652.32 361.848 652.952 361.508 653.341V653.405ZM371.07 657.536V647.817H372.544L372.123 653.341H372.285C372.495 649.259 374.326 647.623 376.691 647.623C378.537 647.623 380.416 648.805 380.416 651.996V657.536H379.039V652.579C379.039 650.749 378.326 649.048 376.237 649.048C372.641 649.048 372.447 653.146 372.447 655.527V657.536H371.07ZM382.396 657.536V648.076H382.428C382.606 648.222 382.865 648.287 383.108 648.287C383.335 648.287 383.594 648.222 383.756 648.076H383.789V657.536H382.396ZM382.153 646.667C382.153 646.197 382.541 645.793 383.108 645.793C383.659 645.793 384.032 646.197 384.032 646.667C384.032 647.153 383.675 647.542 383.108 647.542C382.525 647.542 382.153 647.153 382.153 646.667ZM385.765 657.536V647.817H387.239L386.801 652.563H386.963C387.352 649.064 388.437 647.623 390.592 647.623C392.341 647.623 393.799 648.773 393.799 651.429C393.799 651.802 393.782 652.19 393.75 652.563H393.896C394.09 649.405 395.499 647.623 397.913 647.623C399.776 647.623 401.233 648.821 401.233 651.996V657.536H399.873V652.66C399.873 650.83 399.306 649.032 397.314 649.032C394.366 649.032 394.074 652.158 394.074 654.442V657.536H392.697V652.498C392.697 650.717 392.211 649.032 390.154 649.032C387.093 649.032 387.142 653.179 387.142 655.641V657.536H385.765ZM406.033 657.73C404.235 657.73 402.615 656.872 402.615 654.814C402.615 652.855 404.445 651.818 407.442 651.818C408.576 651.818 409.855 651.883 410.536 651.948V651.802C410.471 649.453 408.43 648.919 407.264 648.919C405.822 648.919 404.51 649.453 403.538 650.312H403.36V648.919C404.381 648.109 405.806 647.623 407.377 647.623C410.568 647.623 411.88 649.826 411.88 651.883V657.536H410.487V657.341L410.746 652.595H410.6C410.519 655.705 408.948 657.73 406.033 657.73ZM403.927 654.653C403.927 656.062 405.029 656.629 406.357 656.629C408.462 656.629 410.066 655.43 410.228 652.547H408.106C404.818 652.547 403.927 653.486 403.927 654.653ZM413.857 657.536V645.388H415.25V657.536H413.857ZM422.121 657.73C418.801 657.73 416.646 655.592 416.646 652.66C416.646 649.874 418.671 647.623 421.684 647.623C424.243 647.623 426.251 649.291 426.251 651.964C426.251 652.19 426.235 652.417 426.187 652.709L417.926 652.514C417.877 656.078 421.182 656.434 422.332 656.434C423.514 656.434 424.794 656.11 425.652 655.495H425.798V656.807C424.972 657.357 423.708 657.73 422.121 657.73ZM417.991 651.98L425.037 651.931C424.972 650.085 423.514 648.87 421.7 648.87C420.291 648.87 418.298 649.696 417.991 651.98ZM431.809 657.73C430.611 657.73 428.975 657.536 427.501 656.434V654.895H427.679C428.991 656.288 430.87 656.499 431.842 656.499C432.959 656.499 434.482 656.191 434.482 654.733C434.482 652.207 427.598 654.005 427.598 650.295C427.598 648.627 429.25 647.623 431.437 647.623C432.943 647.623 434.352 648.093 435.275 648.951V650.295H435.113C434.271 649.372 432.813 648.805 431.388 648.805C430.076 648.805 428.796 649.291 428.796 650.393C428.796 652.855 435.826 651.105 435.826 654.798C435.826 656.483 434.563 657.73 431.809 657.73Z" fill="white"/>
<path d="M187.073 231.236V221.187H186.023V219.574H187.073C187.073 217.339 188.647 216.425 190.63 216.425C191.213 216.425 191.757 216.503 192.301 216.639V218C192.029 217.941 191.602 217.864 191.154 217.864C190.26 217.864 189.327 218.155 189.289 219.574H192.301V221.401L189.677 221.129V231.236H187.073ZM196.125 231.47C194.026 231.47 192.16 230.459 192.16 228.049C192.16 225.483 194.609 224.375 197.894 224.375C199.041 224.375 200.304 224.453 201.043 224.531V224.356C200.887 222.256 198.944 221.751 197.641 221.751C196.028 221.751 194.454 222.373 193.346 223.306H193.132V220.721C194.318 219.905 196.047 219.341 197.952 219.341C201.762 219.341 203.608 221.829 203.608 224.628V231.236H201.023V230.964L201.412 225.58H201.237C201.14 229.293 199.332 231.47 196.125 231.47ZM194.609 227.641C194.609 228.962 195.678 229.506 196.942 229.506C199.002 229.506 200.518 228.243 200.673 225.522H198.691C195.484 225.522 194.609 226.513 194.609 227.641ZM205.477 231.236V219.574H208.179L207.577 225.58H207.771C208.257 221.129 209.442 219.341 212.008 219.341C214.282 219.341 215.643 221.032 215.643 223.909C215.643 224.453 215.604 225.055 215.546 225.58H215.721C215.993 221.537 217.548 219.341 220.327 219.341C222.562 219.341 224.117 220.779 224.117 224.608V231.236H221.493V226.086C221.493 224.103 221.066 222.062 219.044 222.062C216.323 222.062 216.012 225.133 216.012 227.971V231.236H213.388V225.697C213.388 223.811 212.98 222.062 210.978 222.062C208.043 222.062 208.082 226.047 208.082 229.118V231.236H205.477ZM225.958 231.236V220.196H226.036C226.347 220.488 226.833 220.624 227.28 220.624C227.727 220.624 228.213 220.488 228.524 220.196H228.602V231.236H225.958ZM225.667 218.408C225.667 217.592 226.308 216.911 227.28 216.911C228.252 216.911 228.893 217.592 228.893 218.408C228.893 219.224 228.271 219.885 227.28 219.885C226.289 219.885 225.667 219.224 225.667 218.408ZM230.552 231.236V216.659H233.176V231.236H230.552ZM238.182 234.385C237.443 234.385 236.666 234.249 236.102 234.035V231.761C236.413 231.897 237.074 232.111 237.677 232.111C238.979 232.111 239.504 231.586 240.806 230.206C241 230.051 241.253 229.837 241.642 229.779V229.623H238.668L234.469 219.574H237.249L239.426 224.861C239.912 226.144 240.573 227.835 240.573 228.787H240.748C240.748 227.835 241.408 226.105 241.894 224.861L244.071 219.574H246.851L242.322 230.556C241.389 233.316 239.99 234.385 238.182 234.385ZM190.629 247.236V238.393H189.722V237.518H190.629C190.629 235.85 191.682 234.894 193.366 234.894C193.852 234.894 194.241 234.959 194.678 235.072V235.931C194.468 235.866 194.03 235.769 193.577 235.769C192.734 235.769 191.86 236.044 191.844 237.518H194.678V238.555L192.006 238.312V247.236H190.629ZM198.192 247.431C196.394 247.431 194.774 246.572 194.774 244.515C194.774 242.555 196.605 241.519 199.601 241.519C200.735 241.519 202.015 241.583 202.695 241.648V241.502C202.63 239.154 200.589 238.619 199.423 238.619C197.982 238.619 196.67 239.154 195.698 240.012H195.52V238.619C196.54 237.809 197.965 237.324 199.536 237.324C202.727 237.324 204.039 239.526 204.039 241.583V247.236H202.646V247.042L202.906 242.296H202.76C202.679 245.406 201.108 247.431 198.192 247.431ZM196.086 244.353C196.086 245.762 197.188 246.329 198.516 246.329C200.622 246.329 202.225 245.131 202.387 242.248H200.265C196.977 242.248 196.086 243.187 196.086 244.353ZM206.016 247.236V237.518H207.49L207.053 242.264H207.215C207.604 238.765 208.689 237.324 210.843 237.324C212.593 237.324 214.05 238.474 214.05 241.13C214.05 241.502 214.034 241.891 214.002 242.264H214.148C214.342 239.105 215.751 237.324 218.165 237.324C220.027 237.324 221.485 238.522 221.485 241.697V247.236H220.124V242.361C220.124 240.531 219.557 238.733 217.565 238.733C214.617 238.733 214.326 241.859 214.326 244.143V247.236H212.949V242.199C212.949 240.417 212.463 238.733 210.406 238.733C207.345 238.733 207.393 242.879 207.393 245.341V247.236H206.016ZM223.479 247.236V237.777H223.512C223.69 237.923 223.949 237.988 224.192 237.988C224.419 237.988 224.678 237.923 224.84 237.777H224.872V247.236H223.479ZM223.236 236.368C223.236 235.898 223.625 235.493 224.192 235.493C224.743 235.493 225.115 235.898 225.115 236.368C225.115 236.854 224.759 237.243 224.192 237.243C223.609 237.243 223.236 236.854 223.236 236.368ZM226.975 247.236V235.088H228.368V247.236H226.975ZM230.471 247.236V237.777H230.503C230.681 237.923 230.94 237.988 231.183 237.988C231.41 237.988 231.669 237.923 231.831 237.777H231.864V247.236H230.471ZM230.228 236.368C230.228 235.898 230.617 235.493 231.183 235.493C231.734 235.493 232.107 235.898 232.107 236.368C232.107 236.854 231.75 237.243 231.183 237.243C230.6 237.243 230.228 236.854 230.228 236.368ZM236.772 247.431C234.974 247.431 233.354 246.572 233.354 244.515C233.354 242.555 235.184 241.519 238.181 241.519C239.315 241.519 240.594 241.583 241.275 241.648V241.502C241.21 239.154 239.169 238.619 238.003 238.619C236.561 238.619 235.249 239.154 234.277 240.012H234.099V238.619C235.12 237.809 236.545 237.324 238.116 237.324C241.307 237.324 242.619 239.526 242.619 241.583V247.236H241.226V247.042L241.485 242.296H241.339C241.258 245.406 239.687 247.431 236.772 247.431ZM234.666 244.353C234.666 245.762 235.767 246.329 237.096 246.329C239.201 246.329 240.805 245.131 240.967 242.248H238.845C235.557 242.248 234.666 243.187 234.666 244.353Z" fill="white"/>
<circle cx="360.32" cy="240.025" r="77.8421" fill="#FFB443"/>
<path d="M333.415 233.488C331.879 233.488 329.78 233.177 327.856 231.894V228.746H328.108C329.858 230.631 332.307 230.961 333.57 230.961C334.853 230.961 336.486 230.65 336.486 229.154C336.486 226.413 327.914 228.26 327.914 223.381C327.914 220.738 330.577 219.416 333.317 219.416C335.436 219.416 337.244 220.077 338.507 221.204V223.945H338.293C337.166 222.662 335.203 221.807 333.181 221.807C331.957 221.807 330.402 222.176 330.402 223.478C330.402 226.335 339.129 224.197 339.129 229.173C339.129 231.875 337.049 233.488 333.415 233.488ZM340.673 236.17V221.593H343.335L342.966 225.597H343.122C343.646 222.195 346.134 221.36 347.787 221.36C350.955 221.36 353.015 223.867 353.015 227.404C353.015 230.942 350.955 233.488 347.787 233.488C345.415 233.488 343.297 232.477 343.005 228.882H342.791L343.199 231.7V236.17H340.673ZM342.869 227.346C342.869 229.756 344.56 230.942 346.717 230.942C348.875 230.942 350.566 229.756 350.566 227.346C350.566 224.955 348.875 223.789 346.717 223.789C344.56 223.789 342.869 224.955 342.869 227.346ZM360.248 233.488C356.361 233.488 353.892 230.786 353.892 227.443C353.892 224.1 356.361 221.36 360.248 221.36C364.096 221.36 366.584 224.1 366.584 227.443C366.584 230.786 364.135 233.488 360.248 233.488ZM356.283 227.443C356.283 229.776 358.052 231.039 360.248 231.039C362.425 231.039 364.213 229.776 364.213 227.443C364.213 225.111 362.425 223.847 360.248 223.847C358.071 223.847 356.283 225.111 356.283 227.443ZM367.911 233.255V221.593H370.613L370.029 228.221H370.224C370.535 223.089 372.304 221.36 374.986 221.36V224.392H374.85C374.247 224.197 373.664 224.217 373.12 224.372C371.04 225.111 370.515 227.871 370.515 230.359V233.255H367.911ZM380.032 233.488C378.03 233.488 377.039 232.147 377.039 230.32V223.206H375.659V221.651C377.272 221.651 377.681 221.36 377.681 219.649H379.683V221.593H382.345V223.459L379.683 223.167V229.523C379.683 230.514 379.955 231.117 380.946 231.117C381.568 231.117 381.918 230.786 382.171 230.398H382.345V232.575C381.782 233.197 380.985 233.488 380.032 233.488ZM388.408 233.488C387.028 233.488 385.143 233.294 383.413 232.108V229.309H383.646C385.24 230.961 387.339 231.214 388.486 231.214C389.613 231.214 390.974 230.922 390.974 229.659C390.974 227.385 383.413 229.076 383.413 224.742C383.413 222.545 385.57 221.36 388.214 221.36C390.08 221.36 391.751 221.943 392.859 222.817V225.266H392.645C391.576 224.197 389.827 223.517 388.097 223.517C386.814 223.517 385.628 223.964 385.628 224.936C385.628 227.229 393.52 225.538 393.52 229.795C393.52 232.089 391.693 233.488 388.408 233.488ZM322.538 249.255V237.917H326.733C331.333 237.917 332.823 240.573 332.823 243.602C332.823 246.631 331.333 249.255 326.733 249.255H322.538ZM323.963 247.991H327.057C329.762 247.991 331.398 246.534 331.398 243.602C331.398 240.654 329.762 239.18 327.057 239.18H323.963V247.991ZM339.61 249.449C336.29 249.449 334.135 247.311 334.135 244.379C334.135 241.594 336.16 239.342 339.173 239.342C341.732 239.342 343.74 241.01 343.74 243.683C343.74 243.91 343.724 244.137 343.676 244.428L335.415 244.234C335.366 247.797 338.671 248.153 339.821 248.153C341.003 248.153 342.283 247.83 343.141 247.214H343.287V248.526C342.461 249.077 341.197 249.449 339.61 249.449ZM335.48 243.699L342.526 243.651C342.461 241.804 341.003 240.589 339.189 240.589C337.78 240.589 335.787 241.415 335.48 243.699ZM345.25 251.684V239.536H346.675L346.384 242.873H346.513C346.935 240.006 349.348 239.342 350.725 239.342C353.462 239.342 355.341 241.334 355.341 244.379C355.341 247.408 353.462 249.449 350.725 249.449C348.538 249.449 346.708 248.396 346.416 245.61H346.27L346.578 247.959V251.684H345.25ZM346.416 244.347C346.416 246.858 348.068 248.105 350.206 248.105C352.361 248.105 354.029 246.858 354.029 244.347C354.029 241.853 352.361 240.638 350.206 240.638C348.068 240.638 346.416 241.853 346.416 244.347ZM361.496 249.449C358.289 249.449 356.264 247.214 356.264 244.428C356.264 241.642 358.305 239.342 361.496 239.342C364.671 239.342 366.728 241.642 366.728 244.428C366.728 247.214 364.703 249.449 361.496 249.449ZM357.544 244.428C357.544 246.825 359.309 248.186 361.496 248.186C363.683 248.186 365.448 246.825 365.448 244.428C365.448 242.015 363.683 240.67 361.496 240.67C359.309 240.67 357.544 242.015 357.544 244.428ZM368.107 249.255V239.536H369.581L369.16 245.06H369.321C369.516 240.897 371.168 239.342 373.484 239.342V240.913H373.436C372.82 240.848 372.286 240.929 371.816 241.124C369.759 242.031 369.483 245.011 369.483 247.036V249.255H368.107ZM377.517 249.449C376.011 249.449 375.346 248.445 375.346 247.133V240.411H374.132V239.569C375.476 239.569 375.654 239.391 375.654 237.917H376.723V239.536H379.234V240.589L376.723 240.346V246.744C376.723 247.651 376.982 248.186 377.889 248.186C378.521 248.186 378.877 247.83 379.104 247.473H379.234V248.72C378.829 249.222 378.23 249.449 377.517 249.449ZM385.402 249.449C382.082 249.449 379.928 247.311 379.928 244.379C379.928 241.594 381.952 239.342 384.965 239.342C387.524 239.342 389.533 241.01 389.533 243.683C389.533 243.91 389.517 244.137 389.468 244.428L381.207 244.234C381.159 247.797 384.463 248.153 385.613 248.153C386.795 248.153 388.075 247.83 388.934 247.214H389.079V248.526C388.253 249.077 386.99 249.449 385.402 249.449ZM381.272 243.699L388.318 243.651C388.253 241.804 386.795 240.589 384.981 240.589C383.572 240.589 381.58 241.415 381.272 243.699ZM395.091 249.449C393.892 249.449 392.256 249.255 390.782 248.153V246.615H390.96C392.272 248.008 394.151 248.218 395.123 248.218C396.241 248.218 397.763 247.91 397.763 246.453C397.763 243.926 390.879 245.724 390.879 242.015C390.879 240.346 392.531 239.342 394.718 239.342C396.225 239.342 397.634 239.812 398.557 240.67V242.015H398.395C397.553 241.091 396.095 240.524 394.67 240.524C393.358 240.524 392.078 241.01 392.078 242.112C392.078 244.574 399.108 242.825 399.108 246.518C399.108 248.202 397.844 249.449 395.091 249.449Z" fill="white"/>
<path d="M198.197 87.5609C193.571 87.5609 190.792 84.451 190.792 80.5247C190.792 76.6179 193.571 73.4886 198.197 73.4886C200.374 73.4886 201.949 74.2855 202.668 74.8103V77.8424H202.435C200.802 76.443 199.597 76.1903 198.061 76.1903C195.787 76.1903 193.319 77.5509 193.319 80.5247C193.319 83.071 195.34 84.8786 198.061 84.8786C199.597 84.8786 200.802 84.6259 202.435 83.2265H202.668V86.2197C201.949 86.7445 200.374 87.5609 198.197 87.5609ZM210.4 87.5609C206.415 87.5609 203.83 84.9563 203.83 81.4771C203.83 78.134 206.26 75.4323 209.875 75.4323C212.907 75.4323 215.356 77.3371 215.356 80.5442C215.356 80.8746 215.337 81.2245 215.259 81.6326L206.26 81.3605C206.279 84.6648 209.312 85.1313 210.711 85.1313C212.13 85.1313 213.588 84.7425 214.618 84.0039H214.812V86.4919C213.86 87.1138 212.305 87.5609 210.4 87.5609ZM206.357 80.6025L213.102 80.5053C212.985 78.8337 211.625 77.7258 209.914 77.7258C208.534 77.7258 206.726 78.5227 206.357 80.6025ZM216.881 87.3276V72.75H219.505V87.3276H216.881ZM227.407 87.5609C223.423 87.5609 220.838 84.9563 220.838 81.4771C220.838 78.134 223.267 75.4323 226.883 75.4323C229.915 75.4323 232.364 77.3371 232.364 80.5442C232.364 80.8746 232.344 81.2245 232.267 81.6326L223.267 81.3605C223.287 84.6648 226.319 85.1313 227.718 85.1313C229.137 85.1313 230.595 84.7425 231.625 84.0039H231.819V86.4919C230.867 87.1138 229.312 87.5609 227.407 87.5609ZM223.364 80.6025L230.109 80.5053C229.992 78.8337 228.632 77.7258 226.921 77.7258C225.541 77.7258 223.734 78.5227 223.364 80.6025ZM241.002 87.5609C239.35 87.5609 236.862 86.7251 236.337 83.3236H236.182L236.551 87.3276H233.888V72.75H236.415V77.2205L236.007 80.0388H236.221C236.512 76.4235 238.806 75.4323 241.002 75.4323C244.17 75.4323 246.231 77.9785 246.231 81.516C246.231 85.0535 244.17 87.5609 241.002 87.5609ZM236.085 81.5549C236.085 83.9651 237.776 85.1118 239.933 85.1118C242.091 85.1118 243.782 83.9651 243.782 81.5549C243.782 79.1447 242.091 77.9591 239.933 77.9591C237.776 77.9591 236.085 79.1447 236.085 81.5549ZM247.555 87.3276V75.6655H250.257L249.673 82.2935H249.868C250.179 77.1621 251.948 75.4323 254.63 75.4323V78.4644H254.494C253.891 78.27 253.308 78.2895 252.764 78.445C250.684 79.1836 250.159 81.9436 250.159 84.4315V87.3276H247.555ZM258.551 87.5609C256.451 87.5609 254.586 86.5502 254.586 84.14C254.586 81.5743 257.035 80.4664 260.319 80.4664C261.466 80.4664 262.73 80.5442 263.468 80.6219V80.447C263.313 78.3478 261.369 77.8424 260.067 77.8424C258.453 77.8424 256.879 78.4644 255.771 79.3974H255.557V76.8123C256.743 75.9959 258.473 75.4323 260.378 75.4323C264.187 75.4323 266.034 77.9202 266.034 80.7191V87.3276H263.449V87.0555L263.838 81.6715H263.663C263.565 85.3839 261.758 87.5609 258.551 87.5609ZM257.035 83.7318C257.035 85.0535 258.104 85.5978 259.367 85.5978C261.427 85.5978 262.943 84.3344 263.099 81.6132H261.116C257.909 81.6132 257.035 82.6045 257.035 83.7318ZM273.756 87.5609C269.771 87.5609 267.361 84.8592 267.361 81.4771C267.361 78.134 269.771 75.4323 273.756 75.4323C275.622 75.4323 277.021 76.1514 277.604 76.5985V79.3391H277.429C275.991 78.2312 274.844 77.9007 273.62 77.9007C272.026 77.9007 269.868 78.9115 269.868 81.4771C269.868 84.0428 272.026 85.0924 273.62 85.0924C274.844 85.0924 276.03 84.8203 277.429 83.6541H277.604V86.3947C277.021 86.9 275.641 87.5609 273.756 87.5609ZM279.026 87.3276V76.2875H279.104C279.415 76.579 279.901 76.7151 280.348 76.7151C280.795 76.7151 281.281 76.579 281.592 76.2875H281.669V87.3276H279.026ZM278.734 74.4993C278.734 73.6829 279.376 73.0026 280.348 73.0026C281.319 73.0026 281.961 73.6829 281.961 74.4993C281.961 75.3156 281.339 75.9765 280.348 75.9765C279.356 75.9765 278.734 75.3156 278.734 74.4993ZM289.338 87.5609C285.451 87.5609 282.983 84.8592 282.983 81.516C282.983 78.1729 285.451 75.4323 289.338 75.4323C293.187 75.4323 295.675 78.1729 295.675 81.516C295.675 84.8592 293.226 87.5609 289.338 87.5609ZM285.373 81.516C285.373 83.8484 287.142 85.1118 289.338 85.1118C291.515 85.1118 293.304 83.8484 293.304 81.516C293.304 79.1836 291.515 77.9202 289.338 77.9202C287.161 77.9202 285.373 79.1836 285.373 81.516ZM297.001 87.3276V75.6655H299.703L299.12 82.2935H299.314C299.664 77.3371 301.491 75.4323 304.29 75.4323C306.506 75.4323 308.45 76.8511 308.45 80.6802V87.3276H305.845V81.9825C305.845 80.0194 305.243 78.1534 303.182 78.1534C299.82 78.1534 299.606 82.0602 299.606 84.9175V87.3276H297.001ZM316.335 87.5609C312.35 87.5609 309.765 84.9563 309.765 81.4771C309.765 78.134 312.195 75.4323 315.81 75.4323C318.842 75.4323 321.291 77.3371 321.291 80.5442C321.291 80.8746 321.272 81.2245 321.194 81.6326L312.195 81.3605C312.214 84.6648 315.246 85.1313 316.646 85.1313C318.065 85.1313 319.523 84.7425 320.553 84.0039H320.747V86.4919C319.795 87.1138 318.24 87.5609 316.335 87.5609ZM312.292 80.6025L319.037 80.5053C318.92 78.8337 317.559 77.7258 315.849 77.7258C314.469 77.7258 312.661 78.5227 312.292 80.6025ZM327.464 87.5609C326.084 87.5609 324.198 87.3665 322.468 86.1809V83.3819H322.702C324.295 85.0341 326.395 85.2868 327.541 85.2868C328.669 85.2868 330.029 84.9952 330.029 83.7318C330.029 81.4577 322.468 83.1487 322.468 78.8143C322.468 76.6179 324.626 75.4323 327.269 75.4323C329.135 75.4323 330.807 76.0154 331.915 76.89V79.3391H331.701C330.632 78.27 328.882 77.5898 327.153 77.5898C325.87 77.5898 324.684 78.0368 324.684 79.0086C324.684 81.3022 332.576 79.6112 332.576 83.8679C332.576 86.1614 330.748 87.5609 327.464 87.5609ZM215.767 103.522C211.895 103.522 209.612 100.914 209.612 97.6585C209.612 94.4029 211.895 91.7951 215.767 91.7951C217.662 91.7951 218.974 92.524 219.589 92.9775V94.5486H219.427C217.953 93.3986 216.933 93.2366 215.588 93.2366C213.58 93.2366 210.972 94.5486 210.972 97.6747C210.972 100.25 212.997 102.097 215.588 102.097C216.933 102.097 217.953 101.918 219.427 100.768H219.589V102.34C218.974 102.793 217.662 103.522 215.767 103.522ZM226.283 103.522C222.963 103.522 220.809 101.384 220.809 98.4522C220.809 95.6663 222.833 93.4148 225.846 93.4148C228.405 93.4148 230.414 95.0832 230.414 97.7557C230.414 97.9825 230.398 98.2093 230.349 98.5008L222.088 98.3064C222.04 101.87 225.344 102.226 226.494 102.226C227.676 102.226 228.956 101.902 229.814 101.287H229.96V102.599C229.134 103.149 227.871 103.522 226.283 103.522ZM222.153 97.7719L229.199 97.7233C229.134 95.8768 227.676 94.662 225.862 94.662C224.453 94.662 222.461 95.4881 222.153 97.7719ZM232.05 103.328V91.1796H233.443V103.328H232.05ZM240.314 103.522C236.993 103.522 234.839 101.384 234.839 98.4522C234.839 95.6663 236.864 93.4148 239.876 93.4148C242.436 93.4148 244.444 95.0832 244.444 97.7557C244.444 97.9825 244.428 98.2093 244.379 98.5008L236.119 98.3064C236.07 101.87 239.374 102.226 240.524 102.226C241.707 102.226 242.986 101.902 243.845 101.287H243.991V102.599C243.165 103.149 241.901 103.522 240.314 103.522ZM236.183 97.7719L243.229 97.7233C243.165 95.8768 241.707 94.662 239.893 94.662C238.484 94.662 236.491 95.4881 236.183 97.7719ZM251.555 103.522C250.178 103.522 247.765 102.858 247.344 99.991H247.214L247.506 103.328H246.08V91.1796H247.409V94.905L247.101 97.2536H247.247C247.538 94.4677 249.433 93.4148 251.555 93.4148C254.292 93.4148 256.171 95.4395 256.171 98.4846C256.171 101.514 254.292 103.522 251.555 103.522ZM247.247 98.517C247.247 101.011 248.899 102.226 251.037 102.226C253.191 102.226 254.859 101.011 254.859 98.517C254.859 96.0064 253.191 94.7592 251.037 94.7592C248.899 94.7592 247.247 96.0064 247.247 98.517ZM257.548 103.328V93.6092H259.022L258.601 99.1325H258.763C258.957 94.9698 260.61 93.4148 262.926 93.4148V94.986H262.877C262.262 94.9212 261.727 95.0022 261.257 95.1965C259.2 96.1036 258.925 99.0839 258.925 101.109V103.328H257.548ZM266.522 103.522C264.724 103.522 263.105 102.664 263.105 100.606C263.105 98.6466 264.935 97.6099 267.932 97.6099C269.065 97.6099 270.345 97.6747 271.025 97.7395V97.5938C270.96 95.2451 268.92 94.7106 267.753 94.7106C266.312 94.7106 265 95.2451 264.028 96.1036H263.85V94.7106C264.87 93.9007 266.296 93.4148 267.867 93.4148C271.058 93.4148 272.37 95.6177 272.37 97.6747V103.328H270.977V103.133L271.236 98.3874H271.09C271.009 101.497 269.438 103.522 266.522 103.522ZM264.417 100.444C264.417 101.854 265.518 102.421 266.846 102.421C268.952 102.421 270.556 101.222 270.718 98.3388H268.596C265.308 98.3388 264.417 99.2783 264.417 100.444ZM276.75 103.522C275.243 103.522 274.579 102.518 274.579 101.206V94.4838H273.364V93.6416C274.709 93.6416 274.887 93.4634 274.887 91.9894H275.956V93.6092H278.467V94.662L275.956 94.4191V100.817C275.956 101.724 276.215 102.259 277.122 102.259C277.754 102.259 278.11 101.902 278.337 101.546H278.467V102.793C278.062 103.295 277.462 103.522 276.75 103.522ZM279.899 103.328V93.8683H279.931C280.109 94.0141 280.369 94.0789 280.611 94.0789C280.838 94.0789 281.097 94.0141 281.259 93.8683H281.292V103.328H279.899ZM279.656 92.4592C279.656 91.9894 280.045 91.5845 280.611 91.5845C281.162 91.5845 281.535 91.9894 281.535 92.4592C281.535 92.9451 281.178 93.3338 280.611 93.3338C280.028 93.3338 279.656 92.9451 279.656 92.4592ZM287.92 103.522C284.713 103.522 282.688 101.287 282.688 98.5008C282.688 95.7149 284.729 93.4148 287.92 93.4148C291.094 93.4148 293.151 95.7149 293.151 98.5008C293.151 101.287 291.127 103.522 287.92 103.522ZM283.967 98.5008C283.967 100.898 285.733 102.259 287.92 102.259C290.106 102.259 291.872 100.898 291.872 98.5008C291.872 96.0874 290.106 94.743 287.92 94.743C285.733 94.743 283.967 96.0874 283.967 98.5008ZM294.53 103.328V93.6092H296.004L295.583 99.1325H295.745C295.956 95.0508 297.786 93.4148 300.151 93.4148C301.997 93.4148 303.876 94.5972 303.876 97.7881V103.328H302.499V98.3712C302.499 96.5409 301.787 94.8402 299.697 94.8402C296.101 94.8402 295.907 98.9381 295.907 101.319V103.328H294.53ZM309.73 103.522C308.531 103.522 306.895 103.328 305.421 102.226V100.687H305.6C306.912 102.08 308.791 102.291 309.762 102.291C310.88 102.291 312.403 101.983 312.403 100.525C312.403 97.9987 305.519 99.7966 305.519 96.0874C305.519 94.4191 307.171 93.4148 309.357 93.4148C310.864 93.4148 312.273 93.8845 313.196 94.743V96.0874H313.034C312.192 95.1641 310.734 94.5972 309.309 94.5972C307.997 94.5972 306.717 95.0832 306.717 96.1846C306.717 98.6466 313.747 96.8973 313.747 100.59C313.747 102.275 312.484 103.522 309.73 103.522Z" fill="white"/>
</svg>
