<svg  viewBox="0 0 757 117" fill="none" xmlns="http://www.w3.org/2000/svg">
<path d="M29.336 96L0.408 19.2H18.584L33.816 58.496C36.76 66.944 40.6 80.896 40.6 87.168H41.88C41.88 80.896 45.592 66.688 48.536 58.496L63.768 19.2H81.944L53.144 96H29.336ZM122.056 97.536C96.456 97.536 80.2 79.744 80.2 57.728C80.2 35.712 96.456 17.664 122.056 17.664C147.4 17.664 163.784 35.712 163.784 57.728C163.784 79.744 147.656 97.536 122.056 97.536ZM95.944 57.728C95.944 73.088 107.592 81.408 122.056 81.408C136.392 81.408 148.168 73.088 148.168 57.728C148.168 42.368 136.392 34.048 122.056 34.048C107.72 34.048 95.944 42.368 95.944 57.728ZM211.687 97.536C185.447 97.536 169.575 79.744 169.575 57.472C169.575 35.456 185.447 17.664 211.687 17.664C223.975 17.664 233.191 22.4 237.031 25.344V43.392H235.879C226.407 36.096 218.855 33.92 210.791 33.92C200.295 33.92 186.087 40.576 186.087 57.472C186.087 74.368 200.295 81.28 210.791 81.28C218.855 81.28 226.663 79.488 235.879 71.808H237.031V89.856C233.191 93.184 224.103 97.536 211.687 97.536ZM268.681 97.536C254.857 97.536 242.569 90.88 242.569 75.008C242.569 58.112 258.697 50.816 280.329 50.816C287.881 50.816 296.201 51.328 301.065 51.84V50.688C300.041 36.864 287.241 33.536 278.665 33.536C268.041 33.536 257.673 37.632 250.377 43.776H248.969V26.752C256.777 21.376 268.169 17.664 280.713 17.664C305.801 17.664 317.961 34.048 317.961 52.48V96H300.937V94.208L303.497 58.752H302.345C301.705 83.2 289.801 97.536 268.681 97.536ZM258.697 72.32C258.697 81.024 265.737 84.608 274.057 84.608C287.625 84.608 297.609 76.288 298.633 58.368H285.577C264.457 58.368 258.697 64.896 258.697 72.32ZM377.117 97.536C366.237 97.536 349.853 92.032 346.397 69.632H345.373L347.805 96H330.269V-7.62939e-06H346.909V29.44L344.221 48H345.629C347.549 24.192 362.653 17.664 377.117 17.664C397.981 17.664 411.549 34.432 411.549 57.728C411.549 81.024 397.981 97.536 377.117 97.536ZM344.733 57.984C344.733 73.856 355.869 81.408 370.077 81.408C384.285 81.408 395.421 73.856 395.421 57.984C395.421 42.112 384.285 34.304 370.077 34.304C355.869 34.304 344.733 42.112 344.733 57.984ZM448.798 97.536C434.206 97.536 420.894 88.704 420.894 63.488V19.2H438.046V54.912C438.046 67.968 442.398 79.488 456.35 79.488C476.19 79.488 478.494 58.752 478.494 37.632V19.2H495.646V96H477.854L481.694 52.352H480.414C478.11 84.864 467.23 97.536 448.798 97.536ZM508.519 96V-7.62939e-06H525.799V96H508.519ZM561.056 97.536C547.232 97.536 534.944 90.88 534.944 75.008C534.944 58.112 551.072 50.816 572.704 50.816C580.256 50.816 588.576 51.328 593.44 51.84V50.688C592.416 36.864 579.616 33.536 571.04 33.536C560.416 33.536 550.048 37.632 542.752 43.776H541.344V26.752C549.152 21.376 560.544 17.664 573.088 17.664C598.176 17.664 610.336 34.048 610.336 52.48V96H593.312V94.208L595.872 58.752H594.72C594.08 83.2 582.176 97.536 561.056 97.536ZM551.072 72.32C551.072 81.024 558.112 84.608 566.432 84.608C580 84.608 589.984 76.288 591.008 58.368H577.952C556.832 58.368 551.072 64.896 551.072 72.32ZM622.644 96V19.2H640.436L636.596 62.848H637.876C639.924 29.056 651.572 17.664 669.236 17.664V37.632H668.34C664.372 36.352 660.532 36.48 656.948 37.504C643.252 42.368 639.796 60.544 639.796 76.928V96H622.644ZM699.142 116.736C694.278 116.736 689.158 115.84 685.446 114.432V99.456C687.494 100.352 691.846 101.76 695.814 101.76C704.39 101.76 707.846 98.304 716.422 89.216C717.702 88.192 719.366 86.784 721.926 86.4V85.376H702.342L674.694 19.2H692.998L707.334 54.016C710.534 62.464 714.886 73.6 714.886 79.872H716.038C716.038 73.6 720.39 62.208 723.59 54.016L737.926 19.2H756.23L726.406 91.52C720.262 109.696 711.046 116.736 699.142 116.736Z" fill="white"/>
</svg>
