<svg width="58" height="55" viewBox="0 0 58 55" fill="none" xmlns="http://www.w3.org/2000/svg">
<path d="M28.9525 54C44.3903 54 56.9051 42.0507 56.9051 27.3106C56.9051 12.5704 44.3903 0.621094 28.9525 0.621094C13.5148 0.621094 1 12.5704 1 27.3106C1 42.0507 13.5148 54 28.9525 54Z" fill="white" stroke="#CCCCCC" stroke-width="0.5" stroke-miterlimit="10"/>
<path d="M29.2598 12.6089C31.5288 9.75447 34.6813 9.74219 34.6813 9.74219C34.6813 9.74219 35.1488 12.4247 32.897 15.0088C30.4908 17.7691 27.7586 17.3186 27.7586 17.3186C27.7586 17.3186 27.2396 15.1481 29.2598 12.6089ZM28.0416 19.1943C29.2083 19.1943 31.3744 17.6626 34.1924 17.6626C39.0434 17.6626 40.9521 20.9594 40.9521 20.9594C40.9521 20.9594 37.2205 22.7818 37.2205 27.2007C37.2205 32.1889 41.8699 33.9089 41.8699 33.9089C41.8699 33.9089 38.6188 42.6443 34.231 42.6443C32.2151 42.6443 30.6452 41.3461 28.5221 41.3461C26.3561 41.3461 24.2071 42.6935 22.8089 42.6935C18.7985 42.6935 13.7373 34.4085 13.7373 27.7495C13.7373 21.1969 18.0221 17.7609 22.0454 17.7609C24.6575 17.7568 26.6863 19.1943 28.0416 19.1943Z" fill="#999999"/>
</svg>
