<svg width="57" height="55" viewBox="0 0 57 55" fill="none" xmlns="http://www.w3.org/2000/svg">
<path d="M28.73 54C44.1678 54 56.6825 42.0507 56.6825 27.3106C56.6825 12.5704 44.1678 0.621094 28.73 0.621094C13.2922 0.621094 0.777344 12.5704 0.777344 27.3106C0.777344 42.0507 13.2922 54 28.73 54Z" fill="white" stroke="#CCCCCC" stroke-width="0.5" stroke-miterlimit="10"/>
<path d="M46.216 27.5353C46.216 18.3167 38.3839 10.8345 28.7247 10.8345C28.4459 10.8345 28.1542 10.8468 27.8711 10.8549C18.8596 11.2686 11.5036 18.4109 11.2334 27.0316V27.5312C11.2334 35.7465 17.4913 42.5039 25.9924 43.7857V32.7283H21.4974V27.3674H25.9924V23.5792C25.9924 19.275 28.7846 16.912 33.0438 16.912C34.4464 16.9243 35.8446 17.0348 37.2215 17.2355V21.9943H34.7681C32.3618 21.9943 31.6027 23.3212 31.6027 24.6809V27.3674H36.4023L35.6431 32.7283H31.6027C31.5898 36.4182 31.5812 40.0958 31.5555 43.7857C32.7007 43.6424 38.8772 42.7619 42.9991 37.4297C46.1816 33.3098 46.2503 28.9605 46.216 27.5353Z" fill="#3A589E"/>
</svg>
