<svg width="57" height="55" viewBox="0 0 57 55" fill="none" xmlns="http://www.w3.org/2000/svg">
<path d="M28.3402 54C43.778 54 56.2929 42.0507 56.2929 27.3106C56.2929 12.5704 43.778 0.621094 28.3402 0.621094C12.9025 0.621094 0.387695 12.5704 0.387695 27.3106C0.387695 42.0507 12.9025 54 28.3402 54Z" fill="white" stroke="#CCCCCC" stroke-width="0.5" stroke-miterlimit="10"/>
<mask id="mask0_1628_9700" style="mask-type:luminance" maskUnits="userSpaceOnUse" x="11" y="10" width="35" height="34">
<path d="M44.8095 24.3159H28.7294V30.6801H37.9853C37.1232 34.7222 33.5161 37.0443 28.7294 37.0443C23.0805 37.0443 18.534 32.6991 18.534 27.3096C18.534 21.916 23.0848 17.5749 28.7294 17.5749C31.1613 17.5749 33.3573 18.3981 35.0816 19.7455L40.1 14.9539C37.0418 12.4066 33.1172 10.834 28.7251 10.834C19.1559 10.834 11.4697 18.1729 11.4697 27.3096C11.4697 36.4464 19.1559 43.7852 28.7251 43.7852C37.3549 43.7852 45.1955 37.7937 45.1955 27.3096C45.204 26.339 45.0454 25.2906 44.8095 24.3159Z" fill="white"/>
</mask>
<g mask="url(#mask0_1628_9700)">
<path d="M9.9082 37.0491V17.5757L23.2433 27.3104L9.9082 37.0491Z" fill="#FBBC05"/>
</g>
<mask id="mask1_1628_9700" style="mask-type:luminance" maskUnits="userSpaceOnUse" x="11" y="10" width="35" height="34">
<path d="M44.8095 24.3159H28.7294V30.6801H37.9853C37.1232 34.7222 33.5161 37.0443 28.7294 37.0443C23.0805 37.0443 18.534 32.6991 18.534 27.3096C18.534 21.916 23.0848 17.5749 28.7294 17.5749C31.1613 17.5749 33.3573 18.3981 35.0816 19.7455L40.1 14.9539C37.0418 12.4066 33.1172 10.834 28.7251 10.834C19.1559 10.834 11.4697 18.1729 11.4697 27.3096C11.4697 36.4464 19.1559 43.7852 28.7251 43.7852C37.3549 43.7852 45.1955 37.7937 45.1955 27.3096C45.204 26.339 45.0454 25.2906 44.8095 24.3159Z" fill="white"/>
</mask>
<g mask="url(#mask1_1628_9700)">
<path d="M9.9082 17.5746L23.2433 27.3093L28.7335 22.743L47.5586 19.823V9.33887H9.9082V17.5746Z" fill="#EA4335"/>
</g>
<mask id="mask2_1628_9700" style="mask-type:luminance" maskUnits="userSpaceOnUse" x="11" y="10" width="35" height="34">
<path d="M44.8095 24.3159H28.7294V30.6801H37.9853C37.1232 34.7222 33.5161 37.0443 28.7294 37.0443C23.0805 37.0443 18.534 32.6991 18.534 27.3096C18.534 21.916 23.0848 17.5749 28.7294 17.5749C31.1613 17.5749 33.3573 18.3981 35.0816 19.7455L40.1 14.9539C37.0418 12.4066 33.1172 10.834 28.7251 10.834C19.1559 10.834 11.4697 18.1729 11.4697 27.3096C11.4697 36.4464 19.1559 43.7852 28.7251 43.7852C37.3549 43.7852 45.1955 37.7937 45.1955 27.3096C45.204 26.339 45.0454 25.2906 44.8095 24.3159Z" fill="white"/>
</mask>
<g mask="url(#mask2_1628_9700)">
<path d="M9.9082 37.0481L33.4387 19.823L39.6365 20.5724L47.5586 9.33887V45.2879H9.9082V37.0481Z" fill="#34A853"/>
</g>
<mask id="mask3_1628_9700" style="mask-type:luminance" maskUnits="userSpaceOnUse" x="11" y="10" width="35" height="34">
<path d="M44.8095 24.3159H28.7294V30.6801H37.9853C37.1232 34.7222 33.5161 37.0443 28.7294 37.0443C23.0805 37.0443 18.534 32.6991 18.534 27.3096C18.534 21.916 23.0848 17.5749 28.7294 17.5749C31.1613 17.5749 33.3573 18.3981 35.0816 19.7455L40.1 14.9539C37.0418 12.4066 33.1172 10.834 28.7251 10.834C19.1559 10.834 11.4697 18.1729 11.4697 27.3096C11.4697 36.4464 19.1559 43.7852 28.7251 43.7852C37.3549 43.7852 45.1955 37.7937 45.1955 27.3096C45.204 26.339 45.0454 25.2906 44.8095 24.3159Z" fill="white"/>
</mask>
<g mask="url(#mask3_1628_9700)">
<path d="M47.5542 45.2841L23.2389 27.3096L20.1035 25.0612L47.5542 17.5708V45.2841Z" fill="#4285F4"/>
</g>
</svg>
