<svg width="156" height="151" viewBox="0 0 196 191" fill="none" xmlns="http://www.w3.org/2000/svg">
<path d="M32.1104 6.73943L42.4063 82.421L94.8854 85.6284L95.6337 84.1567L97.5322 117.6L113.694 87.2625L123.071 87.6482L135.532 0L32.1104 6.73943ZM120.218 84.0298L110.937 83.6948L98.5216 104.816L97.0048 82.4058L45.7361 79.2289L37.4441 10.9465L127.978 6.57704L120.213 84.0349L120.218 84.0298Z" fill="white"/>
<path d="M0 131.954H7.36178L11.8835 143.965C12.5076 145.476 12.9597 146.741 13.2475 147.761C13.5352 148.781 13.7258 149.883 13.8267 151.066H14.0509C14.1742 149.883 14.3798 148.781 14.6675 147.761C14.9552 146.741 15.4074 145.476 16.0315 143.965L20.5532 131.954H27.915V158.393H22.9448V147.062C22.971 144.494 23.0682 142.159 23.2438 140.055C23.4194 137.952 23.7034 136.146 24.1033 134.635H23.8043L15.3588 158.393H12.5935L4.11064 134.635H3.81169C4.21154 136.146 4.49554 137.952 4.67118 140.055C4.84681 142.159 4.94398 144.494 4.97014 147.062V158.393H0V131.954Z" fill="white"/>
<path d="M31.9319 135.541C31.3452 134.986 31.0537 134.295 31.0537 133.464C31.0537 132.633 31.3452 131.972 31.9319 131.406C32.5186 130.839 33.2697 130.556 34.1927 130.556C35.1158 130.556 35.8632 130.839 36.4349 131.406C37.0067 131.972 37.2944 132.66 37.2944 133.464C37.2944 134.269 37.0067 134.986 36.4349 135.541C35.8632 136.097 35.1158 136.372 34.1927 136.372C33.2697 136.372 32.5186 136.097 31.9319 135.541ZM31.6143 136.939H31.7637C32.0627 137.215 32.4252 137.422 32.8475 137.562C33.2697 137.702 33.7181 137.77 34.1927 137.77C34.6412 137.77 35.0784 137.702 35.5007 137.562C35.9229 137.422 36.2854 137.215 36.5844 136.939H36.7339V158.393H31.6143V136.939Z" fill="white"/>
<path d="M44.9755 157.298C43.1182 156.267 41.6982 154.85 40.7154 153.049C39.7325 151.247 39.2393 149.241 39.2393 147.024C39.2393 144.807 39.7325 142.881 40.7154 141.094C41.6982 139.308 43.1182 137.891 44.9755 136.845C46.8327 135.799 49.0039 135.277 51.4964 135.277C53.1145 135.277 54.5682 135.512 55.85 135.976C57.1317 136.441 58.1594 136.966 58.9329 137.544V142.869H58.5593C57.2401 141.838 56.0069 141.113 54.8597 140.697C53.7124 140.282 52.5054 140.074 51.2348 140.074C50.1399 140.074 49.0375 140.32 47.9276 140.811C46.8178 141.302 45.8985 142.076 45.1623 143.134C44.4261 144.191 44.0599 145.502 44.0599 147.062C44.0599 148.622 44.4261 149.895 45.1623 150.952C45.8985 152.01 46.8253 152.792 47.9463 153.294C49.0674 153.796 50.1623 154.05 51.2348 154.05C52.5801 154.05 53.8245 153.849 54.9718 153.445C56.119 153.041 57.3149 152.312 58.5593 151.254H58.9329V156.618C58.2341 157.196 57.2326 157.713 55.9247 158.167C54.6168 158.62 53.1407 158.846 51.4964 158.846C49.0039 158.846 46.8327 158.329 44.9755 157.298Z" fill="white"/>
<path d="M61.6221 130.064H66.8538L65.7327 148.61H66.1064C66.3306 145.437 66.8463 142.876 67.6572 140.924C68.4681 138.971 69.5444 137.543 70.8897 136.637C72.235 135.73 73.8307 135.277 75.673 135.277C77.1677 135.277 78.5205 135.624 79.7275 136.316C80.9346 137.007 81.895 138.11 82.605 139.621C83.315 141.131 83.67 143.084 83.67 145.475V158.393H78.6252V148.006C78.6252 145.766 78.2328 143.972 77.448 142.623C76.6633 141.275 75.3628 140.603 73.5429 140.603C71.5511 140.603 70.0563 141.264 69.0586 142.586C68.0608 143.908 67.4143 145.494 67.1154 147.345C66.8164 149.195 66.6669 151.318 66.6669 153.709V158.393H61.6221V130.064Z" fill="white"/>
<path d="M87.4963 135.541C86.9096 134.986 86.6182 134.295 86.6182 133.464C86.6182 132.633 86.9096 131.972 87.4963 131.406C88.083 130.839 88.8342 130.556 89.7572 130.556C90.6802 130.556 91.4276 130.839 91.9994 131.406C92.5711 131.972 92.8589 132.66 92.8589 133.464C92.8589 134.269 92.5711 134.986 91.9994 135.541C91.4276 136.097 90.6802 136.372 89.7572 136.372C88.8342 136.372 88.083 136.097 87.4963 135.541ZM87.1787 136.939H87.3282C87.6271 137.215 87.9896 137.422 88.4119 137.562C88.8342 137.702 89.2826 137.77 89.7572 137.77C90.2056 137.77 90.6428 137.702 91.0651 137.562C91.4874 137.422 91.8499 137.215 92.1488 136.939H92.2983V158.393H87.1787V136.939Z" fill="white"/>
<path d="M100.258 163.7C98.6401 163.16 97.448 162.442 96.6894 161.547C95.9308 160.652 95.5496 159.651 95.5496 158.544C95.5496 157.184 96.0616 156.116 97.0818 155.334C98.1019 154.552 99.522 154.087 101.342 153.936V153.596L101.006 153.634C99.6341 153.71 98.5279 153.683 97.6797 153.558C96.8314 153.434 96.155 153.169 95.643 152.765C95.1311 152.361 94.877 151.772 94.877 150.99C94.877 150.034 95.3366 149.328 96.2596 148.875C97.1827 148.422 98.4158 148.195 99.9592 148.195C101.054 148.195 102.302 148.282 103.696 148.459L103.734 148.082C100.92 147.904 98.8942 147.262 97.661 146.155C96.4278 145.049 95.8112 143.689 95.8112 142.076C95.8112 140.792 96.2148 139.632 97.0257 138.601C97.8366 137.57 99.0324 136.758 100.613 136.165C102.194 135.572 104.096 135.277 106.312 135.277C108.18 135.277 109.967 135.61 111.675 136.278C113.382 136.947 114.806 137.985 115.953 139.394L116.14 139.168C115.568 137.834 114.638 136.701 113.356 135.768C112.074 134.835 110.654 134.125 109.096 133.634C107.538 133.143 106.024 132.849 104.556 132.747V132.218L110.236 130.178C111.63 130.858 112.863 131.765 113.935 132.898C115.008 134.031 115.849 135.27 116.458 136.618C117.067 137.967 117.373 139.307 117.373 140.641C117.373 143.636 116.413 145.846 114.496 147.27C112.579 148.694 109.911 149.404 106.499 149.404C105.18 149.377 104.07 149.366 103.173 149.366L102.015 149.328C100.744 149.328 99.8359 149.415 99.2865 149.592C98.7372 149.77 98.4644 150.095 98.4644 150.575C98.4644 151.028 98.6774 151.322 99.0997 151.462C99.522 151.602 100.023 151.67 100.594 151.67C101.368 151.67 102.799 151.519 104.892 151.217C106.189 151.039 107.385 150.888 108.479 150.763C109.574 150.639 110.561 150.575 111.432 150.575C114.074 150.575 115.942 151.141 117.037 152.274C118.132 153.407 118.681 154.854 118.681 156.618C118.681 157.951 118.319 159.205 117.598 160.376C116.876 161.547 115.606 162.529 113.786 163.322C111.966 164.115 109.515 164.512 106.424 164.512C103.932 164.512 101.876 164.24 100.258 163.7ZM112.254 158.979C113.749 158.31 114.485 157.298 114.459 155.938C114.459 154.93 114.01 154.212 113.113 153.785C112.216 153.358 111.069 153.154 109.675 153.181C108.132 153.23 106.693 153.343 105.359 153.521C104.025 153.698 102.863 153.947 101.865 154.276C101.192 154.503 100.613 154.794 100.127 155.145C99.6416 155.496 99.3351 155.874 99.2118 156.278C99.2118 157.664 99.9144 158.627 101.323 159.167C102.732 159.708 104.417 159.98 106.387 159.98C108.805 159.98 110.759 159.647 112.254 158.979ZM110.666 145.532C111.701 144.864 112.216 143.991 112.216 142.907C112.216 141.823 111.701 140.879 110.666 140.225C109.63 139.572 108.218 139.243 106.424 139.243C104.63 139.243 103.184 139.557 102.164 140.188C101.144 140.818 100.632 141.698 100.632 142.831C100.632 143.965 101.144 144.803 102.164 145.494C103.184 146.186 104.604 146.533 106.424 146.533C108.244 146.533 109.63 146.201 110.666 145.532Z" fill="white"/>
<path d="M122.342 157.184C120.896 156.078 120.175 154.416 120.175 152.199C120.175 149.808 121.176 148.017 123.183 146.835C125.19 145.653 127.873 145.06 131.236 145.06C133.131 145.06 135.134 145.162 137.253 145.362V145.022C137.152 143.787 136.759 142.794 136.075 142.038C135.392 141.283 134.57 140.754 133.609 140.452C132.649 140.15 131.696 139.999 130.75 139.999C129.229 139.999 127.75 140.271 126.303 140.811C124.857 141.351 123.587 142.087 122.492 143.02H122.043V137.959C123.265 137.128 124.678 136.475 126.285 135.995C127.892 135.515 129.566 135.277 131.311 135.277C133.676 135.277 135.683 135.742 137.327 136.675C138.972 137.608 140.197 138.854 141.008 140.414C141.819 141.974 142.223 143.689 142.223 145.551V158.393H137.253V157.864L138 147.402H137.626C137.578 149.819 137.159 151.885 136.374 153.596C135.59 155.307 134.476 156.61 133.03 157.506C131.584 158.401 129.853 158.846 127.836 158.846C125.62 158.846 123.788 158.291 122.342 157.184ZM134.394 153.086C135.676 151.791 136.404 149.868 136.58 147.326H132.768C129.902 147.326 127.88 147.696 126.696 148.441C125.511 149.185 124.921 150.17 124.921 151.406C124.921 152.641 125.339 153.521 126.173 154.125C127.006 154.729 128.086 155.032 129.405 155.032C131.449 155.032 133.112 154.382 134.394 153.086Z" fill="white"/>
<path d="M145.738 135.731H150.97L149.849 148.61H150.223C150.447 145.438 150.963 142.877 151.773 140.924C152.584 138.971 153.661 137.544 155.006 136.637C156.351 135.731 157.947 135.277 159.789 135.277C161.284 135.277 162.637 135.625 163.844 136.316C165.051 137.007 166.011 138.11 166.721 139.621C167.431 141.132 167.786 143.085 167.786 145.476V158.393H162.741V148.006C162.741 145.766 162.349 143.972 161.564 142.624C160.779 141.275 159.479 140.603 157.659 140.603C155.667 140.603 154.165 141.256 153.156 142.567C152.147 143.878 151.501 145.457 151.213 147.307C150.925 149.158 150.783 151.292 150.783 153.71V158.393H145.738V135.731Z" fill="white"/>
<path d="M169.654 137.619V131.954H174.438V137.619L172.644 145.022H171.485L169.654 137.619Z" fill="white"/>
<path d="M176.567 156.202V150.726H177.016C178.387 152.161 179.901 153.135 181.556 153.653C183.212 154.17 184.8 154.427 186.321 154.427C187.64 154.427 188.776 154.201 189.721 153.747C190.667 153.294 191.141 152.512 191.141 151.406C191.141 150.801 190.91 150.318 190.45 149.951C189.99 149.585 189.393 149.309 188.656 149.12C187.92 148.932 186.982 148.735 185.835 148.535C183.94 148.233 182.386 147.893 181.164 147.515C179.942 147.137 178.877 146.495 177.969 145.589C177.061 144.682 176.605 143.436 176.605 141.849C176.605 140.49 177.008 139.311 177.819 138.318C178.63 137.325 179.733 136.569 181.126 136.052C182.52 135.534 184.09 135.277 185.835 135.277C187.58 135.277 189.187 135.53 190.73 136.033C192.274 136.535 193.608 137.23 194.729 138.11V142.869H194.318C193.298 141.838 192.001 141.019 190.431 140.414C188.862 139.81 187.255 139.508 185.611 139.508C184.265 139.508 183.137 139.742 182.229 140.206C181.321 140.671 180.865 141.358 180.865 142.265C180.865 142.869 181.108 143.353 181.594 143.719C182.079 144.086 182.707 144.361 183.481 144.55C184.254 144.739 185.237 144.935 186.433 145.136C188.376 145.464 189.99 145.815 191.272 146.193C192.554 146.571 193.664 147.202 194.598 148.082C195.532 148.962 195.999 150.159 195.999 151.67C195.999 153.936 195.151 155.7 193.458 156.958C191.766 158.216 189.348 158.846 186.209 158.846C182.423 158.846 179.209 157.966 176.567 156.202Z" fill="white"/>
<path d="M53.0047 190.272C51.1624 189.819 49.3911 189.026 47.6982 187.893V181.736H48.184C49.705 183.371 51.4165 184.501 53.3223 185.117C55.2282 185.732 57.0294 186.042 58.7222 186.042C60.2432 186.042 61.5548 185.785 62.6647 185.268C63.7746 184.75 64.3276 183.84 64.3276 182.529C64.3276 181.774 64.0586 181.177 63.5242 180.735C62.9898 180.293 62.2985 179.953 61.4502 179.715C60.6019 179.477 59.5182 179.243 58.1991 179.017C56.1064 178.612 54.3612 178.178 52.9673 177.713C51.5735 177.249 50.3627 176.497 49.3425 175.466C48.3223 174.435 47.8103 173.049 47.8103 171.311C47.8103 169.676 48.3036 168.278 49.2864 167.119C50.2693 165.959 51.5473 165.087 53.1168 164.494C54.6863 163.901 56.3792 163.606 58.1991 163.606C60.217 163.606 62.078 163.908 63.7858 164.512C65.4936 165.117 66.9697 165.974 68.2141 167.081V172.444H67.7656C66.6707 171.16 65.2432 170.148 63.4868 169.404C61.7305 168.66 59.8919 168.29 57.9748 168.29C57.1041 168.29 56.2633 168.392 55.4524 168.592C54.6415 168.792 53.9688 169.132 53.4345 169.612C52.9001 170.091 52.631 170.718 52.631 171.5C52.631 172.282 52.9113 172.898 53.4718 173.351C54.0324 173.804 54.7536 174.152 55.6392 174.39C56.5249 174.628 57.6497 174.862 59.0212 175.088C61.1624 175.466 62.9263 175.87 64.309 176.297C65.6916 176.724 66.8874 177.438 67.8964 178.431C68.9054 179.424 69.4099 180.803 69.4099 182.567C69.4099 184.331 68.9801 185.808 68.1206 187.081C67.2611 188.353 66.0018 189.317 64.3463 189.97C62.6909 190.624 60.7028 190.952 58.3859 190.952C56.6407 190.952 54.847 190.726 53.0047 190.272Z" fill="white"/>
<path d="M74.478 189.252C73.4951 188.119 73.0019 186.634 73.0019 184.795V170.971H70.3486V167.987C71.4211 167.987 72.2246 167.885 72.759 167.685C73.2933 167.484 73.6745 167.118 73.8987 166.589C74.1229 166.06 74.2351 165.218 74.2351 164.059H78.0841V167.836H83.2037V171.499L78.0841 170.933V183.246C78.0841 184.277 78.2597 185.052 78.6073 185.569C78.9548 186.087 79.5901 186.343 80.5131 186.343C81.4847 186.343 82.2695 185.879 82.8674 184.946H83.2037V189.176C82.1574 190.359 80.6738 190.952 78.7568 190.952C76.8397 190.952 75.4608 190.385 74.478 189.252Z" fill="white"/>
<path d="M90.2814 189.385C88.4241 188.339 87.0004 186.922 86.0026 185.136C85.0048 183.349 84.5078 181.37 84.5078 179.206C84.5078 177.041 85.0048 175.058 86.0026 173.257C87.0004 171.455 88.4241 170.027 90.2814 168.97C92.1387 167.912 94.2724 167.383 96.6902 167.383C99.108 167.383 101.238 167.912 103.08 168.97C104.923 170.027 106.35 171.455 107.359 173.257C108.368 175.058 108.873 177.041 108.873 179.206C108.873 181.37 108.376 183.349 107.378 185.136C106.38 186.922 104.96 188.339 103.118 189.385C101.275 190.431 99.1454 190.952 96.7276 190.952C94.3098 190.952 92.1387 190.431 90.2814 189.385ZM100.558 185.381C101.716 184.841 102.632 184.04 103.305 182.983C103.977 181.925 104.314 180.667 104.314 179.206C104.314 177.744 103.977 176.524 103.305 175.466C102.632 174.409 101.716 173.608 100.558 173.068C99.3995 172.528 98.1215 172.256 96.7276 172.256C95.3337 172.256 94.0183 172.528 92.8599 173.068C91.7014 173.608 90.7859 174.409 90.1132 175.466C89.4406 176.524 89.1042 177.77 89.1042 179.206C89.1042 180.641 89.4406 181.925 90.1132 182.983C90.7859 184.04 91.7014 184.841 92.8599 185.381C94.0183 185.921 95.3076 186.193 96.7276 186.193C98.1477 186.193 99.3995 185.921 100.558 185.381Z" fill="white"/>
<path d="M111.377 167.837H116.609L115.488 180.716H115.861C116.059 177.468 116.545 174.862 117.319 172.898C118.092 170.934 119.12 169.525 120.402 168.668C121.683 167.81 123.223 167.383 125.017 167.383V173.276H124.755C123.634 172.947 122.524 172.947 121.429 173.276C119.587 173.88 118.29 175.213 117.543 177.279C116.796 179.345 116.422 181.876 116.422 184.871V190.499H111.377V167.837Z" fill="white"/>
<path d="M131.573 189.423C129.667 188.403 128.191 186.994 127.145 185.192C126.098 183.391 125.575 181.37 125.575 179.13C125.575 176.89 126.061 174.987 127.033 173.2C128.004 171.413 129.376 169.997 131.143 168.951C132.911 167.905 134.929 167.383 137.197 167.383C139.14 167.383 140.915 167.78 142.522 168.573C144.129 169.366 145.4 170.518 146.334 172.029C147.268 173.54 147.735 175.304 147.735 177.317C147.735 177.997 147.672 178.715 147.548 179.47L130.246 178.941C130.246 180.879 130.74 182.39 131.722 183.474C132.705 184.558 133.834 185.287 135.104 185.664C136.375 186.042 137.608 186.231 138.804 186.231C140.175 186.231 141.524 186.042 142.859 185.664C144.193 185.287 145.344 184.747 146.315 184.04H146.689V188.875C145.717 189.506 144.495 190.008 143.027 190.386C141.558 190.764 139.951 190.952 138.206 190.952C135.691 190.952 133.479 190.442 131.573 189.423ZM142.429 174.428C141.879 173.608 141.151 172.981 140.243 172.539C139.335 172.097 138.329 171.878 137.234 171.878C136.289 171.878 135.336 172.074 134.376 172.463C133.415 172.853 132.574 173.464 131.853 174.295C131.132 175.126 130.657 176.173 130.433 177.43L143.363 177.242C143.288 176.184 142.978 175.247 142.429 174.428Z" fill="white"/>
</svg>
